<?xml version="1.0" encoding="UTF-8"?>
<svg width="109.82mm" height="109.89mm" clip-rule="evenodd" fill-rule="evenodd" image-rendering="optimizeQuality" shape-rendering="geometricPrecision" text-rendering="geometricPrecision" version="1.1" viewBox="0 0 10982.007 10988.502" xml:space="preserve" xmlns="http://www.w3.org/2000/svg" xmlns:cc="http://creativecommons.org/ns#" xmlns:dc="http://purl.org/dc/elements/1.1/" xmlns:rdf="http://www.w3.org/1999/02/22-rdf-syntax-ns#"><metadata><rdf:RDF><cc:Work rdf:about=""><dc:format>image/svg+xml</dc:format><dc:type rdf:resource="http://purl.org/dc/dcmitype/StillImage"/><dc:title/></cc:Work></rdf:RDF></metadata>
 <defs>
  <style type="text/css">
   <![CDATA[
    .fil0 {fill:#1E1E20}
    .fil1 {fill:#FDFDFD}
   ]]>
  </style>
 </defs>
 <g transform="translate(-15079 -8790.9)">
   <path class="fil0" d="m20749 15246 566-544c30-31 62-68 90-93 86-78 43-49 134-93 302 324 1894 1846 1995 2042l-745 723c-331-162-1579-1574-2040-2035zm-1944-3451c255-98 527-479 725-648l839 858-640 662c52 100 21 55 100 144l772 778c-97 129-642 680-768 768-213-191-712-756-931-884l-1185 1165-229-1464c157-136 494-431 549-616l-169-203 774-750zm3401 489c102 520 497 730 739 501 225-212 488-542 711-706-46 1092-278 1461-1197 1446-438-6-618 319-828 525l-1336 1339c-202 203-539 405-538 829 0 535-20 713-354 955-254 183-720 243-1081 256 233-311 568-513 795-840-37-363-273-563-623-597-152 171-646 694-812 808 23-401 60-746 233-1072 358-675 1055-140 1441-538l1010-1021c293-285 1198-1055 1213-1453 27-751 6-1220 1432-1266zm963-1149c142-365 417-704 395-1191-995-824-948-279-1566 509l-757-205c-42-470-11-827-223-1213-212-59-682-58-895-2-227 412-163 722-221 1195l-759 218c-137-229-587-918-830-934-224 62-577 297-735 432-36 523 279 791 398 1233-200 115-391 308-518 497-440-108-662-431-1218-391-105 118-385 567-428 738 24 271 691 695 920 773l-236 815c-483 54-749 7-1165 223-70 250-69 689 2 896 406 232 809 108 1151 238l209 796c-284 148-761 509-881 781 57 200 311 584 428 733 484 36 754-256 1128-358 381 458 403 409 562 590-109 363-393 620-349 1111 158 119 529 371 732 427 569-248 424-553 782-840l790 221c127 321 20 724 240 1101 210 69 685 68 892 0 242-383 120-815 238-1105l791-222c35 35 14 6 67 74 10 13 480 753 717 772 216-63 569-284 723-401 89-439-244-799-342-1140 94-106 193-161 304-278 106-111 164-210 259-311 375 112 630 390 1130 361 142-189 405-522 415-781-145-242-589-597-865-731l211-802c367-126 701 10 1145-238 69-204 66-680 4-894-346-205-709-175-1173-213l-225-830c241-96 886-502 913-768-55-207-307-585-425-736-416-41-846 231-1158 390-233-221-271-341-577-540z" fill="#1e1e20"/>
   <path class="fil1" d="m23011 11450c-1426 46-1405 515-1432 1266-15 398-920 1168-1213 1453l-1010 1021c-386 398-1083-137-1441 538-173 326-210 671-233 1072 166-114 660-637 812-808 350 34 586 234 623 597-227 327-562 529-795 840 361-13 827-73 1081-256 334-242 354-420 354-955-1-424 336-626 538-829l1336-1339c210-206 390-531 828-525 919 15 1151-354 1197-1446-223 164-486 494-711 706-242 229-637 19-739-501z" fill="#fdfdfd"/>
   <path class="fil1" d="m18805 11795-163-190-774 750 169 203c-55 185-392 480-549 616l229 1464 1185-1165c219 128 718 693 931 884 126-88 671-639 768-768l-772-778c-79-89-48-44-100-144l640-662-839-858c-198 169-470 550-725 648z" fill="#fdfdfd"/>
   <path class="fil1" d="m20749 15246c461 461 1709 1873 2040 2035l745-723c-101-196-1693-1718-1995-2042-91 44-48 15-134 93-28 25-60 62-90 93z" fill="#fdfdfd"/>
 </g>
</svg>
