<?xml version="1.0" encoding="UTF-8"?>
<svg width="27.166mm" height="27.289mm" clip-rule="evenodd" fill-rule="evenodd" image-rendering="optimizeQuality" shape-rendering="geometricPrecision" text-rendering="geometricPrecision" version="1.1" viewBox="0 0 2716.5947 2728.941" xml:space="preserve" xmlns="http://www.w3.org/2000/svg" xmlns:cc="http://creativecommons.org/ns#" xmlns:dc="http://purl.org/dc/elements/1.1/" xmlns:rdf="http://www.w3.org/1999/02/22-rdf-syntax-ns#"><metadata><rdf:RDF><cc:Work rdf:about=""><dc:format>image/svg+xml</dc:format><dc:type rdf:resource="http://purl.org/dc/dcmitype/StillImage"/><dc:title/></cc:Work></rdf:RDF></metadata>
 <defs>
  <style type="text/css">
   <![CDATA[
    .fil0 {fill:#0C0304}
   ]]>
  </style>
 </defs>
 <g transform="translate(-19012 -6742)">
   <path class="fil0" d="m19823 7266c140 56 356-76 523 35 71 47 270 248 306 301-76 127-517 537-656 677-184 184-387 469-579 411-120-36-154-165-204-41-18 45 378 412 464 501 68 69 97 133 184 119 38-130-191-210-6-435l1015-999c247 125 458 432 313 769l78 74c78-135 196-217 268-351l-1378-1385-264 210c-79 88-36 7-64 114z" fill="#0c0304"/>
 </g>
</svg>
