<?xml version="1.0" encoding="UTF-8"?>
<svg width="53.309mm" height="42.924mm" clip-rule="evenodd" fill-rule="evenodd" image-rendering="optimizeQuality" shape-rendering="geometricPrecision" text-rendering="geometricPrecision" version="1.1" viewBox="0 0 5330.8559 4292.4282" xml:space="preserve" xmlns="http://www.w3.org/2000/svg" xmlns:cc="http://creativecommons.org/ns#" xmlns:dc="http://purl.org/dc/elements/1.1/" xmlns:rdf="http://www.w3.org/1999/02/22-rdf-syntax-ns#"><metadata><rdf:RDF><cc:Work rdf:about=""><dc:format>image/svg+xml</dc:format><dc:type rdf:resource="http://purl.org/dc/dcmitype/StillImage"/><dc:title/></cc:Work></rdf:RDF></metadata>
 <defs>
  <style type="text/css">
   <![CDATA[
    .fil1 {fill:#282829}
    .fil0 {fill:black}
   ]]>
  </style>
 </defs>
 <g transform="translate(-17335 -12854)">
   <path class="fil0" d="m19812 14465c-4-9-8-30-11-41-3-13-7-31-9-45-6-31-10-61-14-93l-18-144c-4-49-12-98-15-147l-17-197c-2-15-5-34-6-49l-3-37c-2-10 2-4-5-9-7 34-10 75-13 111l-24 231c-14 117-34 331-70 437-11 34-8 21-56 39-7 2-17 6-23 9-9-19-15-42-21-62-41-142-49-322-73-471-2-9-3-27-10-32-12 53-18 132-23 190l-7 66c-6 44-5 89-11 133l-22 267c-2 14-2 31-2 46 35 8 115 54 145 72 33 21 65 42 95 68l57 52 52 58c9 10 18 20 26 30 23 31 46 63 67 97 24 41 45 83 66 126 57 119 91 284 108 413 7 57 11 117 17 174 1 8 3 15 5 23h6c2-8 3-12 5-22 5-34 5-64 9-99l8-74c13-94 30-183 56-273 15-54 34-109 60-160 51-102 87-160 161-248 26-30 55-56 83-82 33-31 71-59 110-83 23-14 45-27 70-39 21-11 54-28 76-33 0-14 0-31-2-44l-15-178c-1-16-2-30-3-44-5-40-6-95-11-133-3-15-2-30-4-45-11-77-12-183-30-258-12 8-23 129-25 142-14 125-30 274-68 392-3 10-9 22-11 31-16-8-58-19-68-24-5-3-4-4-6-9-13-38-21-74-29-116-20-108-33-224-46-334-3-20-4-40-6-58-1-11-2-17-3-28-5-68-15-136-21-202l-7-56c-6 4-5 7-6 19l-25 271c-4 55-18 184-26 244-7 48-12 94-21 141-4 22-8 45-14 66-2 8-5 13-6 21-19-5-58-6-79-8-1-12-11-40-14-54-24-95-33-194-45-293-3-21-4-42-6-61-4-31-4-63-8-95-2-16-1-31-2-47-1-7-2-7-2-15-1-33-6-65-6-97 0-31-6-65-6-96l-10-159c-3-21-4-40-9-60-6 4-7 21-8 29l-12 170c-2 11-1 25-3 34-1 11-1 25-2 35l-2 51c0 9-1 9-2 17l-2 35c0 14-2 22-2 35 0 11-1 21-2 34l-2 34c-4 23-3 47-6 70-4 43-8 89-13 133-2 22-5 43-8 65-8 72-21 146-41 215-7 25-10 20-31 22-8 0-9 2-18 2-10 0-26 2-35 4z"/>
   <path class="fil1" d="m17664 13853 1095-412v-187c0-110 90-200 200-200h2088c110 0 200 90 200 200v139l1089 410c103 38 155 154 117 257l-1017 2707c-39 103-155 155-258 117l-1111-418-1245 468c-103 38-219-14-258-117l-1017-2707c-38-103 14-219 117-257zm1286-588h2085v2953h-2085zm2297 303v2619c0 110-90 200-200 200h-723l921 346 1042-2773zm-1438 2819h-850c-110 0-200-90-200-200v-2571l-1046 394 1042 2773z" fill="#282829"/>
 </g>
</svg>
