<?xml version="1.0" encoding="UTF-8"?>
<svg width="24.251mm" height="24.236mm" clip-rule="evenodd" fill-rule="evenodd" image-rendering="optimizeQuality" shape-rendering="geometricPrecision" text-rendering="geometricPrecision" version="1.1" viewBox="0 0 2425.1217 2423.6212" xml:space="preserve" xmlns="http://www.w3.org/2000/svg" xmlns:cc="http://creativecommons.org/ns#" xmlns:dc="http://purl.org/dc/elements/1.1/" xmlns:rdf="http://www.w3.org/1999/02/22-rdf-syntax-ns#"><metadata><rdf:RDF><cc:Work rdf:about=""><dc:format>image/svg+xml</dc:format><dc:type rdf:resource="http://purl.org/dc/dcmitype/StillImage"/><dc:title/></cc:Work></rdf:RDF></metadata>
 <defs>
  <style type="text/css">
   <![CDATA[
    .str0 {stroke:#FEFEFE;stroke-width:25}
    .fil0 {fill:black}
   ]]>
  </style>
 </defs>
 <g transform="translate(-4174.4 -5659.5)">
  <path class="fil0 str0" d="m5031 6797h712c41 0 75 33 75 75 0 41-34 75-75 75h-712c-41 0-75-34-75-75 0-42 34-75 75-75zm1083-585c0 48-58 130-142 44-24-24-35-32-61-53-258-213-657-239-945-70-14 9-22 11-34 19-79 48-184 147-237 225l-77 128c-108 226-108 498-2 728 126 272 429 488 733 488 249 0 454-64 634-245 69-68 125-143 169-233 109-221 110-471 19-701-17-41-59-98-16-145 20-23 82-34 116 14 67 93 116 345 116 476 0 82-19 192-42 261-20 62-41 122-71 179-6 13-13 26-21 40l-155 201c-80 88-191 165-302 213-467 204-942 48-1229-340l-68-114c-9-15-15-32-22-46-168-346-90-761 143-1047 20-25 40-46 62-67 20-21 39-39 63-59 72-61 142-107 232-146 293-128 552-115 841 9 68 29 296 177 296 241z" stroke="#fefefe" stroke-width="25"/>
 </g>
</svg>
