<?xml version="1.0" encoding="UTF-8"?>
<svg width="24.251mm" height="24.243mm" clip-rule="evenodd" fill-rule="evenodd" image-rendering="optimizeQuality" shape-rendering="geometricPrecision" text-rendering="geometricPrecision" version="1.1" viewBox="0 0 2425.1143 2424.2661" xml:space="preserve" xmlns="http://www.w3.org/2000/svg" xmlns:cc="http://creativecommons.org/ns#" xmlns:dc="http://purl.org/dc/elements/1.1/" xmlns:rdf="http://www.w3.org/1999/02/22-rdf-syntax-ns#"><metadata><rdf:RDF><cc:Work rdf:about=""><dc:format>image/svg+xml</dc:format><dc:type rdf:resource="http://purl.org/dc/dcmitype/StillImage"/><dc:title/></cc:Work></rdf:RDF></metadata>
 <defs>
  <style type="text/css">
   <![CDATA[
    .str0 {stroke:#FEFEFE;stroke-width:25}
    .fil0 {fill:black}
   ]]>
  </style>
 </defs>
 <g transform="translate(-10100 -5621.9)">
  <g stroke="#fefefe" stroke-width="25">
   <path class="fil0 str0" d="m10957 6759h281v-281c0-41 34-75 75-75s75 34 75 75v281h281c41 0 75 34 75 75s-34 75-75 75h-281v281c0 41-34 75-75 75s-75-34-75-75v-281h-281c-41 0-75-34-75-75s34-75 75-75z"/>
   <path class="fil0 str0" d="m10586 6175c0 48 58 129 142 43 24-23 35-32 61-53 258-213 657-239 945-69 14 8 22 11 34 18 79 49 184 148 237 226l77 128c108 226 108 498 2 727-126 273-429 488-733 488-249 0-454-64-634-244-69-69-125-143-169-233-109-222-110-472-19-701 17-41 59-99 16-146-20-22-82-34-116 15-67 92-116 344-116 475 0 83 19 192 42 262 20 61 41 122 71 179 6 13 13 25 21 39l155 202c80 88 191 165 302 213 467 204 942 48 1229-340l68-114c9-16 15-32 22-46 168-347 90-761-143-1048-20-24-40-45-62-67-20-20-39-38-63-58-72-62-142-107-232-147-293-128-552-114-841 9-68 29-296 177-296 242z"/>
  </g>
 </g>
</svg>
