<svg viewBox="0 0 434.07 296.29">
  <path style="fill: currentColor;" d="M1163.7,627.83c-5.59-6.92-11-13.28-16-19.89-16.61-21.77-29.89-45.34-38.21-71.53a181.63,181.63,0,0,1-8.31-66.44c1.58-26.49,8.93-51.38,20.59-75a232.1,232.1,0,0,1,37.14-54.17c1.46-1.59,2.89-3.2,4.65-5.15,3.74,4.09,7.24,7.69,10.48,11.5a231.63,231.63,0,0,1,36,57.45,197,197,0,0,1,15.11,54.21,174.77,174.77,0,0,1,.36,41.77A191.05,191.05,0,0,1,1212,552.46a239.44,239.44,0,0,1-31.11,53.74c-5.24,6.88-10.88,13.46-16.33,20.19A12.64,12.64,0,0,0,1163.7,627.83Zm-2.6-278.19c-.16.18-.33.35-.47.54a295.22,295.22,0,0,0-34.76,56.35c-8.08,17.39-14.16,35.37-15.66,54.65-.11,1.36-.17,2.72-.21,4.08s0,2.66,0,4.21C1118.4,425.6,1139.19,387.4,1161.1,349.64Z" transform="translate(-947.39 -335.61)"/>
  <path style="fill: currentColor;" d="M1230.82,586.42c35-62.88,39.48-127.5,11.11-194.29L1308,361c1.19,4.78,2.38,9.31,3.44,13.88a252.14,252.14,0,0,1,6.93,59.82,185.94,185.94,0,0,1-11,62.67,169.8,169.8,0,0,1-56,76c-6.43,4.86-13.31,9.11-20,13.64Zm60.52-64.66c6.93-12.71,16.67-38.26,19.34-71.86,1.64-20.61-2.58-64.11-8-74a311.22,311.22,0,0,1,3,73.77A293.6,293.6,0,0,1,1291.34,521.76Z" transform="translate(-947.39 -335.61)"/>
  <path style="fill: currentColor;" d="M1087.85,392.6c-28.65,65.64-25.57,129.75,8.17,192.91a18.43,18.43,0,0,1-2-.88,169.58,169.58,0,0,1-81.27-121.84,205.82,205.82,0,0,1,.35-64c2-12.08,4.85-24,7.33-36,.1-.45.29-.89.56-1.75Zm-51.3,127.32c-14.86-47.14-17.9-95.17-10.82-143.95C1013.11,425.15,1014.77,473.27,1036.55,519.92Z" transform="translate(-947.39 -335.61)"/>
  <path style="fill: currentColor;" d="M1224.29,631.45c4.19-1.92,8.41-3.78,12.57-5.77a176.17,176.17,0,0,0,39.44-26.38c20.38-17.75,37-38.66,50.61-61.9,4.09-7,7.61-14.27,11.32-21.45.57-1.1,1-1.82,2.47-1.55,13.45,2.5,26.91,4.93,40.76,7.46-9.71,29.28-24.47,55-48.13,75C1301.85,623.33,1265,633.43,1224.29,631.45Zm145.64-93.29c-18,28.31-38.63,54.24-65.87,74.38C1335.52,596.2,1355.17,569.37,1369.93,538.16Z" transform="translate(-947.39 -335.61)"/>
  <path style="fill: currentColor;" d="M947.39,521.88l24.73-4.53c5-.91,9.93-1.78,14.87-2.78,1.88-.39,3-.18,3.9,1.83a244.64,244.64,0,0,0,24,41,241.75,241.75,0,0,0,35.73,40.15,185.51,185.51,0,0,0,42.91,28.94c3,1.46,6.16,2.7,9.24,4a5.58,5.58,0,0,1,1.76,1.1c-35.71,1.82-68.85-6.09-98.41-26.62S958.67,555.78,947.39,521.88Zm11.54,16.29c14.75,31.19,34.39,58,65.89,74.38C997.58,592.43,976.9,566.5,958.93,538.17Z" transform="translate(-947.39 -335.61)"/>
</svg>
