<svg viewBox="0 0 524.94 402.66">
  <path style="fill:currentColor" d="M377.81,375.25q-15.06.84-23.27-11.63a26.31,26.31,0,0,1-4.13-19.08c2.49-15,7.92-28.48,20.65-38a5.2,5.2,0,0,0,1.86-4c-3.95-26.46,9.76-43.8,29.45-58.41,11.29-8.38,22.67-9.57,35.42-3.53,15.07,7.14,28.3,16.32,33.61,32.75,2.59,8,2.39,17,3,25.51.24,3.36.88,5.65,3.68,8,13.32,11.12,18.89,26.25,20.27,43,1.13,13.7-10.57,23.74-23.19,25.26-1.1.13-2.19.41-3.28.62l-.28,1.5c2.1.39,4.48,1.6,6.25,1,5-1.67,9.69-4.15,14.55-6.19,8-3.37,11.35-9.19,12.73-18,3.28-20.74,14.81-37.13,30.61-50.52,16.48-14,39.15-7,45,14,6.7,24.11,3.71,47.16-10,68.34-2.48,3.83-3.81,7.05-1.49,11.29,1.44,2.63,1.72,6.83,3.81,8,4.73,2.6,10.26,3.76,15.41,5.49-.59-8.21-1.43-15.2-1.51-22.19-.12-10.83,5.13-18.95,14.71-23.55,7.14-3.42,12.89-7.6,17.7-14.19,10.15-13.94,25.17-17,41.38-15.45,19.6,1.81,29.43,15.85,26.53,36.68-2.71,19.43-9.54,37.22-19.65,53.92a12.82,12.82,0,0,0-1.3,7.05c.72,11.07-3.5,20-11,27.86a29.07,29.07,0,0,0-5,8.31q-6.66,15-12.86,30.2a9.24,9.24,0,0,0-.51,5.86c3.44,10.31,3.63,20.11-2.74,29.55-6.2,9.17-5.71,19.44-4.25,29.82,1.17,8.37,2.09,16.77,3.22,25.15a8.41,8.41,0,0,0,1.37,3.1c12.23,20.21.47,43.71-23.08,45.91-5.1.48-10.25.63-15.38.64q-58.89.13-117.78.15-109,0-218.09-.16c-7.9,0-15.87.17-23.7-.73-10.93-1.27-20.45-6.13-24.74-16.76s-4-21.47,3.54-31.12c.61-.78,1.51-1.57,1.63-2.45,1.57-11.45,3.19-22.89,4.41-34.38.52-4.82-1-8.83-4.61-12.89-9.45-10.64-8.77-23.48-5.32-36.27.85-3.12.9-5.37-.63-8.36-3.94-7.67-7.94-15.44-10.6-23.6-2.33-7.12-7.09-12.18-11.37-17.79-5.19-6.81-6.53-14.66-6.53-23a17.92,17.92,0,0,0-2.21-8.29c-10.21-18.62-17.34-38.05-17.26-59.64.06-16.8,10.23-27.87,27.12-28.81,19.42-1.08,35.91,4.1,45.67,22.71a5.44,5.44,0,0,0,2.91,2.38c19.71,6.33,30.52,27.62,22.26,48.3-.11.27,0,.65.05,1,10.33,1.47,14.25-1.48,18-10.88,2.47-6.16,1.64-10.27-1.93-15.93-13.47-21.35-16.28-44.44-7.06-68.19,7.75-20,30.62-24.22,46-9.34,16.58,16,27.84,34.59,30,58,.11,1.19.66,2.9,1.54,3.37,7.46,4,14.92,7.93,22.66,11.27,2.2.95,5.29-.17,8-.35ZM241.24,584.75c3.62,2.2,354.27,3.42,367.48,1.42a6.53,6.53,0,0,0,.07-1.46c-.47-2.79-1-5.57-1.49-8.34-3.64-19.19-4.55-38,6.62-55.47a7.42,7.42,0,0,0-2.12-10.29c-3.34-2.35-7.71-4.48-11.66-4.51-39.92-.31-79.85-.16-119.77-.17q-110.3,0-220.6-.05c-6.13,0-12.29.24-18.39.83-4.29.41-7,3.57-7.56,7.57s-2.06,8.57,2.15,11.53c5.2,3.65,7.55,8.81,8.38,14.71C246.47,555.49,246.07,570.34,241.24,584.75ZM441.93,326c.94-2.11,1.6-3.74,2.38-5.31,4.76-9.6,6.53-19.75,6.18-30.44-.25-8-3.15-14.81-9.47-19.47-5.14-3.81-11.08-6.56-16.77-9.59a4.76,4.76,0,0,0-3.65,0c-20.38,9.17-28.26,27.48-20.8,48.52,1.85,5.24,4.24,10.29,6.44,15.58-17.38-2.53-21.17-1.51-26.42,7-4.52,7.35-6.12,15.17-3.8,18.59,16.26-10.23,25.88-7.15,33.39,10.73-8.5,7.92-8.92,23.61-.91,33.23,6.07,7.28,21.29,8.73,28.74,2.4,8.67-7.37,13.86-23.08,1.7-35.95,3.86-6.54,7.27-13.85,15.22-16.26,7.21-2.19,13.22,1.73,19.34,5.8-.28-8.61-2.74-16.42-8.15-23C458.63,319.71,450.35,323.79,441.93,326Zm-25,77.35-2.7,19.14c-2.92,20.69-10.45,39.41-24,55.46-5.61,6.65-12.08,12-21.81,9.88a10.15,10.15,0,0,0-2,0c-5.07-.06-4,3.82-4.3,6.77-.29,3.37,2,3.65,4.56,3.64q21.19-.06,42.39-.05,36.92,0,73.82,0c3,0,5.26-.23,5.13-4.15-.12-3.71-.57-6.87-5.41-6.22-10.22,1.38-17.53-3.92-23.93-10.74a48.77,48.77,0,0,1-8.49-11.62c-3.84-7.87-7.69-15.92-10-24.31-3.43-12.43-5.52-25.22-8.18-37.82Zm7.51,199.85H370.54c-43.07,0-86.14-.05-129.21.16-2.56,0-5.42,1.81-7.48,3.56-.76.64-.19,4.66.81,5.2,2.38,1.29,5.37,1.58,8.15,2,1.75.23,3.59-.26,5.38-.17,6.3.32,12.6,1.09,18.9,1.09q104,0,208-.12c39.4,0,78.81.13,118.21.15,5.48,0,11,.2,16.4-.58,1.94-.29,4.54-3,4.93-4.94.34-1.73-1.61-4.44-3.27-5.84-1.12-.94-3.51-.44-5.33-.44Q515.23,603.22,424.42,603.23Zm158.09-105v-.11c7.14,0,14.29-.23,21.42.09,3.71.17,5.83-1.46,7.79-4.19,7.64-10.66,12.65-22.53,16.13-35.08,1.43-5.18,3.11-9.93,8.09-13,2-1.23,3.49-3.55,4.74-5.66,2.53-4.27,1.62-11.5-1.57-15s-11.18-4.51-16.39-2.09c-4.16,1.92-8.32,8-7.15,12.11.93,3.27-.36,4.81-2.18,6.81-10.94,12.05-22.15,23.89-32.55,36.4-5.09,6.11-9.92,11.26-18.54,10.66A4.82,4.82,0,0,0,559,490c-1.48,1.38-3.36,3.05-3.64,4.83-.51,3.25,2.3,3.4,4.74,3.4Zm-316.68-.13v.14c7.15,0,14.3,0,21.45,0,2.73,0,5.88.67,6-3.83.12-4.13-2.62-4.77-5.53-4.67-5.66.19-9.91-2.4-13.59-6.21q-15.4-16-30.67-32.08c-4.85-5.14-10.4-10-9.52-18.2a5.26,5.26,0,0,0-.54-1.91c-2.06-6.44-6.11-9.47-12.46-9.33-6.85.16-12.73,3.92-14.14,9.05-1.49,5.42,1.26,11,6.71,14.86a12.77,12.77,0,0,1,4.59,5.86c4.84,14.92,11,29.18,19.58,42.37,1.76,2.69,3.54,4.28,7.17,4.08C251.86,497.79,258.86,498.06,265.83,498.06Zm261-118.45a4.24,4.24,0,0,1-1.09.44c-7.86.52-10.91,10.72-8.63,16.21,3.32,8,8.25,11.54,17.31,8.26,7.89-2.86,10.69-8.25,7.56-16-1.29-3.19-.45-5,1.68-7.3,14.48-15.91,19.47-34.38,14.19-55.37-.52-2-1.92-3.85-3-5.86C540.46,329.77,525.89,347.42,526.81,379.61Zm-205.16-.17c0-2.24-.09-4.39,0-6.54.91-19.88-7.37-35.73-21.47-49-5.15-4.84-6.78-4.4-8.89,2.49-5.61,18.39-1.62,35,10.47,49.42,4.5,5.36,6.89,10,5.53,17.1a12.7,12.7,0,0,0,3.08,9.84c4.4,4.39,10.52,3.82,16,1.73,5.6-2.15,5.79-7.34,6.06-12.54.29-5.78-2.71-8.91-7.4-11.13C324,380.31,322.89,379.94,321.65,379.44Zm-7.36,102.39.21-1.57c20.65.95,39.87-4.92,58.26-13.27a106.63,106.63,0,0,0,24-15.56c3.68-3.09,5.12-9,7.16-13.77.49-1.15-.63-3-1-4.51a22,22,0,0,0-4.24,1.52,37.85,37.85,0,0,0-3.88,3.12C357.08,466.71,316,477.06,270,460.32c-1.3-.47-3,.15-4.51.26.31,1.78,0,4.39,1,5.19,4.83,3.67,9.63,8.27,15.21,9.86C292.32,478.66,303.41,479.87,314.29,481.83Zm270.25-21.52c-1.58-.3-1.93-.48-2.2-.4-1.75.51-3.48,1.1-5.22,1.64-46.54,14.22-88.18,5.2-125.16-26.26-1.5-1.27-3.88-1.51-5.86-2.22.07,2.22-.54,4.76.32,6.62,6.46,14,17.7,23.15,31.59,29,24.39,10.24,50,13.39,76.17,10.94,10.26-1,19.87-4.39,26.93-12.55C582.64,465.28,583.32,462.78,584.54,460.31ZM213.12,388.06c.86-3.95,2.07-7.27,2.23-10.65.57-12-6.94-18.36-21.29-18.36-6.89,0-7.33.51-7,7.33.83,19.38,8.44,36.28,18.65,52.35,2.38,3.75,5.19,4,7.61,1.56a81,81,0,0,0,11.58-14.63c2-3.37,4.06-5,7.78-5.68,7.17-1.24,9.11-6.12,4.69-12-2.71-3.6-6.36-5.92-11.25-4.31C222,385,217.94,386.42,213.12,388.06ZM636,387.88c-4.42-1.42-8.36-2.58-12.22-4a9.61,9.61,0,0,0-10.89,2.75c-1.84,2.27-1.9,6.36-1.79,9.61,0,1,3.21,1.89,4.87,2.94,1.93,1.21,4.12,2.23,5.61,3.87,5.21,5.71,10.07,11.75,15.28,17.47,1.6,1.76,3.57,2,5.33-.57,10.1-14.65,18-30.24,20.41-48.11,1.75-13.18,1.36-13.06-12-12.94-9.2.07-20.47,12.69-16.24,21.59C635.39,382.66,635.44,385.25,636,387.88Zm-90.12,16.2-1.32-.62c-1.17,1.82-2.9,3.5-3.43,5.5-3.08,11.59,3.33,26.52,14.12,31.85,15.35,7.57,31.1,7,46.73.67a29.68,29.68,0,0,0,7.42-5c1.08-.91,1.48-2.63,2.2-4-1.59-.35-3.25-1.21-4.74-1-12.69,2.06-25.27,3.71-37.75-1.43-9.27-3.82-18-8.12-21.44-18.49C546.83,409.21,546.45,406.61,545.86,404.08Zm-238.52.53c-4.68-1.77-5.52.57-6.22,3.46-2.84,11.82-10.21,20-21.76,23.07-7.37,2-15.35,2-23.08,2.16-4.58.1-9.18-1.3-13.8-1.79-1.22-.13-2.54.62-3.81,1,.54,1.25.74,3,1.69,3.65,4.28,2.77,8.49,6.18,13.25,7.59,13.27,3.94,26.46,3.36,39.26-2.77,10.1-4.84,14.88-12.9,15.34-23.7C308.39,413,307.65,408.74,307.34,404.61Zm143.18-15c-5,2.27-5.41,3.43-3.44,9.26,3,8.93,15.41,16.57,27.19,17.18,16.78.87,27.8-8.12,36.49-21,.84-1.25.11-3.56.11-5.78C476.26,407.17,466.38,407.15,450.52,389.59ZM337.17,390c.33,1.86.12,4.06,1.06,5.54,6.12,9.6,14.58,16.26,25.73,19.15,11.3,2.94,21.79,1.06,31.05-6.11,5.72-4.43,8.18-10.4,7.14-19.17-10,7.17-19,14.19-31.47,13.09C358.52,401.43,349,394.78,337.17,390Zm47.74,48.75c-.31-.49-.62-1-.94-1.48a3.33,3.33,0,0,0-.89-.34,9.47,9.47,0,0,0-2-.06c-15.47,1.53-27.32-5.42-37.43-16.18-3.53-3.75-6.61-7.91-10-11.75-.59-.67-1.89-.72-2.86-1.05-.32.93-1.13,2-.86,2.75,4.28,11.32,8.62,22.61,13.17,33.83.53,1.28,2.43,3,3.57,2.89,9.86-.78,19.76-1.57,29.51-3.19C379.28,443.65,382,440.63,384.91,438.75Zm78.31-1.61c3.91,5.32,8.45,7.87,13.52,8.61,7.35,1.08,14.85,1.14,22.27,1.84a6,6,0,0,0,6.68-3.92c4.74-10.76,9.48-21.53,14.08-32.35.39-.91-.27-2.26-.45-3.4-1.07.46-2.44.65-3.18,1.43-3.65,3.85-7,8-10.71,11.78-10.35,10.47-22.34,17.17-37.7,15.76A37.8,37.8,0,0,0,463.22,437.14Zm-159.3,26.91c.76.6,1,.95,1.24,1,12.5.25,22.89-4.69,31.67-13.25a5.25,5.25,0,0,0,1.15-4.43c-4-12.39-8.16-24.7-12.3-37l-2.57.09c-.43,1.7-1.25,3.4-1.21,5.09.14,5.44,1.34,11,.76,16.31-1.22,11.36-7.44,20.39-15.18,28.46C306.29,461.49,305.13,462.76,303.92,464.05Zm241.55,1c-1.31-1.55-1.85-2.34-2.53-3-13.67-12.95-18.39-28.73-15.18-47.14.23-1.27-.77-2.76-1.21-4.14-1.13.89-2.86,1.55-3.3,2.71-4.18,11-8.18,22.08-12.08,33.18a4.29,4.29,0,0,0,.57,3.61C520.48,459.86,530.8,466.07,545.47,465Z" transform="translate(-162.8 -236.75)"/>
  <path style="fill:currentColor" d="M319.75,535.82c10.25.08,17.06,7.25,17.05,17.95,0,9.36-8,16.64-18.16,16.46-8.39-.15-16.11-8-16.29-16.53A17.43,17.43,0,0,1,319.75,535.82Z" transform="translate(-162.8 -236.75)"/>
  <path style="fill:currentColor" d="M540.38,553c-.33,9.73-7.13,17.4-15.08,17-12.19-.62-18.21-6.84-17.85-18.43.27-8.78,7.65-16,16-15.63C534.63,536.42,540.73,542.56,540.38,553Z" transform="translate(-162.8 -236.75)"/>
  <path style="fill:currentColor" d="M427.29,568.67C416.53,568.53,409.78,562,410,552c.21-8.36,7.5-16,15.43-16.07,10.79-.17,17.76,6.83,17.59,17.68C442.91,562.81,436.64,568.8,427.29,568.67Z" transform="translate(-162.8 -236.75)"/>
  <path style="fill:currentColor" d="M275.35,553.88c0,5.21-2.25,7.16-8.27,7.11s-8.27-2.17-8.28-7.84c0-6.49,1.8-8.37,8.08-8.39C273.6,544.75,275.31,546.59,275.35,553.88Z" transform="translate(-162.8 -236.75)"/>
  <path style="fill:currentColor" d="M372.84,561c-4.92.05-9.25-3.9-9.18-8.35.07-4.17,4-7.82,8.63-7.93,4.89-.11,9.08,3.11,9.19,7.06C381.64,557.4,378.28,561,372.84,561Z" transform="translate(-162.8 -236.75)"/>
  <path style="fill:currentColor" d="M472.15,544.76c4.34,0,8.24,4.26,8.1,8.79s-3.75,7.39-9.36,7.44c-4.53,0-8.15-3.25-8.17-7.42C462.68,547.67,465.83,544.72,472.15,544.76Z" transform="translate(-162.8 -236.75)"/>
  <path style="fill:currentColor" d="M576.78,544.76c6.4,0,8.36,1.67,8.31,7.07-.06,6.57-2.32,9.24-7.74,9.17-5.58-.07-8.43-3-8.47-8.74S570.83,544.76,576.78,544.76Z" transform="translate(-162.8 -236.75)"/>
</svg>
