<svg viewBox="0 0 534.94061 412.65731">
  <path
    fill="currentColor"
    d="m 219.97067,143.43732 q -15.06,0.84 -23.27,-11.63 a 26.31,26.31 0 0 1 -4.13,-19.08 c 2.49,-15.000001 7.92,-28.480001 20.65,-38.000001 a 5.2,5.2 0 0 0 1.86,-4 c -3.95,-26.46 9.76,-43.8 29.45,-58.41 11.29,-8.3800004 22.67,-9.5700004 35.42,-3.5300004 15.07,7.1400004 28.3,16.3200004 33.61,32.7500004 2.59,8 2.39,17 3,25.51 0.24,3.36 0.88,5.65 3.68,8 13.32,11.12 18.89,26.250001 20.27,43.000001 1.13,13.7 -10.57,23.74 -23.19,25.26 -1.1,0.13 -2.19,0.41 -3.28,0.62 l -0.28,1.5 c 2.1,0.39 4.48,1.6 6.25,1 5,-1.67 9.69,-4.15 14.55,-6.19 8,-3.37 11.35,-9.19 12.73,-18 3.28,-20.74 14.81,-37.130001 30.61,-50.520001 16.48,-14 39.15,-7 45,14 6.7,24.110001 3.71,47.160001 -10,68.340001 -2.48,3.83 -3.81,7.05 -1.49,11.29 1.44,2.63 1.72,6.83 3.81,8 4.73,2.6 10.26,3.76 15.41,5.49 -0.59,-8.21 -1.43,-15.2 -1.51,-22.19 -0.12,-10.83 5.13,-18.95 14.71,-23.55 7.14,-3.42 12.89,-7.6 17.7,-14.19 10.15,-13.94 25.17,-17 41.38,-15.45 19.6,1.81 29.43,15.85 26.53,36.68 -2.71,19.43 -9.54,37.22 -19.65,53.92 a 12.82,12.82 0 0 0 -1.3,7.05 c 0.72,11.07 -3.5,20 -11,27.86 a 29.07,29.07 0 0 0 -5,8.31 q -6.66,15 -12.86,30.2 a 9.24,9.24 0 0 0 -0.51,5.86 c 3.44,10.31 3.63,20.11 -2.74,29.55 -6.2,9.17 -5.71,19.44 -4.25,29.82 1.17,8.37 2.09,16.77 3.22,25.15 a 8.41,8.41 0 0 0 1.37,3.1 c 12.23,20.21 0.47,43.71 -23.08,45.91 -5.1,0.48 -10.25,0.63 -15.38,0.64 q -58.89,0.13 -117.78,0.15 -109,0 -218.09,-0.16 c -7.900004,0 -15.870004,0.17 -23.700004,-0.73 -10.93,-1.27 -20.45,-6.13 -24.74,-16.76 -4.29,-10.63 -4,-21.47 3.54,-31.12 0.61,-0.78 1.51,-1.57 1.63,-2.45 1.57,-11.45 3.19,-22.89 4.41,-34.38 0.52,-4.82 -1,-8.83 -4.61,-12.89 -9.45,-10.64 -8.77,-23.48 -5.32,-36.27 0.85,-3.12 0.9,-5.37 -0.63,-8.36 -3.94,-7.67 -7.94,-15.44 -10.6,-23.6 -2.33,-7.12 -7.09,-12.18 -11.37,-17.79 -5.19,-6.81 -6.53,-14.66 -6.53,-23 a 17.92,17.92 0 0 0 -2.21,-8.29 c -10.21,-18.62 -17.3399996,-38.05 -17.2599996,-59.64 0.06,-16.8 10.2299996,-27.87 27.1199996,-28.81 19.42,-1.08 35.91,4.1 45.67,22.71 a 5.44,5.44 0 0 0 2.91,2.38 c 19.710004,6.33 30.520004,27.62 22.260004,48.3 -0.11,0.27 0,0.65 0.05,1 10.33,1.47 14.25,-1.48 18,-10.88 2.47,-6.16 1.64,-10.27 -1.93,-15.93 -13.47,-21.35 -16.28,-44.44 -7.06,-68.190001 7.75,-20 30.62,-24.22 46,-9.34 16.58,16 27.84,34.590001 30,58.000001 0.11,1.19 0.66,2.9 1.54,3.37 7.46,4 14.92,7.93 22.66,11.27 2.2,0.95 5.29,-0.17 8,-0.35 z m -136.570004,209.5 c 3.62,2.2 354.270004,3.42 367.480004,1.42 a 6.53,6.53 0 0 0 0.07,-1.46 c -0.47,-2.79 -1,-5.57 -1.49,-8.34 -3.64,-19.19 -4.55,-38 6.62,-55.47 a 7.42,7.42 0 0 0 -2.12,-10.29 c -3.34,-2.35 -7.71,-4.48 -11.66,-4.51 -39.92,-0.31 -79.85,-0.16 -119.77,-0.17 q -110.3,0 -220.6,-0.05 c -6.130004,0 -12.290004,0.24 -18.390004,0.83 -4.29,0.41 -7,3.57 -7.56,7.57 -0.56,4 -2.06,8.57 2.15,11.53 5.2,3.65 7.55,8.81 8.38,14.71 2.12,14.97 1.72,29.82 -3.11,44.23 z M 284.09067,94.187319 c 0.94,-2.11 1.6,-3.74 2.38,-5.31 4.76,-9.6 6.53,-19.75 6.18,-30.44 -0.25,-8 -3.15,-14.81 -9.47,-19.47 -5.14,-3.81 -11.08,-6.56 -16.77,-9.59 a 4.76,4.76 0 0 0 -3.65,0 c -20.38,9.17 -28.26,27.48 -20.8,48.52 1.85,5.24 4.24,10.29 6.44,15.58 -17.38,-2.53 -21.17,-1.51 -26.42,7.000001 -4.52,7.35 -6.12,15.17 -3.8,18.59 16.26,-10.23 25.88,-7.15 33.39,10.73 -8.5,7.92 -8.92,23.61 -0.91,33.23 6.07,7.28 21.29,8.73 28.74,2.4 8.67,-7.37 13.86,-23.08 1.7,-35.95 3.86,-6.54 7.27,-13.85 15.22,-16.26 7.21,-2.19 13.22,1.73 19.34,5.8 -0.28,-8.61 -2.74,-16.42 -8.15,-23.000001 -6.72,-8.12 -15,-4.04 -23.42,-1.83 z m -25,77.350001 -2.7,19.14 c -2.92,20.69 -10.45,39.41 -24,55.46 -5.61,6.65 -12.08,12 -21.81,9.88 a 10.15,10.15 0 0 0 -2,0 c -5.07,-0.06 -4,3.82 -4.3,6.77 -0.29,3.37 2,3.65 4.56,3.64 q 21.19,-0.06 42.39,-0.05 36.92,0 73.82,0 c 3,0 5.26,-0.23 5.13,-4.15 -0.12,-3.71 -0.57,-6.87 -5.41,-6.22 -10.22,1.38 -17.53,-3.92 -23.93,-10.74 a 48.77,48.77 0 0 1 -8.49,-11.62 c -3.84,-7.87 -7.69,-15.92 -10,-24.31 -3.43,-12.43 -5.52,-25.22 -8.18,-37.82 z m 7.51,199.85 h -53.9 c -43.07,0 -86.14,-0.05 -129.210004,0.16 -2.56,0 -5.42,1.81 -7.48,3.56 -0.76,0.64 -0.19,4.66 0.81,5.2 2.38,1.29 5.37,1.58 8.15,2 1.75,0.23 3.59,-0.26 5.38,-0.17 6.3,0.32 12.600004,1.09 18.900004,1.09 q 104,0 208,-0.12 c 39.4,0 78.81,0.13 118.21,0.15 5.48,0 11,0.2 16.4,-0.58 1.94,-0.29 4.54,-3 4.93,-4.94 0.34,-1.73 -1.61,-4.44 -3.27,-5.84 -1.12,-0.94 -3.51,-0.44 -5.33,-0.44 q -90.8,-0.05 -181.61,-0.04 z m 158.09,-105 v -0.11 c 7.14,0 14.29,-0.23 21.42,0.09 3.71,0.17 5.83,-1.46 7.79,-4.19 7.64,-10.66 12.65,-22.53 16.13,-35.08 1.43,-5.18 3.11,-9.93 8.09,-13 2,-1.23 3.49,-3.55 4.74,-5.66 2.53,-4.27 1.62,-11.5 -1.57,-15 -3.19,-3.5 -11.18,-4.51 -16.39,-2.09 -4.16,1.92 -8.32,8 -7.15,12.11 0.93,3.27 -0.36,4.81 -2.18,6.81 -10.94,12.05 -22.15,23.89 -32.55,36.4 -5.09,6.11 -9.92,11.26 -18.54,10.66 a 4.82,4.82 0 0 0 -3.32,0.86 c -1.48,1.38 -3.36,3.05 -3.64,4.83 -0.51,3.25 2.3,3.4 4.74,3.4 z m -316.68,-0.13 v 0.14 c 7.15,0 14.3,0 21.45,0 2.73,0 5.88,0.67 6,-3.83 0.12,-4.13 -2.62,-4.77 -5.53,-4.67 -5.66,0.19 -9.91,-2.4 -13.59,-6.21 q -15.4,-16 -30.670004,-32.08 c -4.85,-5.14 -10.4,-10 -9.52,-18.2 a 5.26,5.26 0 0 0 -0.54,-1.91 c -2.06,-6.44 -6.11,-9.47 -12.46,-9.33 -6.85,0.16 -12.73,3.92 -14.14,9.05 -1.49,5.42 1.26,11 6.71,14.86 a 12.77,12.77 0 0 1 4.59,5.86 c 4.84,14.92 11,29.18 19.58,42.37 1.76,2.69 3.54,4.28 7.17,4.08 6.96,-0.41 13.960004,-0.14 20.930004,-0.14 z m 261,-118.45 a 4.24,4.24 0 0 1 -1.09,0.44 c -7.86,0.52 -10.91,10.72 -8.63,16.21 3.32,8 8.25,11.54 17.31,8.26 7.89,-2.86 10.69,-8.25 7.56,-16 -1.29,-3.19 -0.45,-5 1.68,-7.3 14.48,-15.91 19.47,-34.38 14.19,-55.370001 -0.52,-2 -1.92,-3.85 -3,-5.86 -14.41,9.77 -28.98,27.420001 -28.06,59.610001 z m -205.16,-0.17 c 0,-2.24 -0.09,-4.39 0,-6.54 0.91,-19.88 -7.37,-35.73 -21.47,-49.000001 -5.15,-4.84 -6.78,-4.4 -8.89,2.49 -5.61,18.390001 -1.62,35.000001 10.47,49.420001 4.5,5.36 6.89,10 5.53,17.1 a 12.7,12.7 0 0 0 3.08,9.84 c 4.4,4.39 10.52,3.82 16,1.73 5.6,-2.15 5.79,-7.34 6.06,-12.54 0.29,-5.78 -2.71,-8.91 -7.4,-11.13 -1.07,-0.51 -2.18,-0.88 -3.42,-1.38 z m -7.36,102.39 0.21,-1.57 c 20.65,0.95 39.87,-4.92 58.26,-13.27 a 106.63,106.63 0 0 0 24,-15.56 c 3.68,-3.09 5.12,-9 7.16,-13.77 0.49,-1.15 -0.63,-3 -1,-4.51 a 22,22 0 0 0 -4.24,1.52 37.85,37.85 0 0 0 -3.88,3.12 c -37.76,28.91 -78.84,39.26 -124.84,22.52 -1.3,-0.47 -3,0.15 -4.51,0.26 0.31,1.78 0,4.39 1,5.19 4.83,3.67 9.63,8.27 15.21,9.86 10.62,3.03 21.71,4.24 32.59,6.2 z m 270.25,-21.52 c -1.58,-0.3 -1.93,-0.48 -2.2,-0.4 -1.75,0.51 -3.48,1.1 -5.22,1.64 -46.54,14.22 -88.18,5.2 -125.16,-26.26 -1.5,-1.27 -3.88,-1.51 -5.86,-2.22 0.07,2.22 -0.54,4.76 0.32,6.62 6.46,14 17.7,23.15 31.59,29 24.39,10.24 50,13.39 76.17,10.94 10.26,-1 19.87,-4.39 26.93,-12.55 1.49,-1.81 2.17,-4.31 3.39,-6.78 z m -371.460004,-72.26 c 0.86,-3.95 2.07,-7.27 2.23,-10.65 0.57,-12 -6.94,-18.36 -21.29,-18.36 -6.89,0 -7.33,0.51 -7,7.33 0.83,19.38 8.44,36.28 18.65,52.35 2.38,3.75 5.19,4 7.61,1.56 a 81,81 0 0 0 11.58,-14.63 c 2,-3.37 4.06,-5 7.78,-5.68 7.17,-1.24 9.11,-6.12 4.69,-12 -2.71,-3.6 -6.36,-5.92 -11.25,-4.31 -4.12,1.33 -8.18,2.75 -13,4.39 z m 422.880004,-0.18 c -4.42,-1.42 -8.36,-2.58 -12.22,-4 a 9.61,9.61 0 0 0 -10.89,2.75 c -1.84,2.27 -1.9,6.36 -1.79,9.61 0,1 3.21,1.89 4.87,2.94 1.93,1.21 4.12,2.23 5.61,3.87 5.21,5.71 10.07,11.75 15.28,17.47 1.6,1.76 3.57,2 5.33,-0.57 10.1,-14.65 18,-30.24 20.41,-48.11 1.75,-13.18 1.36,-13.06 -12,-12.94 -9.2,0.07 -20.47,12.69 -16.24,21.59 1.03,2.17 1.08,4.76 1.64,7.39 z m -90.12,16.2 -1.32,-0.62 c -1.17,1.82 -2.9,3.5 -3.43,5.5 -3.08,11.59 3.33,26.52 14.12,31.85 15.35,7.57 31.1,7 46.73,0.67 a 29.68,29.68 0 0 0 7.42,-5 c 1.08,-0.91 1.48,-2.63 2.2,-4 -1.59,-0.35 -3.25,-1.21 -4.74,-1 -12.69,2.06 -25.27,3.71 -37.75,-1.43 -9.27,-3.82 -18,-8.12 -21.44,-18.49 -0.84,-2.35 -1.22,-4.95 -1.81,-7.48 z m -238.52,0.53 c -4.68,-1.77 -5.52,0.57 -6.22,3.46 -2.84,11.82 -10.21,20 -21.76,23.07 -7.37,2 -15.35,2 -23.080004,2.16 -4.58,0.1 -9.18,-1.3 -13.8,-1.79 -1.22,-0.13 -2.54,0.62 -3.81,1 0.54,1.25 0.74,3 1.69,3.65 4.28,2.77 8.49,6.18 13.25,7.59 13.270004,3.94 26.460004,3.36 39.260004,-2.77 10.1,-4.84 14.88,-12.9 15.34,-23.7 0.16,-4.28 -0.58,-8.54 -0.89,-12.67 z m 143.18,-15 c -5,2.27 -5.41,3.43 -3.44,9.26 3,8.93 15.41,16.57 27.19,17.18 16.78,0.87 27.8,-8.12 36.49,-21 0.84,-1.25 0.11,-3.56 0.11,-5.78 -34.63,17.9 -44.51,17.88 -60.37,0.32 z m -113.37,0.39 c 0.33,1.86 0.12,4.06 1.06,5.54 6.12,9.6 14.58,16.26 25.73,19.15 11.3,2.94 21.79,1.06 31.05,-6.11 5.72,-4.43 8.18,-10.4 7.14,-19.17 -10,7.17 -19,14.19 -31.47,13.09 -12.16,-1.07 -21.68,-7.72 -33.51,-12.5 z m 47.74,48.75 c -0.31,-0.49 -0.62,-1 -0.94,-1.48 a 3.33,3.33 0 0 0 -0.89,-0.34 9.47,9.47 0 0 0 -2,-0.06 c -15.47,1.53 -27.32,-5.42 -37.43,-16.18 -3.53,-3.75 -6.61,-7.91 -10,-11.75 -0.59,-0.67 -1.89,-0.72 -2.86,-1.05 -0.32,0.93 -1.13,2 -0.86,2.75 4.28,11.32 8.62,22.61 13.17,33.83 0.53,1.28 2.43,3 3.57,2.89 9.86,-0.78 19.76,-1.57 29.51,-3.19 3.1,-0.52 5.82,-3.54 8.73,-5.42 z m 78.31,-1.61 c 3.91,5.32 8.45,7.87 13.52,8.61 7.35,1.08 14.85,1.14 22.27,1.84 a 6,6 0 0 0 6.68,-3.92 c 4.74,-10.76 9.48,-21.53 14.08,-32.35 0.39,-0.91 -0.27,-2.26 -0.45,-3.4 -1.07,0.46 -2.44,0.65 -3.18,1.43 -3.65,3.85 -7,8 -10.71,11.78 -10.35,10.47 -22.34,17.17 -37.7,15.76 a 37.8,37.8 0 0 0 -4.51,0.25 z m -159.3,26.91 c 0.76,0.6 1,0.95 1.24,1 12.5,0.25 22.89,-4.69 31.67,-13.25 a 5.25,5.25 0 0 0 1.15,-4.43 c -4,-12.39 -8.16,-24.7 -12.3,-37 l -2.57,0.09 c -0.43,1.7 -1.25,3.4 -1.21,5.09 0.14,5.44 1.34,11 0.76,16.31 -1.22,11.36 -7.44,20.39 -15.18,28.46 -1.19,1.17 -2.35,2.44 -3.56,3.73 z m 241.55,1 c -1.31,-1.55 -1.85,-2.34 -2.53,-3 -13.67,-12.95 -18.39,-28.73 -15.18,-47.14 0.23,-1.27 -0.77,-2.76 -1.21,-4.14 -1.13,0.89 -2.86,1.55 -3.3,2.71 -4.18,11 -8.18,22.08 -12.08,33.18 a 4.29,4.29 0 0 0 0.57,3.61 c 8.74,9.59 19.06,15.8 33.73,14.73 z"
  />
  <path
    fill="currentColor"
    d="m 161.91067,304.00732 c 10.25,0.08 17.06,7.25 17.05,17.95 0,9.36 -8,16.64 -18.16,16.46 -8.39,-0.15 -16.11,-8 -16.29,-16.53 a 17.43,17.43 0 0 1 17.4,-17.88 z"
  />
  <path
    fill="currentColor"
    d="m 382.54067,321.18732 c -0.33,9.73 -7.13,17.4 -15.08,17 -12.19,-0.62 -18.21,-6.84 -17.85,-18.43 0.27,-8.78 7.65,-16 16,-15.63 11.18,0.48 17.28,6.62 16.93,17.06 z"
  />
  <path
    fill="currentColor"
    d="m 269.45067,336.85732 c -10.76,-0.14 -17.51,-6.67 -17.29,-16.67 0.21,-8.36 7.5,-16 15.43,-16.07 10.79,-0.17 17.76,6.83 17.59,17.68 -0.11,9.2 -6.38,15.19 -15.73,15.06 z"
  />
  <path
    fill="currentColor"
    d="m 117.51067,322.06732 c 0,5.21 -2.25,7.16 -8.27,7.11 -6.02,-0.05 -8.27,-2.17 -8.28,-7.84 0,-6.49 1.8,-8.37 8.08,-8.39 6.72,-0.01 8.43,1.83 8.47,9.12 z"
  />
  <path
    fill="currentColor"
    d="m 215.00067,329.18732 c -4.92,0.05 -9.25,-3.9 -9.18,-8.35 0.07,-4.17 4,-7.82 8.63,-7.93 4.89,-0.11 9.08,3.11 9.19,7.06 0.16,5.62 -3.2,9.22 -8.64,9.22 z"
  />
  <path
    fill="currentColor"
    d="m 314.31067,312.94732 c 4.34,0 8.24,4.26 8.1,8.79 -0.14,4.53 -3.75,7.39 -9.36,7.44 -4.53,0 -8.15,-3.25 -8.17,-7.42 -0.04,-5.9 3.11,-8.85 9.43,-8.81 z"
  />
  <path
    fill="currentColor"
    d="m 418.94067,312.94732 c 6.4,0 8.36,1.67 8.31,7.07 -0.06,6.57 -2.32,9.24 -7.74,9.17 -5.58,-0.07 -8.43,-3 -8.47,-8.74 -0.04,-5.74 1.95,-7.5 7.9,-7.5 z"
  />
</svg>
