<svg xmlns="http://www.w3.org/2000/svg" viewBox="0 0 716.77 658.39"><title>Ativo 4</title><g id="Camada_2" data-name="Camada 2"><g id="Camada_1-2" data-name="Camada 1"><path d="M762.59,580.26c-37.8,54-86,95.78-143.49,127-65,35.36-135.09,54.31-208,62.85-15.64,1.83-32.26-2.66-48.19-5.55-109.8-19.9-208.08-62.34-284.19-147.27-10.4-11.61-19.82-24.11-32.88-40.11,17.75,0,31.35.87,44.79-.21,19-1.51,37.92-3.81,56.67-7,9.86-1.71,16.39.12,23.47,7.63C230.66,641.26,303,684.51,387.82,705.83a76.53,76.53,0,0,0,35.89.12c83.62-21.09,155.45-63.08,214.76-125.75,8.71-9.2,16.39-11.66,29.12-9.76C698.46,575.05,729.73,577,762.59,580.26Z" transform="translate(-45.82 -112.19)"/><path d="M245.77,247c49.36,32.87,101,35.26,154.77,22.93,4.15-1,8.94-.47,13.18.46,52.74,11.67,103.39,9.22,152-23.41,0,41.87.37,81.85-.39,121.81-.11,6.1-5.18,12.21-8.35,18.11C526.09,444.44,479.1,483,417.53,503.72a37.93,37.93,0,0,1-22.47.19c-65.41-21.69-113.61-63.68-144.68-125.22-2-3.93-4.37-8.3-4.41-12.49C245.64,327.17,245.77,288.14,245.77,247Zm140.29,50.44c-15.54-.71-19.75,6.17-19.5,20.25.81,44.83.9,89.7,0,134.52-.29,14.55,5.17,21.6,19.51,24.51Zm40.65-1.23V476.55c15.61-3.22,19.66-12,18.66-25.92-1.2-16.69-.28-33.54-.28-50.32V301.55Zm-95.49,3.26-5.16,2.6c0,44.2-.27,88.4.43,132.59.07,4.44,6,8.79,9.21,13.18,3.89-46.93,4.08-92.15,3.52-137.37C339.18,306.75,334,303.12,331.22,299.45Zm154.68,2.66-6.26-2.34c-2.5,4.64-7,9.21-7.15,13.93-.76,22.33-.34,44.69-.34,67V446.5l6,1.45c2.6-6.3,6.43-12.39,7.48-18.93,1.3-8.18.32-16.72.32-25.1ZM295.26,291.42l-5.09,2.43c0,35-.4,70.09.44,105.12.12,5.25,6,10.36,9.27,15.54l4-1.63c0-36.62.26-73.25-.38-109.86C303.47,299.1,298.15,295.28,295.26,291.42Zm226.56,3.21-4.48-3.12c-3.08,3.41-8.76,6.78-8.82,10.24-.64,37.07-.4,74.16-.4,111.24l5,1.43c2.9-5.87,8.19-11.69,8.33-17.63C522.24,362.75,521.82,328.69,521.82,294.63Zm29.58-15c-12.93,8.58-17,71.32-7.17,98.34C555.56,347,548.39,314.55,551.4,279.6ZM265.56,377.81l6.95-.62c0-28,.26-55.92-.29-83.86-.08-4.14-4-8.2-6.19-12.29l-4.82,1.58C263.55,314.29,256.4,346.6,265.56,377.81Z" transform="translate(-45.82 -112.19)"/><path d="M457.5,269.39c-32-10.37-71.82-1.54-111.69-1.16-24.43.23-49.14-8.39-73.38-14.44-15.71-3.91-19.39-14.71-15.62-30.87,13.93-59.69,55.91-98.72,118.64-108.36,36.37-5.59,71.55-1.41,105.12,13.78,44.09,19.94,67.35,55.35,75.8,102.09,1.86,10.32-1.76,15.58-10,20.16C521.09,264.59,493.7,268.94,457.5,269.39Z" transform="translate(-45.82 -112.19)"/><path d="M575.78,532.16l71,27.22c-2.68,3.52-5.21,7.54-8.4,11-60.25,64.28-132.88,107.76-218.45,129-7.84,2-16.91,2.56-24.67.7C306,678.66,230.8,633.16,169,565.32a56.4,56.4,0,0,1-3.84-5.33c22.05-9.11,43.34-18.52,65.21-26.32,3.5-1.25,10.75,3.67,14.27,7.54,36.46,40.06,77.68,74,122.8,104.19,27.59,18.43,49.45,18.55,77,0,43.11-29,82.94-61.25,118.16-99.33C567.17,541.18,571.79,536.39,575.78,532.16Z" transform="translate(-45.82 -112.19)"/><path d="M559.26,539c-40.51,44.62-87.7,84.57-144,112.85-5,2.5-13.35,2.67-18.27.2-56.34-28.27-103.64-68.19-144.62-113.23l45.12-43c23.08,23.53,53.18,43.91,87.72,58.06,14.58,6,27.1,6,41.68-.06,34.21-14.18,64.35-33.86,87.68-58.46Z" transform="translate(-45.82 -112.19)"/><path d="M255.64,404c6.24,8.48,12.23,17.17,18.76,25.42,32,40.37,73.2,67.35,122,82.76,6.3,2,14.42,1.6,20.78-.48,54.48-17.76,98.82-49.57,131.47-97.06,2.47-3.59,5.07-7.09,10.69-9.61-1.39,5.91-1.77,12.29-4.31,17.64-29,61.08-74.47,104.53-138.74,127a33.82,33.82,0,0,1-20.73-.09c-64.32-22.4-109.69-65.91-138.69-127-2.51-5.3-3.22-11.47-4.76-17.23Z" transform="translate(-45.82 -112.19)"/></g></g></svg>