<svg viewBox="0 0 361.26386 362.95913">
  <path
     d="m 334.62551,153.13913 -0.78,4.28 0.85,1 c 1.44,-1.35 3.33,-2.45 4.26,-4.09 18.16,-32.14 13.16,-67.809999 -15.88,-91.629999 -4.42,-3.64 -7.87,-9.14 -10.24,-14.46 -4,-8.9 -9.56,-15.7 -19,-18.38 -8.36,-2.37 -16.23,-7.26 -25.44,-5.81 a 34.43,34.43 0 0 0 -8.51,2.1 c -10.84,4.74 -21.67,9.56 -32.31,14.74 a 208.74,208.74 0 0 0 -19.37,10.85 c -13.79,8.65 -19.83,21.88 -21.45,37.57 -0.15,1.48 -0.35,3 -0.48,4 -3,-14.52 1.45,-28.56 5.86,-42.35 1.49,-4.65 6.12,-8.59 10,-12.13 21.17,-19.37 47.17,-26.58 75.07,-27.37 14.6,-0.42 26.46,7.11 34.86,18.49 11.83,16 24.13,32.07 33.26,49.65 13.26,25.529999 16,52.109999 -0.41,78.409999 -10.52,16.89 -19.89,34.51 -29.49,52 -6.65,12.08 -15.84,21.58 -27,29.59 a 23.77,23.77 0 0 0 -7.62,9.82 c -3.3,8 -9.56,10.58 -17.25,11.31 -8.19,0.77 -9.77,2.16 -11.35,10.22 -0.63,3.23 -1.87,6.38 -2.19,9.64 -0.52,5.23 1.31,7.2 6.57,7.89 3.63,0.47 7.26,1 10.9,1.21 9.73,0.46 16.87,4.55 21,13.69 3.44,7.58 7.28,15 11.12,22.84 -2.59,1.66 -5.15,3.3 -8.22,5.25 -3,-7.13 -5.89,-13.62 -8.42,-20.24 -2,-5.12 -5.79,-7.06 -10.79,-7.23 -18.13,-0.6 -36.25,-1.23 -54.38,-1.6 -7.8,-0.15 -15.64,0.09 -23.41,0.67 -1.81,0.14 -4.16,2.06 -5,3.78 -2.85,5.52 -5.13,11.33 -8.62,16.92 0,-1.08 -0.3,-2.28 0,-3.22 2,-5.29 4.17,-10.52 6.29,-15.76 a 8,8 0 0 1 8.14,-5.4 240.48,240.48 0 0 0 28.17,-1.08 c -2.54,-0.73 -5,-1.88 -7.64,-2.11 -10.57,-0.93 -10.54,-0.82 -8.1,-10.84 q 4.92,-20.21 9.7,-40.42 a 30.5,30.5 0 0 0 0.41,-4.07 l -1.7,-0.69 c -1.25,2.27 -3,4.4 -3.68,6.82 -4,14.41 -7.86,28.84 -11.42,43.36 -1,4 -2.05,5.09 -6,3.11 -8.54,-4.28 -13.65,-1.91 -15.82,7.24 -3.73,15.66 -2.89,31.66 -3.32,47.57 a 64.61,64.61 0 0 1 -0.19,7 c -0.14,1 -1.27,1.79 -1.95,2.68 -0.52,-0.88 -1.49,-1.76 -1.48,-2.64 0.09,-8.62 0,-17.27 0.66,-25.85 0.51,-6.88 2.16,-13.6 -1,-20.36 -0.9,-1.91 0,-4.61 -0.19,-6.93 -0.61,-9.79 -5.92,-13.31 -15.11,-10.09 -5.41,1.89 -5.19,1.87 -5.86,-4 -1.77,-15.36 -3.86,-30.68 -9.48,-45.24 a 22.89,22.89 0 0 0 -2.64,-4 l -1.32,0.47 a 33.51,33.51 0 0 0 0,5.49 c 2.59,15.21 5.2,30.42 8,45.59 0.57,3.06 -0.44,3.92 -3.25,3.9 a 72.7,72.7 0 0 0 -8.48,0.34 36.66,36.66 0 0 0 -5.34,1.43 l 0.1,1.69 c 2.63,0.21 5.26,0.5 7.89,0.6 5.48,0.2 11,0.51 16.44,0.36 5.44,-0.15 8.85,1.95 10.6,7.07 1.88,5.48 3.93,10.9 5.82,16.38 0.14,0.41 -0.45,1.07 -1,2.14 a 10.71,10.71 0 0 1 -1.65,-2.07 c -1.69,-4.32 -3.57,-8.6 -4.89,-13 -1.61,-5.45 -5.24,-6.89 -10.5,-7 -24.11,-0.47 -48.22,-1.13 -72.329998,-1.85 -5.74,-0.17 -9.5,2.6 -12,7.37 -3.38,6.6 -6.53,13.33 -9.77,20 -12.58,-5.91 -11.77,-4.85 -5.62,-16.08 3.74,-6.84 7.33,-13.91 12.13,-20 3.24,-4.09 8.43,-6.64 12.83,-9.76 0.48,-0.34 1.48,0 2.22,0.11 5.54,0.75 11,1.91 16.61,2.18 5.179998,0.26 7.999998,-2.85 6.899998,-7.88 a 85.13,85.13 0 0 0 -5.599998,-16.91 c -0.88,-1.94 -4.32,-4.21 -6.26,-3.94 -14.51,2 -21.63,-6.82 -27.51,-17.8 a 29.81,29.81 0 0 1 -1.86,-4.07 32.23,32.23 0 0 0 -12.92,-17 c -6.18,-4.17 -9,-11 -10.88,-18.41 a 104.81,104.81 0 0 0 -7,-19 c -7.28,-15.63 -16.18,-30.63 -22.1200004,-46.74 -5.22,-14.14 -2.42,-29 2.5900004,-43.319999 3.26,-9.3 10.16,-15.8 15.75,-23.39 6.37,-8.64 11.69,-18 17.85,-26.85 11.58,-16.56 26.42,-28.85 46.54,-33.6100002 a 17.09,17.09 0 0 1 7.35,0.24 c 22.659998,4.9000002 42.759998,15.3400002 61.339998,28.9000002 9.85,7.18 16.2,16.21 18.9,28.71 a 83.67,83.67 0 0 1 0.91,29.12 7.35,7.35 0 0 1 -0.26,-1.51 c 0.64,-22.85 -12.15,-37.09 -30.58,-47.67 -9.22,-5.3 -19,-9.78 -27.66,-15.88 -13.94,-9.83 -27.409998,-7.25 -40.729998,0.12 -14.41,8 -24.26,19.85 -27.76,36.4 -0.22,1 -1.32,1.89 -2.45,3.43 -0.78,-1.53 -1.2,-2.19 -1.46,-2.9 -0.63,-1.73 -1.19,-3.49 -1.78,-5.24 a 33.16,33.16 0 0 0 -4.42,2.87 c -8.82,7.91 -17,16.16 -21.63,27.57 -7.79,18.999999 -7,37.609999 1,56.169999 a 29.88,29.88 0 0 0 4.19,7.2 c 1.52,1.83 2.92,1.18 3,-1.35 l -0.1,0.1 c 2.83,5.65 5.6,11.33 8.48,16.94 a 46,46 0 0 1 4.85,20.11 c 0.27,8.38 5.77,14.48 11.52,20.3 a 110.13,110.13 0 0 1 11.67,14.56 c 3.32,4.76 5.78,10.11 9,14.93 4,6 9.6,7.81 16.53,5.8 6.7,-1.94 13.289998,-4.33 20.069998,-5.93 4.68,-1.11 6.36,-3.36 5.18,-7.9 -0.33,-1.29 -1.06,-2.59 -0.94,-3.83 0.12,-1.24 1.07,-2.33 1.66,-3.49 0.5,1 1.44,2 1.45,2.94 0.08,10.15 0,10.13 10.38,8.67 4.45,-0.63 8.94,-1 13.37,-1.7 6.71,-1.08 9.66,-5.06 11.16,-11.51 a 201.39,201.39 0 0 1 7.46,-23.65 c 3.56,-9.66 8,-19 11.31,-28.75 1.72,-5.1 1.9,-10.76 2.46,-16.2 1.67,-16.19 3.19,-32.39 4.72,-48.59 0.18,-2 0,-4 0.35,-5.949999 0,9.359999 1.5,18.999999 -0.33,27.999999 -3.23,15.87 -2.32,32.05 -5.17,47.78 -1.57,8.69 -5.24,17.1 -8.73,25.31 -3.65,8.56 -7.58,16.85 -8.91,26.29 -0.43,3 -4.33,5.68 -7,8.17 -0.91,0.87 -2.78,0.73 -5,1.22 1.35,4.78 2.84,9.15 3.79,13.62 2.36,11.17 4.64,22.36 6.6,33.6 0.56,3.24 0.46,4.92 4.67,3.18 7.82,-3.25 12,-0.58 13.22,7.72 0.2,1.3 -0.12,2.72 0.23,4 a 22.65,22.65 0 0 0 1.89,4 c 1.11,-1.17 2.59,-2.16 3.25,-3.54 0.83,-1.77 1,-3.85 1.45,-5.79 1.63,-6.4 5.23,-8.3 11.47,-6.1 6.24,2.2 5.63,2 7.37,-4.32 3.66,-13.39 8.11,-26.55 11.78,-39.94 0.47,-1.71 -1.33,-5.41 -3,-6.07 -5.48,-2.24 -6.88,-5.83 -7.46,-11.51 -0.7,-7 -3.28,-13.8 -5.21,-20.64 -2.74,-9.72 -7.23,-19.26 -8.1,-29.13 -1.38,-15.58 -0.37,-31.38 -0.37,-47.08 h 1.28 c 0,7.95 0.55,15.94 -0.14,23.83 a 68,68 0 0 0 3.53,27.47 c 3.84,11.67 7.94,23.26 11.7,35 a 39.82,39.82 0 0 1 1.45,9.33 c 0.5,7 2.13,9.83 8.88,11.31 7.75,1.7 15.7,2.48 23,3.57 4.18,-3.82 -0.31,-9.35 3.36,-12.42 l 1.73,0.29 a 81.72,81.72 0 0 1 -1,9 c -0.59,2.74 -0.24,4.32 2.72,5.27 7.91,2.55 15.67,5.54 23.6,8 5.58,1.72 10.52,0.4 14.06,-4.65 4.86,-6.93 9.66,-13.9 14.67,-20.73 a 34.72,34.72 0 0 1 5.8,-6 c 8.84,-7.39 16.54,-15.38 17.24,-27.86 a 18.29,18.29 0 0 1 1.91,-7.19 c 4.89,-9.33 10,-18.52 15.1,-27.76 z m -124,129.37 c 0,2.62 -0.7,5.57 0.11,6.07 5.1,3.16 10.54,5.77 16.14,8.71 l 9.28,-38.19 1.88,0.38 a 22.92,22.92 0 0 1 -0.24,4.16 c -2.37,9.69 -4.86,19.34 -7.23,29 a 33.18,33.18 0 0 0 -0.46,4.6 c 1.9,0 4.24,0.71 5.59,-0.14 a 10,10 0 0 0 3.88,-5.29 c 3.57,-12.26 6.77,-24.63 10.25,-36.91 1.54,-5.44 1.26,-5.72 -4.16,-7.35 a 201.58,201.58 0 0 1 -19.55,-6.92 c -2.91,-1.21 -4.83,-1.28 -5.94,1.76 -1,2.84 -2.05,5.85 2.47,7 a 24.53,24.53 0 0 1 6.39,2.52 c 0.85,0.5 1,2.14 1.5,3.26 -1.15,-0.06 -2.47,0.22 -3.42,-0.25 -2.74,-1.33 -5.34,-3 -8,-4.51 -3.34,7.88 -3.33,7.87 3.73,10.29 1.09,0.37 2.45,0.6 3.15,1.38 a 15.93,15.93 0 0 1 2,3.88 l -1.19,0.72 -9.56,-5.62 c -4.39,6.3 -3.84,8 2.45,10.59 2,0.81 3.6,2.49 6,4.19 -1.84,0.88 -2.24,1.22 -2.41,1.13 -3,-1.63 -6,-3.31 -9,-5 -3.89,8.15 -3.83,8.3 4,11.49 a 7.54,7.54 0 0 1 2.66,1.26 c 0.57,0.61 0.62,1.72 1.26,3.73 z m -70.55,-3.76 c -3.59,2.42 -6.65,4.62 -9.88,6.55 -0.67,0.4 -1.94,-0.18 -2.93,-0.31 0.27,-1 0.24,-2.42 0.88,-2.84 a 30,30 0 0 1 7.06,-3.66 c 5.27,-1.65 5.22,-4.84 3.11,-9.56 -3,1.88 -5.71,3.79 -8.61,5.27 -1.26,0.64 -3,0.42 -4.48,0.59 0.85,-1.33 1.4,-3.22 2.61,-3.87 3.44,-1.87 7.16,-3.23 11,-4.89 -0.76,-2.62 -1.43,-4.9 -2.38,-8.18 -3.5,2.45 -6.24,4.49 -9.13,6.29 a 6.55,6.55 0 0 1 -3.53,0.78 c -0.47,0 -1.42,-1.52 -1.24,-1.84 a 6.19,6.19 0 0 1 2.47,-2.7 c 3.91,-1.68 7.94,-3.09 12,-4.63 -0.69,-3.25 -1.28,-6.09 -2.14,-10.14 -4.19,2.84 -7.58,5.37 -11.23,7.45 -0.95,0.54 -2.7,-0.34 -4.09,-0.56 0.65,-1.11 1,-2.74 2,-3.23 a 63.49,63.49 0 0 1 9.65,-4 c 2.8,-0.89 4.67,-1.92 3.15,-5.2 -1.52,-3.28 -3.67,-1.71 -5.78,-0.71 -6.74,3.18 -13.29,6.84 -21.15,6.67 -3.19,-0.07 -4.13,2 -3.47,5.13 2.77,13.17 5.21,26.43 8.26,39.54 0.51,2.16 3.47,3.76 5.29,5.61 l 1.53,-1.14 c -0.22,-1.75 -0.34,-3.52 -0.69,-5.25 -2.07,-10.41 -4.26,-20.79 -6.22,-31.22 -0.21,-1.09 0.76,-2.4 1.18,-3.61 0.64,0.78 1.69,1.49 1.85,2.35 1.68,9.14 3.21,18.3 4.79,27.45 0.58,3.35 1.2,6.7 1.91,10.67 5.12,-2.14 9.55,-3.93 13.94,-5.84 6.43,-2.81 6.41,-2.85 4.31,-10.97 z"
     style="fill:currentColor" />
  <path
     d="m 215.56551,157.67913 c -4.21,6 -4.09,11.38 0.74,16.5 l -1.59,0.95 c -1,-0.73 -2.28,-1.25 -2.86,-2.22 -2.59,-4.33 -2.13,-8.89 -0.69,-13.51 1.53,-4.86 -0.32,-8.74 -6.22,-12.1 v 19.49 h -2 c -0.2,-3.9 -0.51,-7.8 -0.6,-11.7 -0.29,-12.79 5.94,-21.12 16.24,-21.83 12,-0.82 23.89,8.9 25,20.42 0.13,1.27 0.2,2.55 0.27,3.49 4.36,-2.83 8.65,-5.58 12.87,-8.42 a 2.19,2.19 0 0 0 0.72,-1.73 c -0.85,-7.35 2.74,-13.3 5.42,-19.73 1.6,-3.84 0.65,-8.74 0.81,-13.17 a 7.25,7.25 0 0 1 0.85,-4 c 2.56,6.71 3,13.48 -0.59,19.58 -5.37,9.05 -7,17.86 -0.75,27.1 a 48.74,48.74 0 0 1 2.47,4.83 c 0.06,0.13 0.27,0.17 0.44,0.27 2.74,-2.55 5.18,-5.56 8.27,-7.59 13.48,-8.84 31.53,-0.06 35.15,16.83 -2.86,7.14 -1,16.11 -8.58,21.52 1.75,-4.49 3.51,-9 5.43,-13.86 -4.63,-1 -6.42,-0.38 -6.86,3.65 -0.55,5.06 -4.07,8.62 -7.84,11.93 1.08,-5.49 8.35,-8.6 5.65,-15.7 -4.18,0.13 -6.4,2.72 -8.06,5.86 -5.17,9.8 -7.32,10.15 -15.43,2.36 -1,-1 -2.12,-2 -3.35,-3.08 -1.08,7.52 3.91,15.77 10.89,18.23 7.29,2.57 15.26,2.34 21.26,-1.51 4.48,-2.87 7.27,-9.26 9.45,-14.64 2.29,-5.67 2.58,-12.12 4.48,-18 1.42,-4.38 4.33,-8.25 6,-12.57 2.31,-6 4.07,-12.17 6.06,-18.27 0.27,-0.84 0.49,-1.69 0.73,-2.53 l 1.71,0.37 c -1.21,4.91 -1.88,10 -3.75,14.68 -3.53,8.78 -8.09,17.14 -11.55,25.93 -2,5.16 -2,11.15 -4.29,16.16 a 44.75,44.75 0 0 1 -9.73,14.28 147.68,147.68 0 0 0 -24.43,29.49 16.54,16.54 0 0 0 -1.25,3.83 l -2.62,-2.42 c 7.74,-10.38 14.54,-21.46 24,-30.73 -12.06,5.24 -22.72,12.08 -29.13,24.32 l -1.45,-0.89 c 0.36,-1.59 0.73,-3.19 0.93,-4 l -10.15,-8.74 c -7.54,3 -12.3,2 -17.1,-4.78 -4.94,2.79 -9.2,1.46 -13.8,-2.06 -4.9,-3.76 -12.29,-2.15 -16.86,2.28 -0.54,0.52 -1.61,0.52 -2.43,0.76 0,-0.87 -0.38,-2.13 0,-2.53 2.38,-2.21 1.25,-4.29 0.43,-6.75 q -6.5,-19.59 -12.58,-39.33 a 16.79,16.79 0 0 1 -0.54,-6.91 87.59,87.59 0 0 0 -2.53,-34 c -3,-11.34 -2.3,-22.62 1.51,-33.899999 -2.08,12.999999 -3.37,25.859999 2.13,38.179999 l 1.54,0.08 1.2,-23 1.09,-0.09 a 66.24,66.24 0 0 1 0.34,7.16 c -0.84,15.11 -1.84,30.22 -2.66,45.34 -0.77,14.07 8.29,23.91 22.35,24.45 7,0.26 15.51,-5.21 18.55,-11.82 -3.86,0.81 -7.73,1.95 -11.68,2.37 -3.65,0.4 -6.24,-1.17 -7.29,-5.21 -0.73,-3.21 -2.43,-6.24 -3.74,-9.37 z m 72.56,49.94 -0.45,-1.27 c -1.24,-0.2 -2.5,-0.34 -3.73,-0.6 -6.19,-1.29 -11.35,-4.09 -13.43,-10.49 a 101.56,101.56 0 0 1 -3.92,-14.88 c -1.44,-8.82 -2.33,-17.69 -6.88,-25.71 -1.88,-3.3 -4.24,-3.53 -7,-2 a 10.89,10.89 0 0 0 -3.86,3.74 c -3.6,5.77 -6.46,12.07 -10.54,17.45 -8.29,10.93 -15.9,15.45 -28.42,8.3 -0.56,-0.32 -1.45,0 -3.94,0 4.62,7.73 7.13,16.93 13.06,20.55 6.54,4 14.32,11.06 24.06,5.74 0.26,5 3.61,6.53 7.14,6.61 3.53,0.08 6.84,-1.16 10.62,-1.89 -1.26,5.37 3.2,7.13 7.45,8.71 4.25,1.58 4.91,-3.06 7.28,-4.76 2.37,-1.7 4.48,-3.44 6.73,-5.13 1.92,-1.53 3.88,-2.94 5.83,-4.37 z"
     style="fill:currentColor" />
  <path
     d="m 117.30551,154.10913 c 2.45,-12.69 10.11,-19.51 22.11,-21.69 10.6,-1.92 19.35,5.24 19.38,16 0,5.14 -0.54,10.29 -1,15.43 -0.06,0.77 -0.79,1.48 -2.21,2 0.42,-6.18 0.83,-12.35 1.27,-18.95 -6.08,2.61 -7.64,5.77 -7.46,10.95 a 66.94,66.94 0 0 1 -1.23,13.22 c -0.2,1.15 -2,2 -3.92,2.52 4.81,-5.32 3.93,-11.1 3.15,-16.87 l -1.42,-0.72 a 52.4,52.4 0 0 0 -3.77,6.23 c -4,9.1 -8.64,10.82 -17.53,6.23 -0.69,-0.35 -1.45,-0.55 -2.36,-0.9 1.76,7.69 10.63,13.46 18.19,13.24 14,-0.42 24.51,-14.27 23,-27.87 -1.73,-15.69 0.55,-31.83 1.13,-47.77 0,-0.32 0.55,-0.63 1.3,-1.44 v 23.8 c 7.62,-12.85 7.56,-25.89 5.09,-39.309999 h 1.7 c 0.25,2 0.59,3.92 0.73,5.9 0.71,10.669999 0.29,20.999999 -3.63,31.389999 a 58,58 0 0 0 -3.73,22.42 c 0.58,13.86 -3.64,26.21 -8.86,38.52 -1.23,2.91 -2.21,6 -3.82,8.66 -1.32,2.21 -3.4,4 -5.14,5.91 l -1.94,-0.16 c 1,2.75 2.08,5.49 3,8.28 a 11.58,11.58 0 0 1 0.16,3 c -0.93,-0.54 -2.38,-0.85 -2.71,-1.64 -1.58,-3.75 -3.88,-4.11 -7.89,-3.8 -5.39,0.43 -10.32,3.23 -15.07,3.4 -6,0.23 -10.29,2.92 -15.25,4.81 -0.76,0.29 -1.83,0.67 -2.42,0.36 -8.719998,-4.53 -11.779998,5.64 -18.539998,6.3 0.31,1.12 0.46,1.55 0.55,2 0.22,1.08 0.41,2.17 0.6,3.25 -1.12,-0.63 -2.94,-1 -3.25,-1.93 -4.29,-12.51 -16.21,-16.81 -25.49,-23.92 -0.27,-0.21 -0.89,0 -1.22,0.08 l 23.69,32 -1,1.08 c -0.78,-0.25 -1.91,-0.24 -2.3,-0.77 -7.18,-9.69 -14.34,-19.41 -21.36,-29.22 -3.65,-5.11 -7.46,-10.19 -10.37,-15.72 a 23.93,23.93 0 0 1 -2.39,-11 c 0,-8.7 -3.68,-16.14 -7.05,-23.69 a 47.94,47.94 0 0 1 -4.14,-24.07 c 0.28,0.95 0.58,1.9 0.82,2.86 1.66,6.71 2.73,13.62 5.08,20.07 3.18,8.75 6.15,17.21 7.09,26.76 1.86,19 17.24,25.2 33.39,18 6,-2.7 6.86,-9.15 7.83,-15.45 -2.25,1.75 -4.43,3.6 -6.77,5.23 -5.08,3.53 -7.88,2.46 -10.3,-3.21 a 34.71,34.71 0 0 0 -5,-7.76 c -0.59,-0.74 -2.46,-1 -3.47,-0.65 -0.61,0.21 -1.19,2.14 -0.91,3 a 43.4,43.4 0 0 0 3.09,7.19 c 0.68,1.3 1.84,2.35 3.58,4.51 a 11.84,11.84 0 0 1 -8.23,-12.14 c 0.12,-3.09 -1.38,-4.24 -3.63,-3.85 -1,0.18 -2.57,2.91 -2.29,4.13 0.73,3.28 2.32,6.37 3.16,9.74 -3.62,-2.65 -4.65,-6.54 -4.91,-10.93 -0.13,-2.38 -1.36,-4.89 -0.89,-7.07 0.91,-4.25 1.74,-9 4.28,-12.32 7.78,-10 20.77,-13.79 32.25,-5.75 2.62,1.83 4.45,4.76 6.65,7.18 7.389998,-11 11.769998,-17.46 5.24,-29.77 -3.65,-6.89 -2.82,-13.82 -1,-20.8 h 1.529998 c -0.24,2 -0.839998,4 -0.659998,5.89 0.429998,4.54 1.079998,9.07 1.899998,13.56 0.92,5 2.09,9.95 3.2,14.91 0.3,1.36 0.37,3.24 1.27,3.9 3.41,2.58 7.12,4.68 11.12,7.23 z m -49.639998,47.7 -0.3,1.26 c 0.59,0.54 1.17,1.1 1.78,1.62 5.12,4.36 10.17,8.81 15.44,13 1,0.81 3.48,1.23 4.35,0.58 3.23,-2.4 6.07,-5.32 9.39,-8.36 8.139998,4.35 11.309998,3.81 16.759998,-3.61 15.1,5 34.62,-9.15 36.54,-26.21 -1.65,0.66 -3.14,1.26 -4.64,1.84 -9.49,3.71 -16,2.58 -22.19,-5.38 -4.13,-5.28 -7.25,-11.45 -10.16,-17.54 -2.3,-4.8 -5.26,-8.28 -11.41,-10 -2.24,4.93 -4.919998,9.7 -6.609998,14.81 -3,9 -5,18.19 -8,27.15 -2.77,8.4 -8.1,11.52 -16.75,10.84 -1.36,-0.09 -2.77,0 -4.17,0 z"
     style="fill:currentColor" />
  <path
     d="m 167.51551,338.39913 c -4.91,2.12 -8.1,4.17 -11.53,4.75 -2.33,0.4 -5,-1.62 -7.56,-1.94 -12,-1.47 -24.13,-2.31 -36.06,-4.27 -4.72,-0.78 -9.32,-3.46 -13.469998,-6.08 -2.14,-1.36 -4.95,-5.63 -4.33,-6.6 1.64,-2.6 4.74,-5.24 7.689998,-5.88 10.19,-2.23 20.17,-0.2 29.81,3.45 9.17,3.47 18.36,6.91 27.4,10.69 2.52,1.06 4.55,3.27 8.05,5.88 z"
     style="fill:currentColor" />
  <path
     d="m 181.48551,337.95913 c 1.63,-1.28 3.08,-3.13 4.93,-3.73 14.51,-4.69 29,-9.74 43.76,-13.39 5.82,-1.44 12.53,-0.06 18.68,1 2.22,0.36 5.1,3.14 5.62,5.31 0.4,1.68 -2,4.77 -3.88,6.12 -9.63,6.81 -21,7.83 -32.3,8.75 -6.61,0.54 -13.3,0.18 -20,0.22 -0.83,0 -1.94,-0.39 -2.44,0 -6.34,4.93 -9.34,-2.44 -14.27,-2.57 -0.01,-0.6 -0.06,-1.16 -0.1,-1.71 z"
     style="fill:currentColor" />
  <path
     d="m 80.475512,338.31913 c -8.52,-0.73 -9.08,-8.16 -13.34,-11.76 -0.3,-0.26 0.08,-1.56 0.4,-2.26 2.43,-5.46 4.86,-10.92 7.45,-16.31 0.48,-1 1.66,-1.66 3.33,-3.25 1.75,8.6 -3.31,14.08 -4.81,21.34 a 39.84,39.84 0 0 0 4.86,-3 c 1,-0.81 1.51,-2.17 2.32,-3.22 11.31,-14.51 15.57,-16 37.589998,-13.43 q 16.08,1.89 32.18,3.71 c 5.33,0.61 13.24,8.93 13.41,14.29 0.1,2.79 -1.61,3.63 -3.92,2.55 -2.09,-1 -3.88,-2.56 -5.91,-3.68 -16.75,-9.27 -35,-11.1 -53.62,-10.11 -4.859998,0.25 -8.099998,3.64 -10.409998,7.7 -3.29,5.8 -6.4,11.69 -9.53,17.43 z"
     style="fill:currentColor" />
  <path
     d="m 273.84551,309.08913 c 1.06,2.65 2.13,5.3 3.17,8 0.67,1.7 1.4,3.39 1.94,5.13 1,3.08 3.48,7.27 2.33,9.11 -2.76,4.42 -6.24,9.15 -13,9.59 -2.46,-4.88 -7.45,-8.12 -8.54,-14.76 -1,-6.08 -5.9,-9.92 -13,-10.32 -17.63,-1 -34.88,0 -51.08,7.95 -2.38,1.18 -4.62,2.66 -7.05,3.68 a 3.52,3.52 0 0 1 -3.12,-0.41 c -0.54,-0.48 -0.54,-2.13 -0.15,-3 3.6,-7.93 8.16,-13.55 18.49,-13.45 14.58,0.13 29.19,-1.4 43.76,-2.48 4.92,-0.36 8.7,0.9 11.74,4.87 3.53,4.61 7.2,9.12 11.08,13.44 1.42,1.59 3.59,2.5 6.51,4.44 -1.8,-8.3 -7.54,-13.93 -5.44,-21.13 z"
     style="fill:currentColor" />
  <path
     d="m 85.135512,340.77913 2.8,-6.82 c 2,1 3.56,1.7 5,2.58 q 31.589998,18.93 67.119998,9.31 c 1.36,-0.36 3,0.12 4.43,0.2 -0.41,1.49 -0.5,3.19 -1.3,4.43 -2.57,4 -5.41,7.11 -11.19,6.45 a 275.09,275.09 0 0 1 -62.519998,-14.25 c -1.17,-0.45 -2.37,-1.04 -4.34,-1.9 z"
     style="fill:currentColor" />
  <path
     d="m 260.39551,337.56913 2.2,6.72 c -13.19,3.24 -25.93,6.86 -38.88,9.4 -9.92,2 -20.09,2.61 -30.17,3.74 -3.66,0.41 -10.11,-4.28 -10.86,-7.87 -0.22,-1 -0.07,-3 0.46,-3.18 a 6.12,6.12 0 0 1 4,-0.09 c 19.41,6.53 38.65,5.4 57.66,-1.48 5.12,-1.85 9.91,-4.57 15.59,-7.24 z"
     style="fill:currentColor" />
  <path
     d="m 156.35551,128.75913 c -15,-11.24 -27.27,-5.39 -39,6 2.11,-7.52 13.9,-14.35 23.91,-14.58 7.35,-0.17 13.18,2.88 15.09,8.58 z"
     style="fill:currentColor" />
  <path
     d="m 50.305512,152.76913 c 5.65,-8.72 13.38,-14.57 23.91,-15.2 5.29,-0.32 10.93,0.32 14.72,5.78 -15.9,-8.13 -27.78,-1.68 -38.63,9.42 z"
     style="fill:currentColor" />
  <path
     d="m 245.37551,135.74913 c -11.41,-11.28 -23.75,-16.39 -39,-7.1 4.41,-5 9.79,-8.22 16.24,-7.15 9.34,1.54 18.02,4.88 22.76,14.25 z"
     style="fill:currentColor" />
  <path
     d="m 311.30551,157.67913 c -10.16,-12.05 -21.61,-19.81 -38.51,-10.51 2.16,-4.29 8.71,-6.59 14.86,-6.34 9.82,0.39 20.45,7.75 23.65,16.85 z"
     style="fill:currentColor" />
  <path
     d="m 334.71551,153.21913 c 1,-4.64 2.1,-9.26 3,-13.93 0.9,-4.67 1.49,-9.34 2.31,-14 a 3.69,3.69 0 0 1 2,-2.49 c -0.71,10.56 -2.13,20.89 -7.33,30.34 z"
     style="fill:currentColor" />
  <path
     d="m 28.695512,151.26913 c -4.5,-8.7 -7.89,-28.16 -5.52,-34.39 0.47,4.75 0.64,8.75 1.3,12.66 1.23,7.3 2.74,14.55 4.13,21.82 z"
     style="fill:currentColor" />
  <path
     d="m 253.10551,172.45913 c 8.11,11.53 10.14,22.13 4.6,27.77 -1.64,-2.36 -3.33,-4.5 -4.71,-6.84 -1.38,-2.34 -2.48,-4.9 -4.37,-8.72 -1.68,5.84 -5.22,7.68 -9.72,8 -1,0.07 -2.52,0.31 -3,-0.24 a 3.2,3.2 0 0 1 -0.21,-3 c 4.3,-7.05 7.52,-15.19 17.41,-16.97 z"
     style="fill:currentColor" />
  <path
     d="m 106.63551,169.06913 c 8.94,2.86 12.93,10.46 16.1,18.54 0.94,2.39 -0.36,3.83 -3.59,3.37 -4.4,-0.62 -7,-2.86 -8.35,-7.65 l -10.63,15.33 c -4.289998,-5.75 -2.739998,-11.16 -1.219998,-15.78 1.579998,-4.84 4.959998,-9.08 7.689998,-13.81 z"
     style="fill:currentColor" />
</svg>
