<svg viewBox="0 0 351.09 353.1">
  <path style="fill:currentColor" d="M1310.32,514.68l-.78,4.28.85,1c1.44-1.35,3.33-2.45,4.26-4.09,18.16-32.14,13.16-67.81-15.88-91.63-4.42-3.64-7.87-9.14-10.24-14.46-4-8.9-9.56-15.7-19-18.38-8.36-2.37-16.23-7.26-25.44-5.81a34.43,34.43,0,0,0-8.51,2.1c-10.84,4.74-21.67,9.56-32.31,14.74a208.74,208.74,0,0,0-19.37,10.85c-13.79,8.65-19.83,21.88-21.45,37.57-.15,1.48-.35,3-.48,4-3-14.52,1.45-28.56,5.86-42.35,1.49-4.65,6.12-8.59,10-12.13C1199,381,1225,373.79,1252.9,373c14.6-.42,26.46,7.11,34.86,18.49,11.83,16,24.13,32.07,33.26,49.65,13.26,25.53,16,52.11-.41,78.41-10.52,16.89-19.89,34.51-29.49,52-6.65,12.08-15.84,21.58-27,29.59a23.77,23.77,0,0,0-7.62,9.82c-3.3,8-9.56,10.58-17.25,11.31-8.19.77-9.77,2.16-11.35,10.22-.63,3.23-1.87,6.38-2.19,9.64-.52,5.23,1.31,7.2,6.57,7.89,3.63.47,7.26,1,10.9,1.21,9.73.46,16.87,4.55,21,13.69,3.44,7.58,7.28,15,11.12,22.84-2.59,1.66-5.15,3.3-8.22,5.25-3-7.13-5.89-13.62-8.42-20.24-2-5.12-5.79-7.06-10.79-7.23-18.13-.6-36.25-1.23-54.38-1.6-7.8-.15-15.64.09-23.41.67-1.81.14-4.16,2.06-5,3.78-2.85,5.52-5.13,11.33-8.62,16.92,0-1.08-.3-2.28,0-3.22,2-5.29,4.17-10.52,6.29-15.76a8,8,0,0,1,8.14-5.4,240.48,240.48,0,0,0,28.17-1.08c-2.54-.73-5-1.88-7.64-2.11-10.57-.93-10.54-.82-8.1-10.84q4.92-20.21,9.7-40.42a30.5,30.5,0,0,0,.41-4.07l-1.7-.69c-1.25,2.27-3,4.4-3.68,6.82-4,14.41-7.86,28.84-11.42,43.36-1,4-2.05,5.09-6,3.11-8.54-4.28-13.65-1.91-15.82,7.24-3.73,15.66-2.89,31.66-3.32,47.57a64.61,64.61,0,0,1-.19,7c-.14,1-1.27,1.79-1.95,2.68-.52-.88-1.49-1.76-1.48-2.64.09-8.62,0-17.27.66-25.85.51-6.88,2.16-13.6-1-20.36-.9-1.91,0-4.61-.19-6.93-.61-9.79-5.92-13.31-15.11-10.09-5.41,1.89-5.19,1.87-5.86-4-1.77-15.36-3.86-30.68-9.48-45.24a22.89,22.89,0,0,0-2.64-4l-1.32.47a33.51,33.51,0,0,0,0,5.49c2.59,15.21,5.2,30.42,8,45.59.57,3.06-.44,3.92-3.25,3.9a72.7,72.7,0,0,0-8.48.34,36.66,36.66,0,0,0-5.34,1.43l.1,1.69c2.63.21,5.26.5,7.89.6,5.48.2,11,.51,16.44.36s8.85,1.95,10.6,7.07c1.88,5.48,3.93,10.9,5.82,16.38.14.41-.45,1.07-1,2.14a10.71,10.71,0,0,1-1.65-2.07c-1.69-4.32-3.57-8.6-4.89-13-1.61-5.45-5.24-6.89-10.5-7-24.11-.47-48.22-1.13-72.33-1.85-5.74-.17-9.5,2.6-12,7.37-3.38,6.6-6.53,13.33-9.77,20-12.58-5.91-11.77-4.85-5.62-16.08,3.74-6.84,7.33-13.91,12.13-20,3.24-4.09,8.43-6.64,12.83-9.76.48-.34,1.48,0,2.22.11,5.54.75,11,1.91,16.61,2.18,5.18.26,8-2.85,6.9-7.88a85.13,85.13,0,0,0-5.6-16.91c-.88-1.94-4.32-4.21-6.26-3.94-14.51,2-21.63-6.82-27.51-17.8a29.81,29.81,0,0,1-1.86-4.07,32.23,32.23,0,0,0-12.92-17c-6.18-4.17-9-11-10.88-18.41a104.81,104.81,0,0,0-7-19c-7.28-15.63-16.18-30.63-22.12-46.74-5.22-14.14-2.42-29,2.59-43.32,3.26-9.3,10.16-15.8,15.75-23.39,6.37-8.64,11.69-18,17.85-26.85,11.58-16.56,26.42-28.85,46.54-33.61a17.09,17.09,0,0,1,7.35.24c22.66,4.9,42.76,15.34,61.34,28.9,9.85,7.18,16.2,16.21,18.9,28.71a83.67,83.67,0,0,1,.91,29.12,7.35,7.35,0,0,1-.26-1.51c.64-22.85-12.15-37.09-30.58-47.67-9.22-5.3-19-9.78-27.66-15.88-13.94-9.83-27.41-7.25-40.73.12-14.41,8-24.26,19.85-27.76,36.4-.22,1-1.32,1.89-2.45,3.43-.78-1.53-1.2-2.19-1.46-2.9-.63-1.73-1.19-3.49-1.78-5.24a33.16,33.16,0,0,0-4.42,2.87c-8.82,7.91-17,16.16-21.63,27.57-7.79,19-7,37.61,1,56.17a29.88,29.88,0,0,0,4.19,7.2c1.52,1.83,2.92,1.18,3-1.35l-.1.1c2.83,5.65,5.6,11.33,8.48,16.94a46,46,0,0,1,4.85,20.11c.27,8.38,5.77,14.48,11.52,20.3a110.13,110.13,0,0,1,11.67,14.56c3.32,4.76,5.78,10.11,9,14.93,4,6,9.6,7.81,16.53,5.8,6.7-1.94,13.29-4.33,20.07-5.93,4.68-1.11,6.36-3.36,5.18-7.9-.33-1.29-1.06-2.59-.94-3.83s1.07-2.33,1.66-3.49c.5,1,1.44,2,1.45,2.94.08,10.15,0,10.13,10.38,8.67,4.45-.63,8.94-1,13.37-1.7,6.71-1.08,9.66-5.06,11.16-11.51a201.39,201.39,0,0,1,7.46-23.65c3.56-9.66,8-19,11.31-28.75,1.72-5.1,1.9-10.76,2.46-16.2,1.67-16.19,3.19-32.39,4.72-48.59.18-2,0-4,.35-5.95,0,9.36,1.5,19-.33,28-3.23,15.87-2.32,32.05-5.17,47.78-1.57,8.69-5.24,17.1-8.73,25.31-3.65,8.56-7.58,16.85-8.91,26.29-.43,3-4.33,5.68-7,8.17-.91.87-2.78.73-5,1.22,1.35,4.78,2.84,9.15,3.79,13.62,2.36,11.17,4.64,22.36,6.6,33.6.56,3.24.46,4.92,4.67,3.18,7.82-3.25,12-.58,13.22,7.72.2,1.3-.12,2.72.23,4a22.65,22.65,0,0,0,1.89,4c1.11-1.17,2.59-2.16,3.25-3.54.83-1.77,1-3.85,1.45-5.79,1.63-6.4,5.23-8.3,11.47-6.1s5.63,2,7.37-4.32c3.66-13.39,8.11-26.55,11.78-39.94.47-1.71-1.33-5.41-3-6.07-5.48-2.24-6.88-5.83-7.46-11.51-.7-7-3.28-13.8-5.21-20.64-2.74-9.72-7.23-19.26-8.1-29.13-1.38-15.58-.37-31.38-.37-47.08h1.28c0,7.95.55,15.94-.14,23.83a68,68,0,0,0,3.53,27.47c3.84,11.67,7.94,23.26,11.7,35a39.82,39.82,0,0,1,1.45,9.33c.5,7,2.13,9.83,8.88,11.31,7.75,1.7,15.7,2.48,23,3.57,4.18-3.82-.31-9.35,3.36-12.42l1.73.29a81.72,81.72,0,0,1-1,9c-.59,2.74-.24,4.32,2.72,5.27,7.91,2.55,15.67,5.54,23.6,8,5.58,1.72,10.52.4,14.06-4.65,4.86-6.93,9.66-13.9,14.67-20.73a34.72,34.72,0,0,1,5.8-6c8.84-7.39,16.54-15.38,17.24-27.86a18.29,18.29,0,0,1,1.91-7.19c4.89-9.33,10-18.52,15.1-27.76Zm-124,129.37c0,2.62-.7,5.57.11,6.07,5.1,3.16,10.54,5.77,16.14,8.71l9.28-38.19,1.88.38a22.92,22.92,0,0,1-.24,4.16c-2.37,9.69-4.86,19.34-7.23,29a33.18,33.18,0,0,0-.46,4.6c1.9,0,4.24.71,5.59-.14a10,10,0,0,0,3.88-5.29c3.57-12.26,6.77-24.63,10.25-36.91,1.54-5.44,1.26-5.72-4.16-7.35a201.58,201.58,0,0,1-19.55-6.92c-2.91-1.21-4.83-1.28-5.94,1.76-1,2.84-2.05,5.85,2.47,7a24.53,24.53,0,0,1,6.39,2.52c.85.5,1,2.14,1.5,3.26-1.15-.06-2.47.22-3.42-.25-2.74-1.33-5.34-3-8-4.51-3.34,7.88-3.33,7.87,3.73,10.29,1.09.37,2.45.6,3.15,1.38a15.93,15.93,0,0,1,2,3.88l-1.19.72-9.56-5.62c-4.39,6.3-3.84,8,2.45,10.59,2,.81,3.6,2.49,6,4.19-1.84.88-2.24,1.22-2.41,1.13-3-1.63-6-3.31-9-5-3.89,8.15-3.83,8.3,4,11.49a7.54,7.54,0,0,1,2.66,1.26c.57.61.62,1.72,1.26,3.73Zm-70.55-3.76c-3.59,2.42-6.65,4.62-9.88,6.55-.67.4-1.94-.18-2.93-.31.27-1,.24-2.42.88-2.84a30,30,0,0,1,7.06-3.66c5.27-1.65,5.22-4.84,3.11-9.56-3,1.88-5.71,3.79-8.61,5.27-1.26.64-3,.42-4.48.59.85-1.33,1.4-3.22,2.61-3.87,3.44-1.87,7.16-3.23,11-4.89-.76-2.62-1.43-4.9-2.38-8.18-3.5,2.45-6.24,4.49-9.13,6.29a6.55,6.55,0,0,1-3.53.78c-.47,0-1.42-1.52-1.24-1.84a6.19,6.19,0,0,1,2.47-2.7c3.91-1.68,7.94-3.09,12-4.63-.69-3.25-1.28-6.09-2.14-10.14-4.19,2.84-7.58,5.37-11.23,7.45-.95.54-2.7-.34-4.09-.56.65-1.11,1-2.74,2-3.23a63.49,63.49,0,0,1,9.65-4c2.8-.89,4.67-1.92,3.15-5.2s-3.67-1.71-5.78-.71c-6.74,3.18-13.29,6.84-21.15,6.67-3.19-.07-4.13,2-3.47,5.13,2.77,13.17,5.21,26.43,8.26,39.54.51,2.16,3.47,3.76,5.29,5.61l1.53-1.14c-.22-1.75-.34-3.52-.69-5.25-2.07-10.41-4.26-20.79-6.22-31.22-.21-1.09.76-2.4,1.18-3.61.64.78,1.69,1.49,1.85,2.35,1.68,9.14,3.21,18.3,4.79,27.45.58,3.35,1.2,6.7,1.91,10.67,5.12-2.14,9.55-3.93,13.94-5.84C1117.93,648.45,1117.91,648.41,1115.81,640.29Z" transform="translate(-980.86 -366.33)"/>
  <path style="fill:currentColor" d="M1191.26,519.22c-4.21,6-4.09,11.38.74,16.5l-1.59.95c-1-.73-2.28-1.25-2.86-2.22-2.59-4.33-2.13-8.89-.69-13.51,1.53-4.86-.32-8.74-6.22-12.1v19.49l-2,0c-.2-3.9-.51-7.8-.6-11.7-.29-12.79,5.94-21.12,16.24-21.83,12-.82,23.89,8.9,25,20.42.13,1.27.2,2.55.27,3.49,4.36-2.83,8.65-5.58,12.87-8.42a2.19,2.19,0,0,0,.72-1.73c-.85-7.35,2.74-13.3,5.42-19.73,1.6-3.84.65-8.74.81-13.17a7.25,7.25,0,0,1,.85-4c2.56,6.71,3,13.48-.59,19.58-5.37,9.05-7,17.86-.75,27.1a48.74,48.74,0,0,1,2.47,4.83c.06.13.27.17.44.27,2.74-2.55,5.18-5.56,8.27-7.59,13.48-8.84,31.53-.06,35.15,16.83-2.86,7.14-1,16.11-8.58,21.52,1.75-4.49,3.51-9,5.43-13.86-4.63-1-6.42-.38-6.86,3.65-.55,5.06-4.07,8.62-7.84,11.93,1.08-5.49,8.35-8.6,5.65-15.7-4.18.13-6.4,2.72-8.06,5.86-5.17,9.8-7.32,10.15-15.43,2.36-1-1-2.12-2-3.35-3.08-1.08,7.52,3.91,15.77,10.89,18.23,7.29,2.57,15.26,2.34,21.26-1.51,4.48-2.87,7.27-9.26,9.45-14.64,2.29-5.67,2.58-12.12,4.48-18,1.42-4.38,4.33-8.25,6-12.57,2.31-6,4.07-12.17,6.06-18.27.27-.84.49-1.69.73-2.53l1.71.37c-1.21,4.91-1.88,10-3.75,14.68-3.53,8.78-8.09,17.14-11.55,25.93-2,5.16-2,11.15-4.29,16.16a44.75,44.75,0,0,1-9.73,14.28,147.68,147.68,0,0,0-24.43,29.49,16.54,16.54,0,0,0-1.25,3.83l-2.62-2.42c7.74-10.38,14.54-21.46,24-30.73-12.06,5.24-22.72,12.08-29.13,24.32l-1.45-.89c.36-1.59.73-3.19.93-4l-10.15-8.74c-7.54,3-12.3,2-17.1-4.78-4.94,2.79-9.2,1.46-13.8-2.06-4.9-3.76-12.29-2.15-16.86,2.28-.54.52-1.61.52-2.43.76,0-.87-.38-2.13,0-2.53,2.38-2.21,1.25-4.29.43-6.75q-6.5-19.59-12.58-39.33a16.79,16.79,0,0,1-.54-6.91,87.59,87.59,0,0,0-2.53-34c-3-11.34-2.3-22.62,1.51-33.9-2.08,13-3.37,25.86,2.13,38.18l1.54.08,1.2-23,1.09-.09a66.24,66.24,0,0,1,.34,7.16c-.84,15.11-1.84,30.22-2.66,45.34-.77,14.07,8.29,23.91,22.35,24.45,7,.26,15.51-5.21,18.55-11.82-3.86.81-7.73,1.95-11.68,2.37-3.65.4-6.24-1.17-7.29-5.21C1194.27,525.38,1192.57,522.35,1191.26,519.22Zm72.56,49.94-.45-1.27c-1.24-.2-2.5-.34-3.73-.6-6.19-1.29-11.35-4.09-13.43-10.49a101.56,101.56,0,0,1-3.92-14.88c-1.44-8.82-2.33-17.69-6.88-25.71-1.88-3.3-4.24-3.53-7-2a10.89,10.89,0,0,0-3.86,3.74c-3.6,5.77-6.46,12.07-10.54,17.45-8.29,10.93-15.9,15.45-28.42,8.3-.56-.32-1.45,0-3.94,0,4.62,7.73,7.13,16.93,13.06,20.55,6.54,4,14.32,11.06,24.06,5.74.26,5,3.61,6.53,7.14,6.61s6.84-1.16,10.62-1.89c-1.26,5.37,3.2,7.13,7.45,8.71s4.91-3.06,7.28-4.76,4.48-3.44,6.73-5.13C1259.91,572,1261.87,570.59,1263.82,569.16Z" transform="translate(-980.86 -366.33)"/>
  <path style="fill:currentColor" d="M1093,515.65c2.45-12.69,10.11-19.51,22.11-21.69,10.6-1.92,19.35,5.24,19.38,16,0,5.14-.54,10.29-1,15.43-.06.77-.79,1.48-2.21,2,.42-6.18.83-12.35,1.27-18.95-6.08,2.61-7.64,5.77-7.46,10.95a66.94,66.94,0,0,1-1.23,13.22c-.2,1.15-2,2-3.92,2.52,4.81-5.32,3.93-11.1,3.15-16.87l-1.42-.72a52.4,52.4,0,0,0-3.77,6.23c-4,9.1-8.64,10.82-17.53,6.23-.69-.35-1.45-.55-2.36-.9,1.76,7.69,10.63,13.46,18.19,13.24,14-.42,24.51-14.27,23-27.87-1.73-15.69.55-31.83,1.13-47.77,0-.32.55-.63,1.3-1.44v23.8c7.62-12.85,7.56-25.89,5.09-39.31l1.7,0c.25,2,.59,3.92.73,5.9.71,10.67.29,21-3.63,31.39a58,58,0,0,0-3.73,22.42c.58,13.86-3.64,26.21-8.86,38.52-1.23,2.91-2.21,6-3.82,8.66-1.32,2.21-3.4,4-5.14,5.91l-1.94-.16c1,2.75,2.08,5.49,3,8.28a11.58,11.58,0,0,1,.16,3c-.93-.54-2.38-.85-2.71-1.64-1.58-3.75-3.88-4.11-7.89-3.8-5.39.43-10.32,3.23-15.07,3.4-6,.23-10.29,2.92-15.25,4.81-.76.29-1.83.67-2.42.36-8.72-4.53-11.78,5.64-18.54,6.3.31,1.12.46,1.55.55,2,.22,1.08.41,2.17.6,3.25-1.12-.63-2.94-1-3.25-1.93-4.29-12.51-16.21-16.81-25.49-23.92-.27-.21-.89,0-1.22.08l23.69,32-1,1.08c-.78-.25-1.91-.24-2.3-.77-7.18-9.69-14.34-19.41-21.36-29.22-3.65-5.11-7.46-10.19-10.37-15.72a23.93,23.93,0,0,1-2.39-11c0-8.7-3.68-16.14-7.05-23.69a47.94,47.94,0,0,1-4.14-24.07c.28.95.58,1.9.82,2.86,1.66,6.71,2.73,13.62,5.08,20.07,3.18,8.75,6.15,17.21,7.09,26.76,1.86,19,17.24,25.2,33.39,18,6-2.7,6.86-9.15,7.83-15.45-2.25,1.75-4.43,3.6-6.77,5.23-5.08,3.53-7.88,2.46-10.3-3.21a34.71,34.71,0,0,0-5-7.76c-.59-.74-2.46-1-3.47-.65-.61.21-1.19,2.14-.91,3a43.4,43.4,0,0,0,3.09,7.19c.68,1.3,1.84,2.35,3.58,4.51a11.84,11.84,0,0,1-8.23-12.14c.12-3.09-1.38-4.24-3.63-3.85-1,.18-2.57,2.91-2.29,4.13.73,3.28,2.32,6.37,3.16,9.74-3.62-2.65-4.65-6.54-4.91-10.93-.13-2.38-1.36-4.89-.89-7.07.91-4.25,1.74-9,4.28-12.32,7.78-10,20.77-13.79,32.25-5.75,2.62,1.83,4.45,4.76,6.65,7.18,7.39-11,11.77-17.46,5.24-29.77-3.65-6.89-2.82-13.82-1-20.8l1.53,0c-.24,2-.84,4-.66,5.89.43,4.54,1.08,9.07,1.9,13.56.92,5,2.09,9.95,3.2,14.91.3,1.36.37,3.24,1.27,3.9C1085.29,511,1089,513.1,1093,515.65Zm-49.64,47.7-.3,1.26c.59.54,1.17,1.1,1.78,1.62,5.12,4.36,10.17,8.81,15.44,13,1,.81,3.48,1.23,4.35.58,3.23-2.4,6.07-5.32,9.39-8.36,8.14,4.35,11.31,3.81,16.76-3.61,15.1,5,34.62-9.15,36.54-26.21-1.65.66-3.14,1.26-4.64,1.84-9.49,3.71-16,2.58-22.19-5.38-4.13-5.28-7.25-11.45-10.16-17.54-2.3-4.8-5.26-8.28-11.41-10-2.24,4.93-4.92,9.7-6.61,14.81-3,9-5,18.19-8,27.15-2.77,8.4-8.1,11.52-16.75,10.84C1046.2,563.26,1044.79,563.35,1043.39,563.35Z" transform="translate(-980.86 -366.33)"/>
  <path style="fill:currentColor" d="M1143.21,699.94c-4.91,2.12-8.1,4.17-11.53,4.75-2.33.4-5-1.62-7.56-1.94-12-1.47-24.13-2.31-36.06-4.27-4.72-.78-9.32-3.46-13.47-6.08-2.14-1.36-4.95-5.63-4.33-6.6,1.64-2.6,4.74-5.24,7.69-5.88,10.19-2.23,20.17-.2,29.81,3.45,9.17,3.47,18.36,6.91,27.4,10.69C1137.68,695.12,1139.71,697.33,1143.21,699.94Z" transform="translate(-980.86 -366.33)"/>
  <path style="fill:currentColor" d="M1157.18,699.5c1.63-1.28,3.08-3.13,4.93-3.73,14.51-4.69,29-9.74,43.76-13.39,5.82-1.44,12.53-.06,18.68,1,2.22.36,5.1,3.14,5.62,5.31.4,1.68-2,4.77-3.88,6.12-9.63,6.81-21,7.83-32.3,8.75-6.61.54-13.3.18-20,.22-.83,0-1.94-.39-2.44,0-6.34,4.93-9.34-2.44-14.27-2.57C1157.27,700.61,1157.22,700.05,1157.18,699.5Z" transform="translate(-980.86 -366.33)"/>
  <path style="fill:currentColor" d="M1056.17,699.86c-8.52-.73-9.08-8.16-13.34-11.76-.3-.26.08-1.56.4-2.26,2.43-5.46,4.86-10.92,7.45-16.31.48-1,1.66-1.66,3.33-3.25,1.75,8.6-3.31,14.08-4.81,21.34a39.84,39.84,0,0,0,4.86-3c1-.81,1.51-2.17,2.32-3.22,11.31-14.51,15.57-16,37.59-13.43q16.08,1.89,32.18,3.71c5.33.61,13.24,8.93,13.41,14.29.1,2.79-1.61,3.63-3.92,2.55-2.09-1-3.88-2.56-5.91-3.68-16.75-9.27-35-11.1-53.62-10.11-4.86.25-8.1,3.64-10.41,7.7C1062.41,688.23,1059.3,694.12,1056.17,699.86Z" transform="translate(-980.86 -366.33)"/>
  <path style="fill:currentColor" d="M1249.54,670.63c1.06,2.65,2.13,5.3,3.17,8,.67,1.7,1.4,3.39,1.94,5.13,1,3.08,3.48,7.27,2.33,9.11-2.76,4.42-6.24,9.15-13,9.59-2.46-4.88-7.45-8.12-8.54-14.76-1-6.08-5.9-9.92-13-10.32-17.63-1-34.88,0-51.08,7.95-2.38,1.18-4.62,2.66-7.05,3.68a3.52,3.52,0,0,1-3.12-.41c-.54-.48-.54-2.13-.15-3,3.6-7.93,8.16-13.55,18.49-13.45,14.58.13,29.19-1.4,43.76-2.48,4.92-.36,8.7.9,11.74,4.87,3.53,4.61,7.2,9.12,11.08,13.44,1.42,1.59,3.59,2.5,6.51,4.44-1.8-8.3-7.54-13.93-5.44-21.13Z" transform="translate(-980.86 -366.33)"/>
  <path style="fill:currentColor" d="M1060.83,702.32l2.8-6.82c2,1,3.56,1.7,5,2.58q31.59,18.93,67.12,9.31c1.36-.36,3,.12,4.43.2-.41,1.49-.5,3.19-1.3,4.43-2.57,4-5.41,7.11-11.19,6.45a275.09,275.09,0,0,1-62.52-14.25C1064,703.77,1062.8,703.18,1060.83,702.32Z" transform="translate(-980.86 -366.33)"/>
  <path style="fill:currentColor" d="M1236.09,699.11l2.2,6.72c-13.19,3.24-25.93,6.86-38.88,9.4-9.92,2-20.09,2.61-30.17,3.74-3.66.41-10.11-4.28-10.86-7.87-.22-1-.07-3,.46-3.18a6.12,6.12,0,0,1,4-.09c19.41,6.53,38.65,5.4,57.66-1.48C1225.62,704.5,1230.41,701.78,1236.09,699.11Z" transform="translate(-980.86 -366.33)"/>
  <path style="fill:currentColor" d="M1132.05,490.3c-15-11.24-27.27-5.39-39,6,2.11-7.52,13.9-14.35,23.91-14.58C1124.31,481.55,1130.14,484.6,1132.05,490.3Z" transform="translate(-980.86 -366.33)"/>
  <path style="fill:currentColor" d="M1026,514.31c5.65-8.72,13.38-14.57,23.91-15.2,5.29-.32,10.93.32,14.72,5.78C1048.73,496.76,1036.85,503.21,1026,514.31Z" transform="translate(-980.86 -366.33)"/>
  <path style="fill:currentColor" d="M1221.07,497.29c-11.41-11.28-23.75-16.39-39-7.1,4.41-5,9.79-8.22,16.24-7.15C1207.65,484.58,1216.33,487.92,1221.07,497.29Z" transform="translate(-980.86 -366.33)"/>
  <path style="fill:currentColor" d="M1287,519.22c-10.16-12.05-21.61-19.81-38.51-10.51,2.16-4.29,8.71-6.59,14.86-6.34C1273.17,502.76,1283.8,510.12,1287,519.22Z" transform="translate(-980.86 -366.33)"/>
  <path style="fill:currentColor" d="M1310.41,514.76c1-4.64,2.1-9.26,3-13.93s1.49-9.34,2.31-14a3.69,3.69,0,0,1,2-2.49c-.71,10.56-2.13,20.89-7.33,30.34Z" transform="translate(-980.86 -366.33)"/>
  <path style="fill:currentColor" d="M1004.39,512.81c-4.5-8.7-7.89-28.16-5.52-34.39.47,4.75.64,8.75,1.3,12.66,1.23,7.3,2.74,14.55,4.13,21.82Z" transform="translate(-980.86 -366.33)"/>
  <path style="fill:currentColor" d="M1228.8,534c8.11,11.53,10.14,22.13,4.6,27.77-1.64-2.36-3.33-4.5-4.71-6.84s-2.48-4.9-4.37-8.72c-1.68,5.84-5.22,7.68-9.72,8-1,.07-2.52.31-3-.24a3.2,3.2,0,0,1-.21-3C1215.69,543.92,1218.91,535.78,1228.8,534Z" transform="translate(-980.86 -366.33)"/>
  <path style="fill:currentColor" d="M1082.33,530.61c8.94,2.86,12.93,10.46,16.1,18.54.94,2.39-.36,3.83-3.59,3.37-4.4-.62-7-2.86-8.35-7.65l-10.63,15.33c-4.29-5.75-2.74-11.16-1.22-15.78C1076.22,539.58,1079.6,535.34,1082.33,530.61Z" transform="translate(-980.86 -366.33)"/>
</svg>
