<?xml version="1.0" encoding="UTF-8"?>
<!DOCTYPE svg PUBLIC "-//W3C//DTD SVG 1.1//EN" "http://www.w3.org/Graphics/SVG/1.1/DTD/svg11.dtd">
<!-- Creator: CorelDRAW X8 -->
<svg xmlns="http://www.w3.org/2000/svg" xml:space="preserve" width="70mm" height="70mm" version="1.1" style="shape-rendering:geometricPrecision; text-rendering:geometricPrecision; image-rendering:optimizeQuality; fill-rule:evenodd; clip-rule:evenodd"
viewBox="0 0 7000 7000"
 xmlns:xlink="http://www.w3.org/1999/xlink">
 <defs>
  <style type="text/css">
   <![CDATA[
    .fil0 {fill:black}
   ]]>
  </style>
 </defs>
 <g id="Camada_x0020_1">
  <metadata id="CorelCorpID_0Corel-Layer"/>
  <path class="fil0" d="M4714 3526l52 18c52,-9 41,-20 36,32l24 46 24 46 37 49c154,223 275,462 312,786 93,818 -629,791 -763,415 -69,-196 176,-691 253,-1331l-44 -119 69 58zm-573 -3526c-585,380 -1624,1630 -2016,2288 -611,1028 -1086,2102 -633,3339 231,629 787,1197 1540,1331 1971,350 3098,-1548 2492,-2949 -115,-266 -388,-676 -547,-888 -876,-1165 -1180,-1705 -836,-3121z"/>
 </g>
</svg>
