<?xml version="1.0" encoding="UTF-8"?>
<!DOCTYPE svg PUBLIC "-//W3C//DTD SVG 1.1//EN" "http://www.w3.org/Graphics/SVG/1.1/DTD/svg11.dtd">
<!-- Creator: CorelDRAW X8 -->
<svg xmlns="http://www.w3.org/2000/svg" xml:space="preserve" width="70mm" height="70mm" version="1.1" style="shape-rendering:geometricPrecision; text-rendering:geometricPrecision; image-rendering:optimizeQuality; fill-rule:evenodd; clip-rule:evenodd"
viewBox="0 0 7000 7000"
 xmlns:xlink="http://www.w3.org/1999/xlink">
 <defs>
  <style type="text/css">
   <![CDATA[
    .fil0 {fill:#221F1F}
   ]]>
  </style>
 </defs>
 <g id="Camada_x0020_1">
  <metadata id="CorelCorpID_0Corel-Layer"/>
  <path class="fil0" d="M1374 3480c682,-233 1892,-1412 2111,-2127l64 89c416,684 509,841 1140,1422 494,455 619,413 949,645 -839,463 -1745,1240 -2126,2137 -74,-84 -140,-228 -208,-332 -384,-594 -706,-979 -1280,-1399l-633 -418c-3,-11 -12,-11 -17,-17zm-1343 7c40,46 804,479 1057,675l942 813c374,386 864,1008 1148,1472 85,138 251,465 334,553 416,-898 714,-1169 1240,-1785 307,-359 764,-733 1158,-1031l1059 -693c-967,-369 -2155,-1506 -2801,-2411 -127,-177 -227,-321 -348,-515l-321 -548c-3,-4 -10,-12 -15,-17 -166,530 -995,1609 -1428,2029 -277,269 -597,528 -940,787 -237,180 -772,539 -1085,671z"/>
 </g>
</svg>
