<?xml version="1.0" encoding="UTF-8"?>
<svg width="27.981mm" height="21.136mm" clip-rule="evenodd" fill-rule="evenodd" image-rendering="optimizeQuality" shape-rendering="geometricPrecision" text-rendering="geometricPrecision" version="1.1" viewBox="0 0 2798.1268 2113.6461" xml:space="preserve" xmlns="http://www.w3.org/2000/svg" xmlns:cc="http://creativecommons.org/ns#" xmlns:dc="http://purl.org/dc/elements/1.1/" xmlns:rdf="http://www.w3.org/1999/02/22-rdf-syntax-ns#"><metadata><rdf:RDF><cc:Work rdf:about=""><dc:format>image/svg+xml</dc:format><dc:type rdf:resource="http://purl.org/dc/dcmitype/StillImage"/><dc:title/></cc:Work></rdf:RDF></metadata>
 <defs>
  <style type="text/css">
   <![CDATA[
    .fil0 {fill:#070000}
    .fil1 {fill:#5C3852}
   ]]>
  </style>
 </defs>
 <g transform="translate(-9126.9 -13772)">
   <path class="fil0" d="m10650 15486c0 37 36 93 67 107l264 68c31 3 46 9 71 16 24 6 11 4 30 6 99 12 249-18 327-66l58-30c35-16 224-124 109-132l-182-17c-234-15-83-82-351 39l-60 20c-19 6-2 2-25 8l-54 9h-6c-106 2-172 8-204-54 40-11 26-24 90-49l178-84c1-1 3-3 5-4l52-27c61-23 85-41 135-65 14-6 26-10 37-15l106-43c86-45 42-27 105-77 57-43 27-21 47-58l18-25c24-42 9-74 35-122 23-43 70-181 11-181-63 0-71 31-89 68-27 56-97 184-136 230l-121 89c-45 25-129 51-206 107-13 10-18 13-31 22-83 60-31 11-117 74-20 14-14 8-33 19-9 5-7 4-16 11l-48 31c-22 15-20 22-29 38 0 1-2 3-2 4z" fill="#070000"/>
   <path class="fil0" d="m9720 15057zm-210-138c0 71 30 91 95 114l25 10c80 27 130 18 256 110 55 39 90 83 128 95l63 28c21 11 41 14 62 25l117 66c66 31 186 71 186 101 0 29-16 29-30 32l-22 4c-73 23-93 30-190 14-16-2-34-10-54-15-93-25-141-25-221-2l-104 33c-58 11-41 14-77 29-51 20-64 0-156 80 33 7 62 6 113 9 44 2 86 5 140 8 37 2 29 6 61 8 88 3 327 9 389-19 50-24 166-72 189-117 1-2 2-4 2-6 4-7 46-49 7-122-2-4-94-101-128-120-1 0-4-1-4-1-16-9-15 15-19-33-43-3-21-2-43-26-10-11-30-28-43-36-85-49-153-54-259-108-19-10-28-18-51-27-25-10-29-8-55-14-46-11-16-13-88-22-1-1-4-1-5-1l-12-2c-54-9-106-27-149-61-24-19-123-104-123-34z" fill="#070000"/>
   <path class="fil0" d="m9852 14223v42c-15 64 31 164-42 204-28 15-62 8-80 16-14 37 0 1 1 21v5 5c1 41-4 76 34 118l31 17c42 17 52 11 92 50l76 99c11 27 6-15 10 33h26c4 48 48 50 112 72 14 5 27 13 42 17 18 4 9 0 17 1 49 6 22 8 79 36 2 1 4 2 6 2 68 34 147 101 187 162 19 29 32 41 52 69 29 40 46 44 54 77h27c6-22-4-10 17-17-9-41-19-29-25-62-8-48 8-32-21-154l-49-107c-31-60-55-76-90-111l-130-97c-48-31-25-25-94-37l-169-74c-33-19-26-7-59-29l-10-7c-1-1-3-3-5-4-39-27-45-22-45-68 0-19 20-36 33-45 34-21 13 4 59-37l42-28c1-1 4-2 5-3 2-2 9-10 12-14l14-30-125-109c-3-1-9-5-11-7-7-4-15-28-73-6z" fill="#070000"/>
   <path class="fil0" d="m10362 14259c44 0-22-13 73 2l51 4c2 0 4 1 5 1l16 4c12 1-5 1 17 1 133-1 78-27 152 23 0 70 10 66-7 115-7 19-13 36-17 53l-31 112c-17 58-117 302 20 339l67-133c14-28 14-49 27-79 12-29 20-39 33-72l38-135c23-75 20-180 9-260-7-50-17-47-52-70-65 17-77 66-144 6l-64-51c-24-24-5 5-21-31l-46-77c-29-39-15 14-21-39-37 10-36 23-62 69-7 13-14 23-24 37l-54 77c-14 27-30 63-13 82 7 8 36 22 48 22z" fill="#070000"/>
   <path class="fil0" d="m10668 15096c33-8 64-39 91-61 1-1 5-4 6-5 2-2 3-1 11-10 14-16 29-47 52-63 48-35 19-16 65-80 88-124 42-36 125-180l42-141c-51-12-36-12-70-35 30-63 11-59 12-86 0-17 10-20 0-89-6-47-15-117-47-148-86 58-64 289-29 379l13 25c0 1 1 4 1 5 36 152-50 150-96 230l-82 92c-23 21-14 7-28 37-22 49-65 62-66 130z" fill="#070000"/>
   <path class="fil0" d="m10692 15269c46 11 17 12 48-12l139-115c26-17 23-9 47-32l338-228c31-21 152-152 152-188 0-112-80-34-120 20-29 40-55 53-57 55-11 11-5 5-9 11-17 26-24 42-53 67-43 38-155 92-219 147-2 1-3 3-5 4 0 0-13 10-15 11-57 41-40 39-73 67l-4 4-111 107c-27 25-39 47-58 82zm4 18c23-30-19 25 0 0z" fill="#070000"/>
   <path class="fil0" d="m9415 15155c9 12 6 7 17 18l21 18s3 1 4 2l53 32c1 0 3 1 4 2s4 2 5 2l72 64c22 27 14 17 48 38 2 1 4 2 6 4 42 27 72 74 190 48 33-7 33-9 51-28-15-56-113-68-177-110-19-13-5-5-28-16-7-3-20-10-24-12-34-16-175-79-216-80-8 21 19 17-26 18z" fill="#070000"/>
   <path class="fil0" d="m11140 14638s-1 3-2 2zm110-127c-63 30-29 5-66 56l-7 10c-27 32-21 14-52 62l-29 40c-20 32-75 115-18 131 18 5 59-13 79-25 44-27 41-47 60-71l5-7c48-59 28-84 28-196z" fill="#070000"/>
   <path class="fil0" d="m10127 14460c42 79 60 54 123 27l41-20 6-3c1-1 3-2 5-3l34-18c2-1 5-2 7-3l107-67c-14-51-26-64-61-53-24 6-21 9-49 22-18 7-32 14-49 20l-47 23c-1 1-3 2-5 3l-30 14c-15 7-32 16-45 25l-20 15c-6 6-11 12-17 18z" fill="#070000"/>
   <path class="fil0" d="m9598 15529c17-25 18-11 26-43-31-33-60-33-85-52-1-1-2-3-3-3l-40-25c-22-10-66-28-83-31-145-30-71 49-35 69l132 61c29 9 58 17 88 24z" fill="#070000"/>
   <path class="fil0" d="m9626 14695c-56 41 2 106 35 139 35 36 125 88 148 88s24-4 43-9c-39-59-44-14-99-102l-28-24c-29-15-48-52-62-68-19-20-11-17-37-24z" fill="#070000"/>
   <path class="fil0" d="m10310 14608c24 16 17 15 48 31 24 13 33 19 66 21l38-66c17-21 27-19 31-73-56-27-140 1-161 30-13 19-17 35-22 57z" fill="#070000"/>
   <path class="fil0" d="m11722 14181 3-3c0 1-4 2-3 3z" fill="#070000"/>
   <path class="fil1" d="m11148 14650c1 1 2-2 2-2z" fill="#5c3852"/>
   <line class="fil1" x1="9710" x2="9710" y1="15077" y2="15077" fill="#5c3852"/>
 </g>
</svg>
