<svg viewBox="0 0 2885.6277 2704.1771" >
 <polygon
   style="fill:#373435;stroke:#fefefe;stroke-width:7.61999989"
   points="10133,15467 10129,14256 11185,14856 "
   transform="translate(-9057.7735,-13501.24)" />
  <polygon
   style="fill:#373435;stroke:#fefefe;stroke-width:7.61999989"
   points="10136,14251 11011,14009 11184,14851 "
   transform="translate(-9057.7735,-13501.24)" />
  <polygon
   style="fill:#373435;stroke:#fefefe;stroke-width:7.61999989"
   points="11018,14028 11437,14845 11184,14851 "
   transform="translate(-9057.7735,-13501.24)" />
  <polygon
   style="fill:#373435;stroke:#fefefe;stroke-width:7.61999989"
   points="10118,14006 10994,14010 10129,14256 "
   transform="translate(-9057.7735,-13501.24)" />
  <polygon
   style="fill:#373435;stroke:#fefefe;stroke-width:7.61999989"
   points="10115,14013 9587,14826 10130,14257 "
   transform="translate(-9057.7735,-13501.24)" />
  <polygon
   style="fill:#373435;stroke:#fefefe;stroke-width:7.61999989"
   points="10131,14260 9563,14856 10133,15472 "
   transform="translate(-9057.7735,-13501.24)" />
  <polygon
   style="fill:#373435;stroke:#fefefe;stroke-width:7.61999989"
   points="10132,15481 9586,14890 10116,15694 "
   transform="translate(-9057.7735,-13501.24)" />
  <polygon
   style="fill:#373435;stroke:#fefefe;stroke-width:7.61999989"
   points="11185,14856 11002,15690 10133,15472 "
   transform="translate(-9057.7735,-13501.24)" />
  <polygon
   style="fill:#373435;stroke:#fefefe;stroke-width:7.61999989"
   points="11185,14856 11437,14845 11010,15672 "
   transform="translate(-9057.7735,-13501.24)" />
  <polygon
   style="fill:#373435;stroke:#fefefe;stroke-width:7.61999989"
   points="10115,15694 10132,15472 10989,15687 "
   transform="translate(-9057.7735,-13501.24)" />
  <text
   x="239.2092"
   y="2116.834"
   style="font-weight:normal;font-size:580.11999512px;font-family:Arial;fill:#fefefe"
   transform="rotate(-29.999471)">20</text>
</svg>
