<svg viewBox="0 0 726.74998 668.34599">
  <path
    fill="currentColor"
    d="m 721.75,473.07051 c -37.8,54 -86,95.78 -143.49,127 -65,35.36 -135.09,54.31 -208,62.85 -15.64,1.83 -32.26,-2.66 -48.19,-5.55 -109.8,-19.9 -208.08,-62.34 -284.19,-147.27 -10.4,-11.61 -19.82,-24.11 -32.88,-40.11 17.75,0 31.35,0.87 44.79,-0.21 19,-1.51 37.92,-3.81 56.67,-7 9.86,-1.71 16.39,0.12 23.47,7.63 59.89,63.66 132.23,106.91 217.05,128.23 a 76.53,76.53 0 0 0 35.89,0.12 c 83.62,-21.09 155.45,-63.08 214.76,-125.75 8.71,-9.2 16.39,-11.66 29.12,-9.76 30.87,4.61 62.14,6.56 95,9.82 z"
  />
  <path
    fill="currentColor"
    d="m 204.93,139.81051 c 49.36,32.87 101,35.26 154.77,22.93 4.15,-1 8.94,-0.47 13.18,0.46 52.74,11.67 103.39,9.22 152,-23.41 0,41.87 0.37,81.85 -0.39,121.81 -0.11,6.1 -5.18,12.21 -8.35,18.11 -30.89,57.54 -77.88,96.1 -139.45,116.82 a 37.93,37.93 0 0 1 -22.47,0.19 c -65.41,-21.69 -113.61,-63.68 -144.68,-125.22 -2,-3.93 -4.37,-8.3 -4.41,-12.49 -0.33,-39.03 -0.2,-78.06 -0.2,-119.2 z m 140.29,50.44 c -15.54,-0.71 -19.75,6.17 -19.5,20.25 0.81,44.83 0.9,89.7 0,134.52 -0.29,14.55 5.17,21.6 19.51,24.51 z m 40.65,-1.23 v 180.34 c 15.61,-3.22 19.66,-12 18.66,-25.92 -1.2,-16.69 -0.28,-33.54 -0.28,-50.32 v -98.76 z m -95.49,3.26 -5.16,2.6 c 0,44.2 -0.27,88.4 0.43,132.59 0.07,4.44 6,8.79 9.21,13.18 3.89,-46.93 4.08,-92.15 3.52,-137.37 -0.04,-3.72 -5.22,-7.35 -8,-11.02 z m 154.68,2.66 -6.26,-2.34 c -2.5,4.64 -7,9.21 -7.15,13.93 -0.76,22.33 -0.34,44.69 -0.34,67 v 65.78 l 6,1.45 c 2.6,-6.3 6.43,-12.39 7.48,-18.93 1.3,-8.18 0.32,-16.72 0.32,-25.1 z m -190.64,-10.71 -5.09,2.43 c 0,35 -0.4,70.09 0.44,105.12 0.12,5.25 6,10.36 9.27,15.54 l 4,-1.63 c 0,-36.62 0.26,-73.25 -0.38,-109.86 -0.03,-3.92 -5.35,-7.74 -8.24,-11.6 z m 226.56,3.21 -4.48,-3.12 c -3.08,3.41 -8.76,6.78 -8.82,10.24 -0.64,37.07 -0.4,74.16 -0.4,111.24 l 5,1.43 c 2.9,-5.87 8.19,-11.69 8.33,-17.63 0.79,-34.04 0.37,-68.1 0.37,-102.16 z m 29.58,-15 c -12.93,8.58 -17,71.32 -7.17,98.34 11.33,-30.97 4.16,-63.42 7.17,-98.37 z m -285.84,98.18 6.95,-0.62 c 0,-28 0.26,-55.92 -0.29,-83.86 -0.08,-4.14 -4,-8.2 -6.19,-12.29 l -4.82,1.58 c 2.34,31.67 -4.81,63.98 4.35,95.19 z"
  />
  <path
    fill="currentColor"
    d="m 416.66,162.20051 c -32,-10.37 -71.82,-1.54 -111.69,-1.16 -24.43,0.23 -49.14,-8.39 -73.38,-14.44 -15.71,-3.91 -19.39,-14.71 -15.62,-30.87 13.93,-59.69 55.91,-98.72 118.64,-108.3599999 36.37,-5.59 71.55,-1.41 105.12,13.7799999 44.09,19.94 67.35,55.35 75.8,102.09 1.86,10.32 -1.76,15.58 -10,20.16 -25.28,14 -52.67,18.35 -88.87,18.8 z"
  />
  <path
    fill="currentColor"
    d="m 534.94,424.97051 71,27.22 c -2.68,3.52 -5.21,7.54 -8.4,11 -60.25,64.28 -132.88,107.76 -218.45,129 -7.84,2 -16.91,2.56 -24.67,0.7 -89.26,-21.42 -164.46,-66.92 -226.26,-134.76 a 56.4,56.4 0 0 1 -3.84,-5.33 c 22.05,-9.11 43.34,-18.52 65.21,-26.32 3.5,-1.25 10.75,3.67 14.27,7.54 36.46,40.06 77.68,74 122.8,104.19 27.59,18.43 49.45,18.55 77,0 43.11,-29 82.94,-61.25 118.16,-99.33 4.57,-4.89 9.19,-9.68 13.18,-13.91 z"
  />
  <path
    fill="currentColor"
    d="m 518.42,431.81051 c -40.51,44.62 -87.7,84.57 -144,112.85 -5,2.5 -13.35,2.67 -18.27,0.2 -56.34,-28.27 -103.64,-68.19 -144.62,-113.23 l 45.12,-43 c 23.08,23.53 53.18,43.91 87.72,58.06 14.58,6 27.1,6 41.68,-0.06 34.21,-14.18 64.35,-33.86 87.68,-58.46 z"
  />
  <path
    fill="currentColor"
    d="m 214.8,296.81051 c 6.24,8.48 12.23,17.17 18.76,25.42 32,40.37 73.2,67.35 122,82.76 6.3,2 14.42,1.6 20.78,-0.48 54.48,-17.76 98.82,-49.57 131.47,-97.06 2.47,-3.59 5.07,-7.09 10.69,-9.61 -1.39,5.91 -1.77,12.29 -4.31,17.64 -29,61.08 -74.47,104.53 -138.74,127 a 33.82,33.82 0 0 1 -20.73,-0.09 c -64.32,-22.4 -109.69,-65.91 -138.69,-127 -2.51,-5.3 -3.22,-11.47 -4.76,-17.23 z"
  />
</svg>
