<svg viewBox="0 0 39.999963 39.259872" >
  <g transform="translate(-95.08676,-116.39784)">
    <path
       style="fill:#1b1817;fill-opacity:1;fill-rule:evenodd;stroke:none;stroke-width:0.9208495"
       d="m 115.08555,121.39784 c -8.28306,0 -14.99879,6.71576 -14.99879,15.00064 0,6.62735 4.29759,12.24914 10.25825,14.23356 0.75048,0.1373 1.02399,-0.32597 1.02399,-0.72378 0,-0.35544 -0.013,-1.29932 -0.0209,-2.55074 -4.17238,0.90611 -5.0527,-2.01115 -5.0527,-2.01115 -0.68235,-1.73213 -1.66583,-2.19347 -1.66583,-2.19347 -1.36194,-0.93098 0.10311,-0.91255 0.10311,-0.91255 1.50558,0.10676 2.29752,1.54609 2.29752,1.54609 1.338,2.29201 3.51122,1.62992 4.36574,1.24686 0.13626,-0.96967 0.52305,-1.63083 0.95218,-2.00561 -3.33072,-0.37849 -6.83272,-1.66583 -6.83272,-7.41378 0,-1.63727 0.58475,-2.97619 1.54427,-4.02503 -0.15479,-0.37938 -0.66946,-1.9043 0.14643,-3.96979 0,0 1.25972,-0.40332 4.12542,1.53782 1.19619,-0.33242 2.47985,-0.49909 3.75523,-0.50462 1.27353,0.005 2.55719,0.17228 3.75521,0.50462 2.86384,-1.94114 4.1208,-1.53782 4.1208,-1.53782 0.81863,2.06549 0.30389,3.59041 0.14931,3.96979 0.96136,1.04884 1.54244,2.38776 1.54244,4.02503 0,5.76267 -3.50752,7.03069 -6.84928,7.4018 0.53868,0.46319 1.01846,1.37851 1.01846,2.7782 0,2.00469 -0.0183,3.62263 -0.0183,4.11435 0,0.40149 0.2698,0.86836 1.03135,0.72195 5.95607,-1.98812 10.24998,-7.60623 10.24998,-14.23173 0,-8.28488 -6.71667,-15.00064 -15.00155,-15.00064" />
  </g>
</svg>
