<?xml version="1.0" encoding="UTF-8"?>
<!DOCTYPE svg  PUBLIC '-//W3C//DTD SVG 1.1//EN'  'http://www.w3.org/Graphics/SVG/1.1/DTD/svg11.dtd'>
<svg width="70mm" height="70mm" clip-rule="evenodd" fill-rule="evenodd" image-rendering="optimizeQuality" shape-rendering="geometricPrecision" text-rendering="geometricPrecision" version="1.1" viewBox="0 0 7000 7000" xml:space="preserve" xmlns="http://www.w3.org/2000/svg">
 <defs>
  <style type="text/css">
   <![CDATA[
    .fil0 {fill:black}
   ]]>
  </style>
 </defs>
  <path class="fil0" d="m1793 3709c308-39 505-109 758 60 191 127 318 272 325 585-249-87-577-564-1022-555l-161-28 100-62zm2512 293c-8 4-19 15-23 16-3 0-19 4-22 4-159 10 83 79-46-37 22-32 77-43 81-46 68-92 500-405 641-460 84 90 129 132 178 239l-809 284zm-1756-1051c54 0 40-12 34 44l22 46c51 3 36-8 24 49 51 47 36-73 44 66l-155-34-437-86c-7-2-22 0-27-11-5-12-18-8-27-13 46-93 20-82 157-138 87-36 146-48 242-59l123 136zm1608-588l437 181c-1 340-215 550-444 654l7-835zm-1131 14c45-35-103-49 100-28 147 15 13-12 72 41l11-11 109 34-19 414c-104-52-22-2-55-68-58 10-48 24-40-31-56 9-44 20-34-36-57 8-46 21-36-35-53 9-39 19-35-36-58 9-39 15-19-47-65 4-43 17-48-56l2-5c-39-43-24 14-35-67-19-140-13-37 27-69zm-838-1662c-11 42-8 46-27 93-15 39-26 60-29 54-3-5-12 18-18 26-45 51 1 22-71 35-264-249-678-305-1021-56-441 321-233 805-202 1033-195 88-170 142-197 404-250 47-449 200-515 436-106 378 56 540 203 720-42 97-692 628 88 1297 368 315 1078 107 1216-400 625 8 1155 421 1169 1196 11 558-212 450-668 508-239 31-642 281-751 412 300 33 386-24 641-34 242-10 384 66 579 80 139 113 5 196 159 406l113-71c64-140 133-257 290-313l133 338c97 118 51 107 174 142l74-125c4-6 14-16 18-21s12-14 18-21c23-106 89-194 168-239 220 30 325 300 683 378l15-67c18-126 5-160 78-243 90-9-23-24 72-4 90 19 63 19 89 32 303 47 323 75 649 40l35-112c-2-5-21-38-28-48-66-6-37 11-104-30-87-53 1 23-61-68 122-27 345-5 447-59-89-171-325-171-535-172-212-1-376-56-552-124-417-161-388-473-301-1017 95-595 80-622 575-799 461-165 651-191 1195-158 115 150 117 223 333 273 208 48 381-5 491-108 247-229 229-545-84-812 94-359 227-482 56-911-102-256-329-463-547-579 39-168 127-561-253-594l-149-28c-12-103-11-77-39-184-28-248-328-554-500-657-347-208-602-111-980-46-514-774-1872-719-2129 197z"/>
</svg>
