<svg xmlns="http://www.w3.org/2000/svg" viewBox="0 0 512 512">
  <path d="M474,255.6c.22,116.12-94.48,211.07-210.6,211.15A209.86,209.86,0,0,1,131,420.09a20.38,20.38,0,0,1-1.57-30.26l9.58-9.58a20.44,20.44,0,0,1,27.1-1.68,156.37,156.37,0,1,0-10-236.5l43.13,43.13a13.6,13.6,0,0,1-9.62,23.21H66.1a13.6,13.6,0,0,1-13.6-13.6V71.28a13.6,13.6,0,0,1,23.21-9.62l42,42A210,210,0,0,1,263.25,45.25C379.51,45.25,473.79,139.39,474,255.6Zm-153.74,67,8.35-10.73A20.4,20.4,0,0,0,325,283.2l-34.59-26.9V167.62a20.39,20.39,0,0,0-20.39-20.39h-13.6a20.39,20.39,0,0,0-20.39,20.39V282.9l55.58,43.23A20.4,20.4,0,0,0,320.26,322.55Z" />
</svg>
