<?xml version="1.0" encoding="UTF-8"?>
<!DOCTYPE svg PUBLIC "-//W3C//DTD SVG 1.1//EN" "http://www.w3.org/Graphics/SVG/1.1/DTD/svg11.dtd">
<!-- Creator: CorelDRAW X8 -->
<svg xmlns="http://www.w3.org/2000/svg" xml:space="preserve" width="70mm" height="70mm" version="1.1" style="shape-rendering:geometricPrecision; text-rendering:geometricPrecision; image-rendering:optimizeQuality; fill-rule:evenodd; clip-rule:evenodd"
viewBox="0 0 7000 7000"
 xmlns:xlink="http://www.w3.org/1999/xlink">
 <defs>
  <style type="text/css">
   <![CDATA[
    .fil0 {fill:#B4FF80}
   ]]>
  </style>
 </defs>
 <g id="Camada_x0020_1">
  <metadata id="CorelCorpID_0Corel-Layer"/>
  <path class="fil0" d="M4528 4898l124 -77c16,-10 30,-19 45,-26 -7,-6 -25,-18 -39,-15 -13,2 -21,17 -32,27 -37,32 -134,45 -168,77 -21,21 36,-7 -20,21 -14,7 -31,14 -47,19 15,-48 95,-87 138,-112 39,-22 126,-59 171,-77l-5 -72 71 -16 3 -52c61,-19 40,-4 71,-52 14,-22 36,-49 46,-72 -22,9 -18,13 -43,20 11,-27 44,-64 65,-83 38,-35 64,-24 128,-27l65 -102c-1,0 -3,0 -4,-1 -2,0 6,8 -11,1 10,-18 33,-55 52,-67 -2,-1 -4,-5 -5,-4l-19 -11c-1,0 -3,-1 -5,-2 18,-14 31,-32 49,-53 18,-22 44,-29 63,-49l-49 -3c2,-27 22,-54 30,-83 -9,19 -34,52 -46,68l-5 -61 41 -22c-7,-73 1,-62 28,-126 30,-70 28,-51 11,-128 1,-1 4,-3 4,-2 1,2 4,-1 5,-1l29 -12 -25 -42c15,-11 28,-12 42,-21l7 -93 -51 16 18 -62 -43 -2 6 -45 35 19c11,-12 15,-53 12,-74 -4,-29 -25,-31 -32,-53 -8,-26 20,-107 24,-138l-45 -43c2,-27 10,-30 17,-52l-49 -38c2,-66 22,-28 -15,-80 -17,-24 -5,-62 -3,-100l-66 -36 39 -20c-58,-47 -46,-13 -79,-97 -29,-72 -33,-60 -38,-148 -72,-25 -43,3 -87,-53 -10,-13 -21,-23 -32,-38 -12,-16 -14,-25 -27,-40 16,-12 17,-2 35,-12 -51,-38 -69,-37 -104,-94 -11,-19 -18,-46 -38,-57 -45,-24 -32,4 -57,-48l32 19c2,-46 -1,-44 -25,-67 -46,-44 -117,-86 -178,-110 7,-26 6,-9 20,-30 -129,-1 -86,8 -183,-66 -49,-37 10,-66 -89,-87 18,17 17,8 27,31 -65,2 -86,6 -135,-26l35 -22 -146 -5 26 -30c-119,-16 -95,3 -172,-63 -10,-10 -61,-50 -67,-52 -30,-12 -84,2 -112,-12l-51 -258c-18,11 -3,-4 -16,23 -19,-221 -5,-418 56,-606 -9,-4 7,-9 -19,14l14 -79 -34 24c-29,-28 -54,-145 -54,-199l14 25c10,-69 4,-139 17,-204 18,-94 39,-202 33,-301 -3,-33 -22,-49 -39,-78 -28,-48 -66,-87 -112,-113 21,53 35,47 31,128 -8,172 -37,127 -97,232 -14,25 8,28 9,55 1,18 -18,40 -27,57l39 19 -49 44c23,54 -22,92 -30,144 6,-6 11,-11 17,-16l5 5c0,1 -18,35 -21,43 -15,38 7,50 -19,101 -15,30 -8,27 -9,61l-49 22 55 2 -10 78c-6,4 -5,-5 -15,0 -3,19 -8,37 -7,56 2,28 12,29 5,56 -19,16 -34,17 -57,40l7 88 49 28c-12,27 -25,32 -33,67l38 12 -84 47c10,19 13,12 26,32 -20,49 -59,38 -63,83 -2,14 -2,36 -2,51 5,2 12,-4 22,0 -11,119 40,7 7,189l-147 -10 5 54 -122 -6c8,56 10,44 -52,57 -1,-2 -1,-7 -2,-6l-5 -16c-1,-2 -1,-4 -2,-5l-5 -10c-62,83 -141,30 -196,84 -41,41 -106,99 -138,141l-72 -6c-1,2 -3,3 -3,5 -1,3 -3,3 -4,4l-5 9c-52,89 -9,44 -122,94 -31,14 -39,37 -58,64 -17,23 -34,48 -50,69l-79 -23c-16,101 -10,121 -99,180 -7,-15 3,-53 -9,-70 -28,85 -149,206 -188,293l61 -43c-3,24 -21,30 -22,54 -1,15 13,50 15,72l-60 0c-7,14 -15,41 -21,60 -4,12 -6,22 -9,35 -2,6 -3,9 -5,14 -9,18 -4,10 -13,19 -9,-71 16,-78 20,-135 -63,73 -35,59 -74,152 -34,81 -41,90 -38,196l19 0c-38,187 -12,183 0,371l-54 -24 -1 -115c-6,24 -28,116 -37,135 -14,33 -16,28 -13,72 1,26 1,63 9,83 7,-21 8,-47 19,-64l24 46c-1,-56 -31,-86 -16,-125l51 28c4,61 -2,143 -8,156 -23,-2 -29,-7 -35,-24 -39,62 22,246 36,321l8 -42c7,132 96,297 140,411 -17,11 -10,3 -31,11 -1,0 -3,1 -5,2 9,13 168,236 183,244 12,7 41,6 50,17 11,30 1,38 27,53 13,8 51,22 63,26l-4 61 70 -6c47,101 17,97 78,114 20,5 17,3 29,21 10,15 22,41 36,52 -56,0 -140,-72 -185,-84 11,47 18,50 54,70 26,15 51,34 78,49 27,15 52,34 81,46 29,13 75,20 100,34 27,15 34,56 62,66 64,22 32,-10 83,43 68,69 43,25 184,-1 0,55 -11,49 42,57l7 31 51 -2 56 66c15,-14 5,2 11,-21 0,-1 0,-21 0,-24 159,-17 70,20 233,25 46,89 34,91 32,197l19 -25c20,97 2,188 -7,285l27 6 19 140 26 -41c4,31 27,114 24,136 -4,48 -53,45 -16,119 38,22 42,5 54,62 7,37 -5,77 -8,117l17 -22c5,-10 8,-19 11,-26 31,35 23,54 19,107 -8,86 7,51 25,102 30,83 4,176 2,256 0,23 -1,25 10,50 18,38 10,68 11,115 0,39 12,69 24,105 9,26 31,68 51,88 -2,-122 -20,-114 59,-176l-11 -74 -16 41c-12,-56 0,-109 10,-163 8,-47 50,-56 81,-85l10 -11c-39,-37 -61,-12 -59,-139 1,-55 5,-130 31,-171l36 90c43,-163 -5,-213 -10,-302 -7,-105 25,-119 -16,-226 -12,-31 -19,-29 -50,-38 9,-16 -1,-3 13,-17l50 -37c-5,-31 -18,-63 -21,-91 -4,-34 14,-61 19,-92 5,-34 -30,-38 -32,-72 -1,-17 14,-72 17,-95l-35 -11c14,-80 45,-69 62,-124l44 11c19,-52 21,-51 85,-57l18 58 28 -64 113 -4 -32 -19 22 -45c39,0 36,10 62,-9 22,-16 19,-22 57,-26l-19 50 -67 -6 -4 29c51,26 72,-13 138,-23l12 -2c2,-1 4,-1 6,-2l26 -78c67,13 34,35 103,-8 49,-31 247,-151 289,-169 -31,15 -89,40 -110,59l-10 -4zm-775 -2376c-6,-34 -20,-57 -31,-91 -13,-40 16,-45 37,-70 21,-24 6,-14 14,-38 12,-36 27,-15 41,-130 42,3 205,6 234,41 14,18 5,4 14,25l-70 -4c16,37 5,38 50,48 28,6 57,10 78,24l-41 9c33,6 72,10 104,17 50,11 24,41 60,62 22,13 62,15 89,32l51 38 -10 16c27,14 64,51 92,73 36,27 37,61 59,106 22,43 72,30 93,73 12,23 -4,13 21,24 16,7 18,-1 28,11 3,3 14,65 22,50 0,-1 3,2 3,2l-34 19 21 12c67,40 44,94 42,134 21,22 78,43 127,152 -18,7 -35,13 -49,27l33 10c-7,28 0,17 -19,29l13 15c12,18 10,20 10,47 -41,-26 -41,-39 -50,-102 -81,10 -33,62 -11,94 53,76 -30,57 35,111l16 -25c7,-14 -1,-6 10,-20l16 57 -77 19 56 32c-95,10 -45,-1 0,83 -10,27 -44,65 -47,89 -4,50 35,63 41,90 14,57 -37,43 -32,100 3,44 21,69 5,111 -17,6 -29,-37 -36,54l34 14c1,52 -13,52 -35,83 -12,18 -8,9 -15,28l38 -13c-11,25 -47,76 -65,103 -66,97 -98,49 -127,133 -55,153 -38,114 -128,109 -39,52 -109,96 -186,100l-10 40c-39,1 6,-12 -44,-8l-9 39 -59 4c-13,34 -26,31 -53,48 -24,-11 8,-39 -30,-5 -26,23 -40,53 -118,75 8,23 11,15 13,31l-80 44c6,-20 4,-1 5,-22 0,-17 -1,-13 -4,-19l-81 42 7 -337 -27 44c0,-1 -2,3 -3,4 -27,-173 -4,-137 -6,-208l-50 -21c0,-42 -5,-103 6,-143 10,-34 27,-75 31,-116l-31 27 9 -106c-19,-9 8,-6 -12,1 -25,9 5,8 -8,5l60 -436c11,-42 33,-84 40,-127l-43 27c6,-22 38,-74 49,-95 49,-91 16,-44 16,-101 -1,-17 30,-78 37,-101 19,-62 -6,-59 58,-82 -7,-12 -1,-10 -21,-21 -12,-7 -16,-7 -31,-6 -20,2 -37,12 -64,15l-1 -163 -29 -24 11 -122c-22,9 -26,16 -45,26 -16,-13 -32,-36 -45,-56 -40,-59 -52,-62 -36,-140 5,-26 23,-42 38,-58l36 32zm19 -192c-1,1 3,3 3,3l-3 -3zm-1440 751c18,-69 15,-61 -5,-120 1,-1 3,-1 3,-1l21 5c23,-125 14,-23 85,-125 60,-84 45,-23 19,-135l44 -36c13,32 12,24 20,31 68,-148 21,-99 91,-131 43,-20 53,-104 88,-137l8 49c13,-1 23,-4 37,-8 10,-3 11,-4 19,-7 19,-9 5,-2 15,-10l-35 -36c34,-23 23,13 85,15 -3,-40 -21,-68 3,-98 74,-95 81,-134 189,-160l-35 71c26,-9 38,-22 62,-33 29,-14 50,-7 84,-8l10 -24c1,-1 2,-3 3,-4l181 3c11,40 -4,42 -25,56 2,23 9,47 9,68 -1,37 -11,20 5,29l39 359c14,58 53,0 38,79l-60 -25 22 67c-59,76 -91,13 -74,146 3,28 11,33 31,43 0,80 -1,51 32,103l-20 14c-7,4 -6,1 -16,7 29,33 47,67 77,102l-34 26 21 9c4,1 0,-4 14,2 -1,37 -5,85 -10,123 -4,35 -27,61 -42,83 22,4 10,-1 23,14 -42,54 -34,192 -31,271l9 -40c4,42 3,88 8,128 4,36 23,59 29,96 19,104 -5,86 4,118 8,30 17,0 12,52 -2,20 -7,33 -6,57l27 -17 0 169c-21,-10 -11,1 -25,-20 -1,35 19,48 11,81 -9,42 -4,45 -1,92l-41 -16 19 231 -48 -34c-2,32 8,70 -1,99 -10,35 -11,3 -14,85 -64,6 -47,-24 -82,-32 -24,-6 -65,10 -94,12 -19,-23 -31,-52 -70,-58 -132,-21 -99,-24 -166,-81 -22,-18 -58,-25 -82,-37 -20,-40 7,-40 -39,-65 -106,-59 -135,-49 -137,-155 -20,6 -24,8 -41,17 -13,-14 -27,-28 -43,-48 -90,-104 -92,-86 -95,-178l-70 -35 1 -42 -39 -9 46 -25 -84 -49c-6,-59 -22,-53 -27,-82 -4,-22 3,-28 -3,-48 -3,-11 -13,-18 -18,-27l19 -37 -47 -9 55 -22c-28,-57 -67,-23 -76,-61 19,-16 43,-2 74,-1 9,-100 -46,-33 -47,-204l-73 -24 8 -79c2,0 4,0 6,-1 20,-4 21,0 47,-17 3,7 3,12 7,22l12 21c27,-52 44,-86 -12,-125l28 -18c6,-5 8,-2 14,-25 20,-86 3,-74 -48,-159 2,-1 4,-2 5,-2l41 -10c-5,-41 -17,-40 -40,-64 17,-26 39,-53 62,-77l34 76z"/>
 </g>
</svg>
