<svg xmlns="http://www.w3.org/2000/svg" viewBox="0 0 101.66 198.43">
  <path
    fill="currentColor"
    d="M128.35,138.84l3.52-2.18a11.49,11.49,0,0,1,1.27-.74,1.54,1.54,0,0,0-1.1-.42c-.37.05-.6.48-.91.76-1,.91-3.8,1.28-4.76,2.18-.6.6,1-.19-.57.6a9.24,9.24,0,0,1-1.33.54c.42-1.36,2.69-2.47,3.91-3.18s3.57-1.67,4.85-2.18l-.14-2,2-.45.08-1.48c1.73-.54,1.14-.11,2-1.47a18.86,18.86,0,0,0,1.3-2c-.62.25-.51.37-1.22.56a8.41,8.41,0,0,1,1.84-2.35c1.08-1,1.82-.68,3.63-.76l1.85-2.9a.25.25,0,0,1-.12,0s.17.22-.31,0a6.39,6.39,0,0,1,1.47-1.89s-.11-.15-.14-.12L145,119l-.14-.06a9.76,9.76,0,0,0,1.39-1.5c.51-.62,1.25-.82,1.79-1.39l-1.39-.08a14.09,14.09,0,0,1,.85-2.36,15.56,15.56,0,0,1-1.31,1.93l-.14-1.73,1.16-.62c-.19-2.07,0-1.76.8-3.57.85-2,.79-1.45.31-3.63,0,0,.11-.09.11-.06s.12,0,.15,0l.82-.34-.71-1.19a13.11,13.11,0,0,1,1.19-.59l.2-2.64-1.45.46.51-1.76-1.22-.06.17-1.27,1,.53a3.58,3.58,0,0,0,.34-2.09c-.12-.83-.71-.88-.91-1.51s.57-3,.68-3.91l-1.28-1.22c.06-.76.29-.85.49-1.47L147,87.73c.05-1.87.62-.79-.43-2.27-.48-.68-.14-1.75-.08-2.83l-1.87-1,1.1-.57c-1.64-1.33-1.3-.37-2.24-2.75-.82-2-.93-1.7-1.08-4.19-2-.71-1.21.08-2.46-1.5-.29-.37-.6-.66-.91-1.08s-.4-.71-.76-1.14c.45-.34.48,0,1-.34-1.45-1.07-2-1-3-2.66-.31-.54-.51-1.3-1.08-1.62-1.27-.68-.9.12-1.61-1.36l.9.54c.06-1.3,0-1.25-.7-1.9a17,17,0,0,0-5.05-3.12c.2-.73.17-.25.57-.85-3.66,0-2.44.23-5.19-1.87-1.39-1.05.28-1.87-2.52-2.46.51.48.48.22.76.88-1.84.05-2.44.17-3.83-.74l1-.62-4.14-.15.74-.85c-3.38-.45-2.7.09-4.88-1.78a16.92,16.92,0,0,0-1.9-1.48c-.85-.34-2.38.06-3.17-.34l-1.45-7.31c-.51.31-.08-.11-.45.65a42.7,42.7,0,0,1,1.58-17.18c-.25-.11.2-.25-.53.4l.39-2.24-1,.68c-.82-.79-1.53-4.11-1.53-5.64l.39.71c.29-2,.12-3.94.49-5.78a35.72,35.72,0,0,0,.93-8.54C105,4.48,104.43,4,104,3.2A8.64,8.64,0,0,0,100.77,0c.6,1.5,1,1.33.88,3.63-.23,4.87-1.05,3.6-2.75,6.57-.4.71.23.8.26,1.56,0,.51-.51,1.14-.77,1.62l1.11.54-1.39,1.25c.65,1.53-.63,2.6-.85,4.08.17-.17.31-.31.48-.46l.14.15s-.51,1-.59,1.21c-.43,1.08.19,1.42-.54,2.87-.43.85-.23.76-.26,1.73l-1.39.62,1.56.06-.28,2.21c-.17.11-.14-.14-.43,0a8.65,8.65,0,0,0-.2,1.59c.06.79.34.82.15,1.58-.54.46-1,.48-1.62,1.14l.2,2.49,1.39.79c-.34.77-.71.91-.94,1.9l1.08.34-2.38,1.34c.28.53.37.34.74.9-.57,1.39-1.68,1.08-1.79,2.36a11.32,11.32,0,0,0-.06,1.44c.14.06.34-.11.63,0-.32,3.38,1.13.2.19,5.36l-4.16-.28.14,1.53L85.86,50c.23,1.58.28,1.24-1.47,1.61,0-.05,0-.2-.06-.17l-.14-.45c0-.06,0-.11-.06-.14L84,50.51c-1.76,2.36-4,.85-5.56,2.38a54.12,54.12,0,0,0-3.91,4l-2-.17c0,.06-.08.09-.08.14s-.09.09-.12.12l-.14.25c-1.47,2.52-.25,1.25-3.46,2.67-.88.39-1.1,1-1.64,1.81s-1,1.36-1.42,2L63.38,63c-.45,2.87-.28,3.43-2.8,5.11-.2-.43.08-1.51-.26-2C59.53,68.54,56.1,72,55,74.44l1.73-1.22c-.08.68-.59.85-.62,1.53,0,.42.37,1.42.42,2h-1.7a14.51,14.51,0,0,0-.59,1.7,9.54,9.54,0,0,0-.26,1c-.06.17-.08.26-.14.4-.26.51-.11.28-.37.54-.25-2,.45-2.21.57-3.83-1.79,2.07-1,1.67-2.1,4.31a9.43,9.43,0,0,0-1.08,5.56h.54c-1.08,5.3-.34,5.18,0,10.51l-1.53-.68,0-3.26c-.17.68-.79,3.29-1,3.83a2.8,2.8,0,0,0-.36,2,8.19,8.19,0,0,0,.25,2.35,8.71,8.71,0,0,1,.54-1.81l.68,1.3c0-1.58-.88-2.43-.45-3.54l1.44.79a17.49,17.49,0,0,1-.22,4.43c-.66-.06-.83-.2-1-.68-1.1,1.75.63,7,1,9.09l.23-1.19c.2,3.75,2.72,8.42,4,11.65-.48.32-.28.09-.88.32a.34.34,0,0,0-.14,0c.25.37,4.76,6.69,5.19,6.92s1.16.17,1.41.48c.31.85,0,1.08.77,1.5a12.48,12.48,0,0,0,1.78.74L62.9,133l2-.17c1.33,2.86.48,2.75,2.21,3.23.56.14.48.09.82.6a6.65,6.65,0,0,0,1,1.47c-1.59,0-4-2-5.25-2.38a2.22,2.22,0,0,0,1.54,2c.73.43,1.44,1,2.21,1.39a21.52,21.52,0,0,0,2.29,1.31c.82.37,2.13.56,2.84,1s1,1.59,1.75,1.87c1.82.62.91-.28,2.36,1.22,1.92,2,1.22.71,5.21,0,0,1.56-.31,1.39,1.19,1.62l.2.88,1.45-.06,1.58,1.87c.43-.4.15.06.32-.59v-.69c4.5-.48,2,.57,6.6.71,1.31,2.53,1,2.58.91,5.59l.54-.71c.56,2.75,0,5.33-.2,8.08l.76.17.54,4,.74-1.17A33.64,33.64,0,0,1,97.2,168c-.11,1.36-1.5,1.28-.45,3.37,1.07.63,1.19.14,1.53,1.76a13.09,13.09,0,0,1-.23,3.32l.48-.63c.14-.28.23-.54.31-.73.88,1,.66,1.53.54,3-.22,2.44.2,1.44.71,2.89.85,2.35.11,5,.06,7.26a2.39,2.39,0,0,0,.28,1.41c.51,1.08.28,1.93.31,3.26a8.93,8.93,0,0,0,.68,3,7.94,7.94,0,0,0,1.45,2.5c-.06-3.46-.57-3.24,1.67-5l-.31-2.1-.45,1.16a11.59,11.59,0,0,1,.28-4.62c.23-1.33,1.42-1.59,2.3-2.41l.28-.31c-1.11-1-1.73-.34-1.67-3.94,0-1.56.14-3.69.88-4.85l1,2.55c1.22-4.62-.15-6-.29-8.56-.2-3,.71-3.37-.45-6.4-.34-.88-.54-.83-1.42-1.08.26-.45,0-.09.37-.48l1.42-1.05c-.14-.88-.51-1.79-.6-2.58a9.05,9.05,0,0,1,.54-2.61c.14-1-.85-1.08-.91-2,0-.48.4-2,.49-2.69l-1-.32c.4-2.26,1.28-2,1.76-3.51l1.25.31c.54-1.47.59-1.44,2.41-1.61l.51,1.64.79-1.81,3.2-.12-.9-.54.62-1.27c1.11,0,1,.28,1.76-.26s.54-.62,1.61-.73l-.53,1.41-1.9-.17-.12.83c1.45.73,2-.37,3.92-.66l.34-.05c.05,0,.11,0,.17-.06l.73-2.21c1.9.37,1,1,2.92-.23,1.39-.88,7-4.28,8.19-4.79a18.84,18.84,0,0,0-3.11,1.67Zm-22-67.35a18.65,18.65,0,0,0-.87-2.58c-.37-1.13.45-1.28,1-2s.17-.4.4-1.08c.34-1,.77-.43,1.16-3.69,1.19.09,5.81.17,6.64,1.17.39.51.14.11.39.7l-2-.11c.45,1,.14,1.08,1.42,1.36a6.74,6.74,0,0,1,2.21.68l-1.16.26c.93.17,2,.28,2.94.48,1.42.31.68,1.16,1.7,1.76.63.37,1.76.42,2.53.9l1.44,1.08-.28.45A25.07,25.07,0,0,1,126.57,73c1,.77,1.05,1.73,1.67,3s2,.85,2.64,2.07c.34.65-.12.37.59.68.45.2.51,0,.79.31.09.08.4,1.84.63,1.42,0,0,.08,0,.08,0L132,81l.59.34c1.9,1.14,1.25,2.67,1.2,3.8a9.94,9.94,0,0,1,3.6,4.31,3.65,3.65,0,0,0-1.39.77l.93.28c-.2.79,0,.48-.54.82l.37.43c.34.51.29.56.29,1.33-1.17-.74-1.17-1.11-1.42-2.89-2.3.28-.94,1.75-.31,2.66,1.5,2.16-.85,1.62,1,3.15l.45-.71c.2-.4,0-.17.29-.57l.45,1.62-2.18.54,1.58.9c-2.69.29-1.27,0,0,2.36-.28.76-1.24,1.84-1.33,2.52-.11,1.42,1,1.79,1.16,2.55.4,1.62-1.05,1.22-.9,2.84.08,1.24.59,2,.14,3.14-.48.17-.82-1-1,1.53l1,.4c0,1.47-.37,1.47-1,2.35a2,2,0,0,0-.43.8l1.08-.37a28.93,28.93,0,0,1-1.84,2.92c-1.87,2.75-2.78,1.39-3.6,3.77-1.56,4.33-1.08,3.23-3.63,3.09a7.31,7.31,0,0,1-5.27,2.83l-.29,1.14c-1.1,0,.17-.35-1.24-.23l-.26,1.1-1.67.12c-.37,1-.74.88-1.5,1.36-.68-.31.22-1.11-.85-.14a6.28,6.28,0,0,1-3.35,2.12c.23.65.31.43.37.88l-2.27,1.25c.17-.57.12,0,.14-.63s0-.36-.11-.53l-2.3,1.19.2-9.56-.76,1.25s-.06.09-.09.11c-.76-4.9-.11-3.88-.17-5.89l-1.41-.6a17.06,17.06,0,0,1,.17-4,17.94,17.94,0,0,0,.87-3.29l-.87.77.25-3c-.54-.25.23-.17-.34,0s.14.23-.23.14l1.7-12.36c.32-1.19.94-2.38,1.14-3.6l-1.22.77a21.44,21.44,0,0,1,1.39-2.69c1.39-2.58.45-1.25.45-2.87A19.63,19.63,0,0,1,110,88.47c.54-1.76-.17-1.67,1.65-2.33-.2-.34,0-.28-.6-.59a1.15,1.15,0,0,0-.88-.17c-.57.06-1,.34-1.81.42l0-4.62-.82-.68.31-3.45a10.25,10.25,0,0,0-1.28.73,7.58,7.58,0,0,1-1.27-1.58c-1.14-1.68-1.48-1.76-1-4a3.4,3.4,0,0,1,1.07-1.65Zm.54-5.44s.09.08.09.08ZM66.1,87.34c.51-2,.43-1.73-.14-3.41a.2.2,0,0,1,.09,0l.59.14c.65-3.55.4-.65,2.41-3.55,1.7-2.38,1.28-.65.54-3.82l1.25-1c.37.9.34.68.56.88,1.93-4.2.6-2.81,2.58-3.72,1.22-.56,1.51-2.95,2.5-3.88l.23,1.39a5.29,5.29,0,0,0,1-.23,3.27,3.27,0,0,0,.54-.2c.54-.25.14-.05.43-.28l-1-1c1-.65.65.37,2.41.42-.09-1.13-.6-1.92.08-2.77,2.1-2.7,2.3-3.8,5.36-4.54l-1,2a17.14,17.14,0,0,0,1.75-.93,5.07,5.07,0,0,1,2.38-.23l.29-.68s0-.08.08-.11l5.13.08c.32,1.14-.11,1.19-.71,1.59.06.65.26,1.33.26,1.93,0,1-.31.56.14.82L95,76.37c.39,1.64,1.5,0,1.07,2.23l-1.7-.7L95,79.8c-1.68,2.15-2.58.36-2.1,4.13a1.2,1.2,0,0,0,.88,1.22c0,2.27,0,1.45.91,2.92l-.57.4c-.2.11-.17,0-.45.2.82.93,1.33,1.9,2.18,2.89l-1,.74.6.25c.11,0,0-.11.4.06,0,1-.15,2.41-.29,3.48a5.22,5.22,0,0,1-1.19,2.36c.63.11.29,0,.65.39-1.19,1.53-1,5.45-.87,7.69l.25-1.14c.11,1.19.09,2.5.23,3.63s.65,1.67.82,2.72c.54,3-.14,2.44.11,3.35s.48,0,.34,1.47a9.71,9.71,0,0,0-.17,1.62l.77-.49v4.8c-.6-.29-.31,0-.71-.57,0,1,.54,1.36.31,2.29a6.9,6.9,0,0,0,0,2.61L95,126.37l.54,6.55-1.36-1a13.13,13.13,0,0,1,0,2.81c-.28,1-.31.08-.4,2.41-1.81.17-1.33-.68-2.32-.91a11.55,11.55,0,0,0-2.67.34c-.53-.65-.87-1.47-2-1.64-3.74-.6-2.81-.68-4.71-2.3a12.07,12.07,0,0,0-2.32-1c-.57-1.13.2-1.13-1.11-1.84-3-1.67-3.82-1.39-3.88-4.39a4.49,4.49,0,0,0-1.16.48c-.37-.4-.77-.8-1.22-1.36-2.55-3-2.61-2.44-2.69-5l-2-1,0-1.19-1.1-.26,1.3-.7-2.38-1.39c-.17-1.68-.62-1.51-.77-2.33-.11-.62.09-.79-.08-1.36-.09-.31-.37-.51-.51-.76l.54-1-1.34-.26,1.56-.62c-.79-1.62-1.9-.65-2.15-1.73.54-.45,1.22-.06,2.1,0,.25-2.83-1.31-.93-1.34-5.78l-2.06-.68.22-2.24a.32.32,0,0,0,.17,0,2.28,2.28,0,0,0,1.33-.48c.09.2.09.34.2.62l.34.6c.77-1.48,1.25-2.44-.34-3.55l.8-.51c.17-.14.22,0,.39-.7.57-2.44.09-2.1-1.36-4.51l.14-.06,1.17-.28C64.37,88,64,88,63.38,87.36a16,16,0,0,1,1.76-2.18Z" transform="translate(-48.38)"
  />
</svg>
