<svg viewBox="0 0 161.25925 53.349052">
  <path
    fill="currentColor"
    class="castle"
    d="m 5.8802515,46.789618 0.049046,-1.39398 h 29.1469115 29.14691 l 0.04908,1.39398 0.04908,1.39399 H 35.076233 5.8311737 Z M 7.5345141,30.610958 V 16.755594 h 9.0397669 9.039768 v 5.406966 5.406959 h 1.938078 1.93808 l 0.04729,-2.154339 0.04729,-2.154332 1.731917,-0.04815 1.731918,-0.04815 v 2.20249 2.20249 h 2.027611 2.027612 v -2.20249 -2.20249 l 1.731917,0.04815 1.731918,0.04815 0.04729,2.154332 0.04729,2.154339 h 1.93808 1.938078 V 22.16256 16.755594 h 9.039767 9.039766 v 13.855334 13.85536 H 50.790219 38.962488 v -4.97316 c 0,-4.82476 -0.01009,-4.97636 -0.337936,-5.08041 -0.185864,-0.059 -0.337935,-0.21965 -0.337935,-0.35701 0,-0.27733 -0.737111,-1.07922 -0.992044,-1.07922 -0.08941,0 -0.194248,-0.095 -0.232971,-0.21121 -0.0508,-0.1524 -0.60359,-0.21121 -1.985369,-0.21121 -1.38178,0 -1.934569,0.0588 -1.985369,0.21121 -0.03873,0.11617 -0.143559,0.21121 -0.232971,0.21121 -0.254933,0 -0.992044,0.80189 -0.992044,1.07922 0,0.13736 -0.152071,0.29801 -0.337936,0.35701 -0.327851,0.10405 -0.337935,0.25565 -0.337935,5.08041 v 4.97316 H 19.362246 7.5345141 Z M 17.672569,21.655689 V 18.4453 h -1.267254 -1.26726 v 3.210389 3.210382 h 1.26726 1.267254 z m 37.341842,0 V 18.4453 h -1.267257 -1.267257 v 3.210389 3.210382 h 1.267257 1.267257 z M 5,10.419306 V 5.265795 h 2.1965831 2.196576 v 2.787969 2.787962 h 2.2810589 2.281066 V 8.053764 5.265795 l 4.90006,0.01616 v 2.779903 2.779903 h 2.365546 2.365547 V 8.053799 5.26583 h 2.281063 2.281062 v 5.153511 5.153511 H 16.574281 5 Z m 37.003905,0 V 5.265795 h 2.281062 2.281063 v 2.787969 2.787962 h 2.365547 2.365546 V 8.053764 5.265795 h 2.45003 2.45003 v 2.787969 2.787962 h 2.281063 2.281063 V 8.053764 5.265795 h 2.196578 2.196579 v 5.153511 5.153517 H 53.578185 42.003905 Z"
  />
  <path
    fill="currentColor"
    class="font"
    d="m 68.344707,24.446037 q -0.444643,-0.220287 -0.666975,-0.685333 -0.22232,-0.465044 -0.22232,-1.027999 0,-0.709805 0.374446,-1.284996 0.374444,-0.575192 1.170127,-0.59967 V 9.319775 L 68.321308,8.609966 Q 67.876663,8.389682 67.642635,7.912397 67.408608,7.435109 67.408608,6.872156 q 0,-0.709811 0.397844,-1.284997 0.39785,-0.575192 1.146729,-0.575192 h 6.365535 q 0.538262,0 0.8659,0.232524 0.327639,0.232523 0.491451,0.575191 l 1.076539,1.125903 q 0.257422,0.269242 0.351034,0.624141 0.09361,0.354906 0.09361,0.746524 0,0.685333 -0.315936,1.260523 -0.315943,0.575192 -1.158443,0.575192 h -1.895603 v 10.696074 h 4.189079 q 0.514856,-0.685332 1.802006,-0.685332 0.608472,0 1.123328,0.281477 0.514861,0.281478 0.702084,0.697569 l 0.959507,1.052478 0.140416,0.0979 q 0.327639,0.342665 0.327639,0.734282 v 1.174855 q 0,0.685333 -0.386142,1.236046 -0.386154,0.550715 -1.088225,0.550715 H 70.404148 q -0.585062,0 -0.982912,-0.416097 z M 72.908244,8.144918 h 2.410472 q 0.538262,0 0.74889,-0.403854 0.210622,-0.403859 0.210622,-0.893385 0,-0.489522 -0.210622,-0.856665 -0.210628,-0.367142 -0.74889,-0.367142 h -6.365535 q -0.468057,0 -0.71378,0.379378 -0.245727,0.379384 -0.245727,0.868906 0,0.489527 0.245727,0.881145 0.245723,0.391617 0.71378,0.391617 h 0.631878 v 13.315025 h -0.585074 q -0.468054,0 -0.713779,0.391618 -0.245726,0.39162 -0.245726,0.881144 0,0.48952 0.245726,0.868904 0.245725,0.379381 0.713779,0.379381 h 12.192812 q 0.46805,0 0.713781,-0.379381 0.245725,-0.379384 0.245725,-0.868904 v -1.174858 q 0,-0.318185 -0.397846,-0.550712 -0.397838,-0.232524 -0.936105,-0.232524 -0.608477,0 -1.006312,0.183572 -0.397844,0.18357 -0.44465,0.50176 h -6.459146 z"
  />
  <path
    fill="currentColor"
    class="font"
    d="m 89.245322,11.95433 q 0,-0.397422 -0.219578,-0.73209 -0.219592,-0.33467 -0.637949,-0.33467 h -1.003978 q -0.418358,0 -0.627593,0.33467 -0.209127,0.334668 -0.209127,0.73209 0,0.397402 0.209127,0.721594 0.209235,0.324221 0.627593,0.324221 h 1.003978 q 0.418357,0 0.637949,-0.324221 0.219578,-0.324192 0.219578,-0.721594 z m 0.690275,12.319908 q 0.439219,0 0.658929,-0.313764 0.219577,-0.313736 0.219577,-0.732088 0,-0.41833 -0.219577,-0.742538 -0.21971,-0.324188 -0.658929,-0.324188 h -0.522949 v -7.258111 q 0,-0.167308 -0.01108,-0.355567 -0.01114,-0.18826 -0.09416,-0.355573 -0.08366,-0.167356 -0.240521,-0.282377 -0.156842,-0.115044 -0.470605,-0.115044 h -2.614564 q -0.439256,0 -0.637955,0.324219 -0.198699,0.324183 -0.198699,0.742538 0,0.418326 0.198699,0.732064 0.198699,0.313747 0.637955,0.313747 h 0.522901 v 6.254104 h -0.522901 q -0.439256,0 -0.637955,0.324188 -0.198699,0.324208 -0.198699,0.742538 0,0.418352 0.198699,0.732088 0.198699,0.313764 0.637955,0.313764 z m -4.559788,0.397415 q -0.397498,-0.188259 -0.575247,-0.575219 -0.177773,-0.386956 -0.177773,-0.868048 0,-0.606577 0.313726,-1.087663 0.313709,-0.481085 1.045774,-0.501987 -0.0202,-1.213167 -0.03134,-2.39497 -0.01114,-1.181784 -0.03134,-2.394952 l -0.522975,-0.522928 q -0.418354,-0.167318 -0.596135,-0.575188 -0.177775,-0.407874 -0.177775,-0.888953 0,-0.606582 0.324238,-1.098155 0.324217,-0.491531 1.035296,-0.491531 h 0.606593 q -0.292802,-0.230064 -0.428793,-0.575186 -0.13599,-0.345141 -0.13599,-0.742543 0,-0.585682 0.334717,-1.087675 0.334733,-0.502013 1.025,-0.502013 h 1.003979 q 0.418354,0 0.711103,0.209162 0.292875,0.209163 0.460141,0.543831 l 0.941333,0.920355 q 0.460191,0.460174 0.460191,1.171316 0,0.376521 -0.146464,0.721638 -0.14645,0.34512 -0.439276,0.554284 l 0.418324,0.418321 q 0.251026,0.251016 0.292856,0.606587 0.04223,0.355593 0.04223,0.648432 v 6.170405 q 0,0.02107 0.04223,0.0628 l 0.878492,0.899413 q 0,-0.02104 -0.01099,-0.02104 -0.01102,0 -0.01102,-0.02101 l 0.0629,0.0628 q 0.230068,0.230115 0.334533,0.533387 0.104636,0.303316 0.104636,0.637979 0,0.585642 -0.334733,1.045807 -0.33453,0.460182 -1.003978,0.460182 h -3.953216 q -0.543846,0 -0.878449,-0.334668 z"
  />
  <path
    fill="currentColor"
    class="font"
    d="m 94.812633,24.61777 q -0.412707,-0.173774 -0.619067,-0.586486 -0.206357,-0.412712 -0.206357,-0.91231 0,-0.434435 0.184637,-0.836286 0.18463,-0.401851 0.532177,-0.64079 V 15.842207 Q 94.399926,15.603269 94.247866,15.234 q -0.15205,-0.369269 -0.15205,-0.803703 0,-0.347547 0.17378,-0.738537 0.17377,-0.390991 0.456147,-0.629929 0.10861,-1.433632 0.673367,-2.508856 0.564767,-1.075223 1.444491,-1.802899 0.879717,-0.727678 1.965807,-1.086085 1.08608,-0.358409 2.237332,-0.358409 0.97748,0 1.90065,0.271522 0.92317,0.271521 1.59654,0.705954 0.23894,0.173775 0.40185,0.36927 0.16292,0.195495 0.29325,0.369269 l 0.84715,0.847145 0.13033,0.108609 q 0.26065,0.26066 0.40185,0.543043 0.14119,0.282381 0.14119,0.52132 0,0.369268 -0.20636,0.705955 -0.20636,0.336686 -0.31497,0.488738 l -0.43443,0.412711 q -0.4996,0.477878 -0.93403,0.934034 -0.4996,0.434433 -1.07523,0.304103 -0.57562,-0.13033 -1.03177,-0.564763 l -0.97748,-0.977477 q -0.10861,-0.06516 -0.1955,-0.13033 -0.0869,-0.06516 -0.17377,-0.152052 -0.45615,0.26066 -0.78198,0.716816 h 0.26066 q 0.43444,0 0.73854,0.206356 0.3041,0.206356 0.47788,0.532182 l 0.99919,0.999197 q 0.23894,0.238939 0.34755,0.553904 0.10861,0.314963 0.10861,0.662511 0,0.608207 -0.34755,1.086084 -0.34755,0.477878 -1.02092,0.477878 h -2.12872 v 4.192285 q 0.58648,0.130331 0.91231,0.695094 l 0.97747,0.977476 q 0,-0.02172 -0.0109,-0.02172 -0.0109,0 -0.0109,-0.02172 l 0.0652,0.06517 q 0.23894,0.238938 0.34755,0.564763 0.10861,0.325825 0.10861,0.673373 0,0.608207 -0.34755,1.086084 -0.34755,0.477878 -0.9992,0.477878 h -4.387779 q -0.543034,0 -0.912304,-0.36927 z m 6.646817,-14.271151 h 0.0434 q -0.3041,0.260661 -0.17377,0.640791 0.13033,0.380129 0.43443,0.662511 0.32582,0.347547 0.73853,0.467016 0.41272,0.11947 0.73855,-0.184634 0.32582,-0.347547 0.68422,-0.695094 0.35842,-0.347547 0.70596,-0.695094 h -0.0217 q 0.0869,-0.108609 0.22808,-0.325825 0.14119,-0.217217 0.14119,-0.477877 0,-0.195496 -0.14119,-0.445295 -0.14119,-0.2498 -0.42357,-0.467017 -0.67337,-0.434434 -1.56396,-0.705955 -0.89059,-0.271521 -1.8029,-0.271521 -1.064362,0 -2.085282,0.347547 -1.02092,0.347547 -1.824627,1.031781 -0.803697,0.684233 -1.314154,1.726874 -0.510457,1.042641 -0.575617,2.411107 -0.282387,0.152053 -0.445297,0.456156 -0.16291,0.304104 -0.16291,0.608207 0,0.347548 0.15205,0.651652 0.15205,0.304102 0.456157,0.412711 v 6.538229 q -0.369267,0.06516 -0.543047,0.39099 -0.173767,0.325825 -0.173767,0.695095 0,0.434433 0.228067,0.760258 0.22809,0.325825 0.662517,0.325825 h 4.387768 q 0.434432,0 0.651652,-0.325825 0.21722,-0.325825 0.21722,-0.760258 0,-0.434435 -0.21722,-0.771121 -0.21722,-0.336686 -0.651652,-0.336686 h -1.52052 v -6.494785 h 2.606612 q 0.43443,0 0.6625,-0.325826 0.22808,-0.325825 0.22808,-0.760259 0,-0.434433 -0.22808,-0.77112 -0.22807,-0.336685 -0.6625,-0.336685 h -2.606612 q 0.0217,-0.847147 0.28238,-1.466215 0.26066,-0.619068 0.65165,-1.020919 0.39099,-0.401852 0.868872,-0.586486 0.47788,-0.184634 0.95576,-0.184634 0.32582,0 0.65165,0.08689 z"
  />
  <path
    fill="currentColor"
    class="font"
    d="m 104.4496,18.906352 q 0,-1.469025 0.51008,-2.580999 0.51008,-1.111967 1.3364,-1.856679 0.82633,-0.744717 1.88729,-1.122172 1.06097,-0.377462 2.18314,-0.377462 1.3058,0 2.49938,0.612096 1.19358,0.612096 2.00971,1.611846 l 0.6733,0.673307 q 0.22444,0.244834 0.42846,0.510077 0.20404,0.265237 0.36726,0.550884 l 0.0816,0.06118 q 0.10202,0.163224 0.17343,0.397865 0.0714,0.234635 0.0714,0.397859 0,0.448865 -0.28564,0.867134 -0.28564,0.418263 -0.69371,0.581487 h -0.0204 l -0.91814,0.408064 q 0.55088,0.285641 1.04056,0.938545 l 0.83653,0.816121 h -0.0204 l 0.0408,0.02044 q 0.16323,0.163224 0.29585,0.336654 0.13262,0.173423 0.27544,0.377455 -0.36725,0.958948 -0.95895,1.683256 -0.59169,0.724313 -1.3364,1.203788 -0.74471,0.479474 -1.60165,0.724307 -0.85693,0.24484 -1.73426,0.24484 -1.18338,0 -2.28515,-0.408064 -1.10177,-0.408058 -1.9587,-1.264993 l -0.6529,-0.632494 q -0.99975,-0.734512 -1.62205,-1.928095 -0.62229,-1.193583 -0.62229,-2.846236 z m 0.51008,0 q 0,1.346602 0.45907,2.356557 0.45907,1.009955 1.22419,1.693461 0.76512,0.683506 1.73427,1.020153 0.96914,0.336654 1.9893,0.336654 0.81612,0 1.60164,-0.214231 0.78552,-0.21423 1.45883,-0.632499 0.6733,-0.418263 1.21398,-1.050756 0.54069,-0.6325 0.84673,-1.469025 -0.34685,-0.48968 -0.78552,-0.795724 -0.43867,-0.306045 -1.05076,-0.306045 -0.32645,0 -0.81612,0.122416 -0.32645,1.162981 -1.02016,1.724064 -0.69371,0.561083 -1.44862,0.561083 -0.71411,0 -1.39761,-0.479468 -0.68351,-0.479474 -0.98955,-1.540435 1.63225,-0.693711 3.16248,-1.326205 1.53023,-0.6325 3.16248,-1.326204 h -0.0204 q 0.30605,-0.102013 0.51008,-0.408064 0.20403,-0.306045 0.20403,-0.61209 0,-0.265243 -0.18363,-0.550884 -0.6937,-1.203788 -1.86688,-1.866891 -1.17318,-0.663096 -2.581,-0.663096 -1.02016,0 -1.9893,0.346853 -0.96915,0.346852 -1.73427,1.020153 -0.76512,0.673301 -1.22419,1.693461 -0.45907,1.020154 -0.45907,2.366762 z m 5.40683,-3.346114 q 0.89773,0 1.53023,0.816128 -0.71411,0.285641 -1.2752,0.530481 -0.56108,0.244833 -1.21398,0.53048 -0.38766,0.163224 -0.76512,0.326449 -0.37745,0.163224 -0.78552,0.326448 0.12243,-0.612089 0.37747,-1.091563 0.25503,-0.479475 0.59168,-0.795724 0.33665,-0.31625 0.73451,-0.479475 0.39787,-0.163224 0.80593,-0.163224 z m 1.44862,5.284408 q -0.48968,0.224436 -0.94875,0.408064 -0.45907,0.183628 -1.05076,0.428468 0.26525,0.06118 0.55089,0.06118 0.36725,0 0.74471,-0.214231 0.37746,-0.214231 0.70391,-0.683506 z"
  />
  <path
    fill="currentColor"
    class="font"
    d="m 131.36778,41.402258 q 0,-1.43915 0.49969,-2.5285 0.4997,-1.08936 1.30922,-1.81892 0.80952,-0.72957 1.8489,-1.09935 1.03938,-0.36979 2.13873,-0.36979 1.27924,0 2.44854,0.59965 1.1693,0.59964 1.96883,1.57907 l 0.65961,0.65961 q 0.21987,0.23985 0.41975,0.4997 0.19988,0.25985 0.35978,0.53968 l 0.08,0.0599 q 0.0999,0.1599 0.16989,0.38977 0.07,0.22986 0.07,0.38976 0,0.43974 -0.27983,0.8495 -0.27983,0.40975 -0.6796,0.56966 h -0.0199 l -0.89947,0.39976 q 0.53968,0.27983 1.01939,0.91945 l 0.81952,0.79953 h -0.0199 l 0.04,0.0199 q 0.15991,0.15991 0.28983,0.3298 0.12992,0.1699 0.26984,0.36978 -0.35979,0.93945 -0.93944,1.64902 -0.57966,0.70958 -1.30922,1.1793 -0.72957,0.46972 -1.56907,0.70957 -0.8395,0.23986 -1.69898,0.23986 -1.15932,0 -2.23868,-0.39976 -1.07935,-0.39975 -1.91885,-1.23926 l -0.63962,-0.61963 q -0.97942,-0.71957 -1.58906,-1.88888 -0.60963,-1.1693 -0.60963,-2.78833 z m 0.49969,0 q 0,1.31921 0.44974,2.30862 0.44973,0.98941 1.19928,1.65901 0.74955,0.66961 1.69899,0.99941 0.94944,0.3298 1.94884,0.3298 0.79953,0 1.56907,-0.20987 0.76954,-0.20988 1.42914,-0.61964 0.65961,-0.40975 1.18929,-1.02938 0.52969,-0.61963 0.82951,-1.43914 -0.3398,-0.47972 -0.76954,-0.77954 -0.42974,-0.29982 -1.02939,-0.29982 -0.31981,0 -0.79952,0.11993 -0.31982,1.13932 -0.99941,1.68899 -0.67959,0.54967 -1.41915,0.54967 -0.69958,0 -1.36919,-0.46972 -0.66959,-0.46972 -0.96942,-1.50909 1.59905,-0.67961 3.09816,-1.29923 1.49911,-0.61963 3.09816,-1.29923 h -0.0201 q 0.29982,-0.0999 0.4997,-0.39976 0.19989,-0.29982 0.19989,-0.59964 0,-0.25985 -0.1799,-0.53968 -0.67959,-1.17931 -1.82892,-1.82893 -1.14931,-0.64961 -2.52849,-0.64961 -0.9994,0 -1.94883,0.3398 -0.94944,0.33979 -1.699,0.99941 -0.74955,0.65961 -1.19928,1.65902 -0.44973,0.9994 -0.44973,2.31862 z m 5.29685,-3.27805 q 0.87948,0 1.49911,0.79952 -0.69958,0.27984 -1.24926,0.51969 -0.54967,0.23986 -1.18929,0.51969 -0.37978,0.15991 -0.74955,0.31981 -0.36978,0.1599 -0.76954,0.31981 0.11992,-0.59964 0.36977,-1.06936 0.24986,-0.46972 0.57966,-0.77954 0.3298,-0.30982 0.71957,-0.46972 0.38976,-0.1599 0.78953,-0.1599 z m 1.41915,5.17691 q -0.47971,0.21987 -0.92944,0.39976 -0.44974,0.1799 -1.02939,0.41976 0.25985,0.0599 0.53968,0.0599 0.35978,0 0.72957,-0.20987 0.36978,-0.20987 0.68958,-0.6696 z"
  />
  <path
    fill="currentColor"
    class="font"
    d="m 77.10795,33.405388 q -0.0662,0.11044 -0.09943,0.17671 -0.03314,0.0663 -0.03314,0.15463 0,0.17671 0.165683,0.40865 0.16567,0.23194 0.386529,0.40867 0.198802,0.17668 0.497024,0.3313 0.298228,0.15467 0.541209,0.15467 0.46386,0 0.618508,-0.2651 l -0.04432,0.0219 1.612509,-1.96599 q 0.154616,-0.2209 0.154616,-0.35343 0,-0.30925 -0.408658,-0.86149 -0.408658,-0.55224 -1.104419,-1.08239 -0.695818,-0.53015 -1.65674,-0.92775 -0.960871,-0.39761 -2.043283,-0.39761 -1.502074,0 -2.893711,0.46387 -1.391644,0.46389 -2.474005,1.49105 -1.082406,1.02715 -1.722984,2.68387 -0.640578,1.65669 -0.640578,4.02025 0,2.3636 0.563267,4.02031 0.563273,1.65668 1.546259,2.68386 0.98298,1.02716 2.308322,1.49107 1.325394,0.46383 2.827467,0.46383 1.126541,0 2.175828,-0.2761 1.04923,-0.27611 1.932796,-0.88356 0.883611,-0.60745 1.568375,-1.55731 0.684758,-0.94987 1.082374,-2.2752 -0.441796,-0.75106 -1.082374,-1.06029 -0.640578,-0.30929 -1.789241,-0.30929 -0.220917,1.10447 -0.607453,1.8776 -0.386594,0.77313 -0.905681,1.27016 -0.519088,0.49702 -1.115531,0.71788 -0.596393,0.22092 -1.259093,0.22092 -0.839373,0 -1.579378,-0.34241 -0.740004,-0.34236 -1.303278,-1.10446 -0.563318,-0.76209 -0.894614,-1.97699 -0.331353,-1.21491 -0.331353,-2.96002 0,-1.74506 0.397597,-2.95995 0.397597,-1.21493 1.038226,-1.97702 0.640578,-0.76208 1.468949,-1.10447 0.828319,-0.34239 1.689814,-0.34239 0.684764,0 1.148656,0.26508 0.463905,0.26507 0.971932,0.8394 z m 0.331296,1.78924 q -0.08831,-0.0663 -0.165638,-0.12149 -0.07747,-0.055 -0.12151,-0.12148 -0.309244,-0.24299 -0.5191,-0.58538 -0.209857,-0.34239 -0.209857,-0.62955 0,-0.17672 0.02191,-0.24299 0.02191,-0.0663 0.0662,-0.15462 -0.706879,0.0883 -1.358518,0.46387 -0.651639,0.37553 -1.148656,1.08236 -0.496966,0.70688 -0.795194,1.76717 -0.298228,1.0603 -0.298228,2.5403 0,1.39165 0.209862,2.40775 0.209856,1.01611 0.585389,1.72299 0.662694,0.37554 1.502067,0.37554 0.552213,0 1.071358,-0.22093 0.519081,-0.22091 0.971925,-0.71788 0.452844,-0.49702 0.806249,-1.27015 0.353475,-0.77313 0.574334,-1.8776 1.480009,0 2.341505,0.36447 0.861489,0.36447 1.457887,1.22597 l 0.795245,0.79519 q 0.331296,0.33135 0.596399,0.79525 -0.441783,1.48001 -1.181788,2.52924 -0.740004,1.04923 -1.689865,1.72299 -0.949803,0.6737 -2.076402,0.98298 -1.12654,0.30923 -2.341447,0.30923 -1.590496,0 -2.960018,-0.4639 -1.369522,-0.46384 -2.429813,-1.52413 l -0.640636,-0.64063 q -1.413701,-1.03818 -2.253133,-2.9379 -0.839373,-1.89967 -0.839373,-4.90388 0,-2.51818 0.695819,-4.27428 0.695818,-1.7561 1.844481,-2.84954 1.148662,-1.09342 2.639669,-1.590441 1.49107,-0.497004 3.103573,-0.497004 0.905675,0 1.722991,0.265065 0.817309,0.26508 1.513128,0.68478 0.695825,0.4197 1.225973,0.90566 0.530142,0.48597 0.861489,0.94985 l 0.618514,0.6185 h -0.0219 l 0.04432,0.0221 q 0.50809,0.50805 0.78419,0.96089 0.276107,0.45283 0.276107,0.73999 0,0.17672 -0.06621,0.32031 -0.0662,0.14358 -0.198795,0.34239 l -1.524189,1.89965 q -0.309238,0.48597 -1.03822,0.48597 -0.309238,0 -0.717902,-0.18774 -0.408651,-0.18774 -0.651626,-0.43078 -0.06621,-0.0443 -0.198802,-0.17667 z"
  />
  <path
    fill="currentColor"
    class="font"
    d="m 88.045281,41.412848 q 0,-0.81823 0.2295,-1.42691 0.229507,-0.60868 0.588729,-1.01779 0.359223,-0.40912 0.808248,-0.61867 0.449031,-0.20954 0.88808,-0.20954 0.43905,0 0.898057,0.20954 0.459006,0.20955 0.828204,0.61867 0.369204,0.40911 0.598704,1.01779 0.229506,0.60868 0.229506,1.42691 0,0.81823 -0.229506,1.43689 -0.2295,0.61866 -0.598704,1.02778 -0.369198,0.40911 -0.828204,0.60868 -0.459007,0.19957 -0.898057,0.19957 -0.439049,0 -0.88808,-0.19957 -0.449025,-0.19957 -0.808248,-0.60868 -0.359222,-0.40912 -0.588729,-1.02778 -0.2295,-0.61866 -0.2295,-1.43689 z m -2.773995,0 q 0,1.31715 0.449024,2.30502 0.449032,0.98785 1.197409,1.65641 0.748383,0.66855 1.696328,0.99783 0.947951,0.32929 1.945791,0.32929 1.017797,0 1.975724,-0.32929 0.957927,-0.32928 1.706304,-0.99783 0.748383,-0.66856 1.207389,-1.65641 0.459007,-0.98787 0.459007,-2.30502 0,-1.31715 -0.459007,-2.31499 -0.459006,-0.99784 -1.207389,-1.65641 -0.748377,-0.65858 -1.706304,-0.99785 -0.957927,-0.33926 -1.975724,-0.33926 -0.99784,0 -1.945791,0.33926 -0.947945,0.33927 -1.696328,0.99785 -0.748377,0.65857 -1.197409,1.65641 -0.449024,0.99784 -0.449024,2.31499 z m -0.498921,0 q 0,-1.43689 0.498921,-2.52454 0.49892,-1.08764 1.307167,-1.81606 0.808254,-0.72843 1.846008,-1.09763 1.037753,-0.36921 2.135377,-0.36921 1.396977,0 2.674212,0.57875 1.277236,0.57875 2.115421,1.73625 l 0.618661,0.59871 q 0.718445,0.71844 1.147513,1.73624 0.429073,1.01779 0.429073,2.3549 0,1.43689 -0.498918,2.50458 -0.49892,1.06769 -1.307174,1.78613 -0.808248,0.71845 -1.846001,1.07767 -1.037754,0.35922 -2.135378,0.35922 -1.157495,0 -2.235162,-0.39913 -1.077668,-0.39914 -1.915853,-1.23733 l -0.638618,-0.61866 q -0.977884,-0.71844 -1.586569,-1.88591 -0.60868,-1.16748 -0.60868,-2.78398 z m 4.909374,1.19741 q 0,0.83819 0.239482,1.43689 0.279395,0.1397 0.638617,0.1397 0.359223,0 0.728421,-0.16963 0.369204,-0.16964 0.668556,-0.51889 0.299352,-0.34924 0.478963,-0.86811 0.179611,-0.51888 0.179611,-1.21737 0,-0.89805 -0.319309,-1.53667 -0.299352,-0.0998 -0.538833,-0.0998 -0.359223,0 -0.728427,0.17961 -0.369198,0.17962 -0.66855,0.53884 -0.299352,0.35922 -0.488944,0.88808 -0.189587,0.52885 -0.189587,1.22734 z"
  />
  <path
    fill="currentColor"
    class="font"
    d="m 98.379698,38.171108 q -0.34059,0 -0.51089,0.25545 -0.1703,0.25545 -0.1703,0.59604 0,0.3406 0.1703,0.60456 0.1703,0.26396 0.51089,0.26396 h 0.45981 v 3.33785 q 0,1.02178 0.35762,1.73704 0.35763,0.71525 0.953682,1.14951 0.59604,0.43426 1.37941,0.6301 0.78337,0.19584 1.63486,0.19584 0.81743,0 1.31129,-0.12772 0.49387,-0.12773 0.85149,-0.31505 0.15327,0.18732 0.5109,0.18732 h 2.11169 q 0.37466,0 0.53644,-0.26396 0.16178,-0.26396 0.16178,-0.60456 0,-0.34059 -0.16178,-0.59604 -0.16178,-0.25544 -0.53644,-0.25544 h -0.40871 v -5.07489 h 0.40871 q 0.37466,0 0.53644,-0.26396 0.16178,-0.26396 0.16178,-0.60456 0,-0.34059 -0.16178,-0.59604 -0.16178,-0.25545 -0.53644,-0.25545 h -2.82695 q -0.34059,0 -0.5194,0.25545 -0.17882,0.25545 -0.17882,0.59604 0,0.3406 0.17882,0.60456 0.17881,0.26396 0.5194,0.26396 h 0.0511 v 4.29151 q -0.34059,0.44278 -0.78336,0.73229 -0.44278,0.2895 -1.22615,0.2895 -0.37466,0 -0.73228,-0.0851 -0.35763,-0.0851 -0.63011,-0.30653 -0.27247,-0.22139 -0.43426,-0.60456 -0.16178,-0.38317 -0.16178,-0.97921 v -3.33785 q 0.30654,-0.034 0.46832,-0.2895 0.16179,-0.25545 0.16179,-0.57902 0,-0.34059 -0.17882,-0.59604 -0.17881,-0.25545 -0.53644,-0.25545 z m 2.741802,-0.42574 q 0.37466,0 0.61308,0.1703 0.23841,0.1703 0.37465,0.44277 l 0.76634,0.74931 q 0.35763,0.35763 0.35763,0.93664 0,0.39169 -0.14475,0.69823 -0.14476,0.30653 -0.48535,0.44277 v 3.06536 0.25545 q 0,0 0.034,0.22139 0.13623,0.034 0.26396,0.0426 0.12772,0.008 0.26396,0.008 0.59604,0 0.96218,-0.20436 0.36615,-0.20436 0.62159,-0.52792 v -0.42575 q 0,0 -0.008,-0.51941 -0.008,-0.51941 -0.008,-0.50238 v -0.40871 q -0.0171,-0.40872 -0.0171,-0.92813 0,-0.5194 -0.0171,-0.99624 l -0.0681,-0.0681 q -0.32357,-0.15327 -0.47683,-0.47683 -0.15327,-0.32357 -0.15327,-0.69823 0,-0.49386 0.28951,-0.88554 0.2895,-0.39169 0.83446,-0.39169 h 2.82695 q 0.37465,0 0.60456,0.16178 0.2299,0.16178 0.36613,0.41723 l 0.74931,0.74931 q 0,-0.017 -0.008,-0.017 -0.008,0 -0.008,-0.017 l 0.0511,0.0511 q 0.18732,0.18732 0.26396,0.43426 0.0766,0.24693 0.0766,0.5194 0,0.47684 -0.24693,0.86001 -0.24693,0.38317 -0.82595,0.38317 h -0.034 v 3.83171 l 0.76634,0.76634 q 0.18733,0.18733 0.26396,0.43426 0.0766,0.24693 0.0766,0.51941 0,0.47683 -0.24694,0.86 -0.24692,0.38318 -0.82594,0.38318 h -2.1117 q -0.30653,0 -0.54495,-0.11922 -0.35762,0.15327 -0.86001,0.26397 -0.50237,0.11069 -1.26871,0.11069 -1.07288,0 -2.03507,-0.2895 -0.96218,-0.28951 -1.62634,-0.95368 l -0.613082,-0.59604 q -0.69822,-0.49386 -1.09842,-1.29426 -0.4002,-0.8004 -0.4002,-1.97546 v -2.50338 l -0.51089,-0.51089 q -0.32357,-0.15327 -0.47684,-0.47684 -0.15327,-0.32356 -0.15327,-0.71525 0,-0.49387 0.27248,-0.88555 0.27248,-0.39169 0.83446,-0.39169 z"
  />
  <path
    fill="currentColor"
    class="font"
    d="m 121.60595,46.941328 q 0.35763,0 0.52792,-0.25545 0.1703,-0.25545 0.1703,-0.59604 0,-0.3406 -0.1703,-0.60456 -0.17029,-0.26396 -0.52792,-0.26396 h -0.44278 v -3.91685 q 0,-0.69823 -0.30653,-1.27724 -0.30654,-0.57902 -0.85149,-0.98773 -0.54495,-0.40872 -1.29426,-0.63862 -0.74932,-0.2299 -1.61784,-0.2299 -0.86852,0 -1.4305,0.12772 -0.56198,0.12773 -1.00476,0.34912 -0.0851,-0.0852 -0.21287,-0.15327 -0.12772,-0.0681 -0.29802,-0.0681 h -2.1117 q -0.35763,0 -0.51941,0.26396 -0.16178,0.26396 -0.16178,0.60456 0,0.34059 0.16178,0.59604 0.16178,0.25544 0.51941,0.25544 h 0.42575 v 5.07489 h -0.42575 q -0.35763,0 -0.51941,0.26396 -0.16178,0.26396 -0.16178,0.60456 0,0.34059 0.16178,0.59604 0.16178,0.25545 0.51941,0.25545 h 2.84398 q 0.3406,0 0.51941,-0.25545 0.17881,-0.25545 0.17881,-0.59604 0,-0.3406 -0.17881,-0.60456 -0.17881,-0.26396 -0.51941,-0.26396 h -0.0511 v -4.29151 q 0.3406,-0.44278 0.91961,-0.73229 0.57901,-0.2895 1.34535,-0.2895 0.74932,0 1.22615,0.31505 0.47684,0.31505 0.47684,1.0814 v 3.91685 q -0.32357,0.034 -0.46832,0.29802 -0.14476,0.26396 -0.14476,0.5705 0,0.34059 0.16178,0.59604 0.16178,0.25545 0.53644,0.25545 z m -10.06461,0.32357 q -0.32356,-0.15327 -0.46832,-0.46832 -0.14476,-0.31506 -0.14476,-0.70674 0,-0.49386 0.25545,-0.88555 0.25545,-0.39169 0.85149,-0.40872 l -0.0511,-3.88279 -0.42574,-0.42575 q -0.34059,-0.13624 -0.48535,-0.46832 -0.14476,-0.33207 -0.14476,-0.72376 0,-0.49387 0.26396,-0.89407 0.26397,-0.40019 0.84298,-0.40019 h 2.1117 q 0.34059,0 0.56198,0.13623 0.44277,-0.18733 1.00476,-0.2895 0.56198,-0.10218 1.37941,-0.10218 1.32833,0 2.36715,0.47683 1.03882,0.47684 1.6008,1.31129 l 0.56198,0.56198 q 0.44278,0.44278 0.68971,1.00477 0.24693,0.56198 0.24693,1.22614 v 3.03131 q 0,0.034 0.017,0.034 l 0.76634,0.76634 q 0.18733,0.18733 0.27248,0.43426 0.0851,0.24693 0.0851,0.51941 0,0.47683 -0.26396,0.85149 -0.26397,0.37465 -0.80892,0.37465 h -2.72477 q -0.45981,0 -0.73228,-0.27248 l -0.8004,-0.80039 q -0.32357,-0.15327 -0.46832,-0.46832 -0.14475,-0.31506 -0.14475,-0.70674 0,-0.35763 0.14475,-0.68119 0.14475,-0.32357 0.46832,-0.5109 v -3.57626 q -0.0681,0 -0.12772,-0.008 -0.0596,-0.008 -0.12773,-0.008 -0.6301,0 -1.11545,0.21288 -0.48535,0.21287 -0.77485,0.55347 0.0171,1.02179 0.0255,1.88179 0.008,0.86001 0.0255,1.86477 l 0.34059,0.34059 q -0.017,0 -0.017,-0.008 0,-0.008 -0.017,-0.008 l 0.034,0.017 q 0.18733,0.18734 0.27248,0.43426 0.0851,0.24694 0.0851,0.51942 0,0.47683 -0.27247,0.85148 -0.27248,0.37466 -0.8004,0.37466 h -2.8438 q -0.44277,0 -0.71525,-0.27248 z"
  />
  <path
    fill="currentColor"
    class="font"
    d="m 127.90251,38.383888 q 0.41263,0 0.61891,-0.30941 0.20628,-0.30945 0.20628,-0.72207 0,-0.41258 -0.20628,-0.73235 -0.20628,-0.31976 -0.61891,-0.31976 h -1.07273 v -3.69276 q 0,-0.4126 -0.16504,-0.76331 -0.16505,-0.3507 -0.74271,-0.3507 h -1.36157 v 0.72204 1.2378 1.34094 q 0,0 -0.0102,1.07276 l -0.0102,0.43323 h -0.82519 q -0.41258,0 -0.62921,0.31976 -0.21662,0.31977 -0.21662,0.73235 0,0.41262 0.21662,0.72207 0.21663,0.30941 0.62921,0.30941 h 0.24759 v 5.13687 q 0,0.68079 0.30943,1.25846 0.30942,0.57761 0.79423,0.99024 0.48481,0.41258 1.0831,0.63948 0.59824,0.22696 1.19653,0.22696 h 0.9077 q 0.41262,0 0.62921,-0.30945 0.2166,-0.30945 0.2166,-0.72204 0,-0.41261 -0.2166,-0.73239 -0.21659,-0.31976 -0.62921,-0.31976 h -0.9077 q -0.22694,0 -0.37133,-0.31977 -0.14442,-0.31974 -0.14442,-0.6911 v -5.1575 z m 0.61891,-2.4343 q 0.28883,0.14441 0.49512,0.49512 l 0.96961,0.96962 q 0.22691,0.22692 0.33008,0.53636 0.10312,0.30947 0.10312,0.63954 0,0.57762 -0.33008,1.03149 -0.33008,0.45388 -0.94894,0.45388 h -0.61891 v 3.98153 q 0.28883,0.0619 0.50543,0.24759 0.21659,0.18568 0.36102,0.4332 l 0.96961,0.94899 q 0.22691,0.22691 0.33008,0.52606 0.10317,0.29914 0.10317,0.62922 0,0.57765 -0.3404,1.03149 -0.3404,0.45387 -0.9593,0.45387 h -0.90774 q -0.74266,0 -1.49568,-0.30946 -0.75296,-0.30944 -1.33062,-0.88707 l -0.7839,-0.78395 q -0.66016,-0.4745 -1.09341,-1.19652 -0.4332,-0.72203 -0.4332,-1.62979 v -4.43541 l -0.30946,-0.28882 q -0.392,-0.18568 -0.58798,-0.57767 -0.19597,-0.39196 -0.19597,-0.86645 0,-0.59824 0.3507,-1.08306 0.3507,-0.4848 1.01087,-0.4848 h 0.63953 q -0.12379,-0.18568 -0.18565,-0.60859 -0.0617,-0.42291 -0.0929,-0.93865 -0.0308,-0.51575 -0.0308,-1.06245 v -0.95929 -1.23779 h 1.87732 q 0.49511,0 0.78395,0.18567 0.28883,0.18567 0.43323,0.47449 l 0.99025,0.9696 q 0.22691,0.22693 0.30942,0.55701 0.0825,0.33008 0.0825,0.68079 z"
  />
  <path
    fill="currentColor"
    class="font"
    d="m 151.27508,38.452328 q -0.26609,0.22515 -0.15352,0.58334 0.11258,0.3582 0.39914,0.6243 0.30702,0.34795 0.71639,0.45029 0.40937,0.10235 0.69592,-0.16374 0.30703,-0.34796 0.64475,-0.66522 0.33774,-0.31726 0.66523,-0.64476 h -0.0204 q 0.10234,-0.10233 0.22516,-0.31725 0.1228,-0.21492 0.1228,-0.44009 0,-0.4503 -0.36842,-0.7778 -0.36843,-0.32749 -0.88014,-0.55264 -0.51171,-0.22516 -1.05413,-0.33774 -0.54241,-0.11257 -0.8699,-0.11257 -0.7164,0 -1.37138,0.0921 -0.65499,0.0921 -1.1667,0.46053 -0.18422,-0.24562 -0.61405,-0.24562 h -2.53808 q -0.40936,0 -0.62428,0.31726 -0.21493,0.31727 -0.21493,0.72664 0,0.40936 0.21493,0.7164 0.21492,0.30703 0.62428,0.30703 h 0.49125 v 6.12004 h -0.49125 q -0.40936,0 -0.62428,0.31726 -0.21493,0.31725 -0.21493,0.72663 0,0.40936 0.21493,0.71639 0.21492,0.30702 0.62428,0.30702 h 4.91241 q 0.42983,0 0.64475,-0.30702 0.21492,-0.30703 0.21492,-0.71639 0,-0.40938 -0.21492,-0.72663 -0.21492,-0.31726 -0.64475,-0.31726 h -1.5556 v -2.82464 q 0,-1.63747 0.47077,-2.61994 0.47078,-0.98249 1.33045,-0.98249 0.22516,0 0.59358,0.10234 z m -6.14051,8.59671 q -0.3889,-0.16375 -0.58335,-0.55264 -0.19445,-0.3889 -0.19445,-0.85967 0,-0.59359 0.32749,-1.06436 0.3275,-0.47078 1.00295,-0.49124 0,-1.18717 -0.0204,-2.35386 -0.0204,-1.1667 -0.0204,-2.35386 l -0.49124,-0.49124 q -0.40936,-0.16376 -0.60382,-0.56288 -0.19445,-0.39915 -0.19445,-0.86992 0,-0.59359 0.34797,-1.0746 0.34796,-0.48101 1.00294,-0.48101 h 2.53808 q 0.38891,0 0.63453,0.12281 0.53218,-0.28655 1.17692,-0.3582 0.64476,-0.0716 1.34069,-0.0716 0.30702,0 0.79826,0.0921 0.49124,0.0921 1.00295,0.28656 0.51171,0.19445 0.96201,0.49124 0.45031,0.29679 0.69593,0.6857 l 0.92107,0.92109 q 0.47077,0.47078 0.47077,1.04388 0,0.34797 -0.20468,0.67546 -0.20468,0.32749 -0.3275,0.49125 l -0.36843,0.34795 q -0.22514,0.22516 -0.44006,0.42985 -0.21492,0.20467 -0.41961,0.42983 -0.4503,0.40937 -1.02341,0.30702 -0.57312,-0.10234 -0.98248,-0.51171 l -1.00295,-1.00294 q -0.0409,-0.0204 -0.0512,-0.0307 -0.0102,-0.0102 -0.0512,-0.0306 -0.30703,0.38889 -0.47077,1.10529 -0.16375,0.71639 -0.16375,1.67841 v 1.08482 q 0.3889,0.0409 0.64475,0.23538 0.25586,0.19445 0.41961,0.48101 l 0.88013,0.90061 q 0,-0.0204 -0.0102,-0.0204 -0.0102,0 -0.0102,-0.0204 l 0.0614,0.0614 q 0.22515,0.22515 0.32749,0.52194 0.10234,0.29679 0.10234,0.62429 0,0.57311 -0.32749,1.02342 -0.3275,0.4503 -0.98248,0.4503 h -4.91241 q -0.51171,0 -0.85967,-0.34796 z"
  />
</svg>
