<svg viewBox="0 0 3025.1217 3023.6212">
 <g
   transform="translate(-3874.3782,-5359.5421)"
   style="stroke: none;">
  <path
   style="fill: currentColor;stroke:none;stroke-width:25"
   d="m 5031,6797 h 712 c 41,0 75,33 75,75 v 0 c 0,41 -34,75 -75,75 h -712 c -41,0 -75,-34 -75,-75 v 0 c 0,-42 34,-75 75,-75 z m 1083,-585 c 0,48 -58,130 -142,44 -24,-24 -35,-32 -61,-53 -258,-213 -657,-239 -945,-70 -14,9 -22,11 -34,19 -79,48 -184,147 -237,225 l -77,128 c -108,226 -108,498 -2,728 126,272 429,488 733,488 249,0 454,-64 634,-245 69,-68 125,-143 169,-233 109,-221 110,-471 19,-701 -17,-41 -59,-98 -16,-145 20,-23 82,-34 116,14 67,93 116,345 116,476 0,82 -19,192 -42,261 -20,62 -41,122 -71,179 -6,13 -13,26 -21,40 l -155,201 c -80,88 -191,165 -302,213 -467,204 -942,48 -1229,-340 l -68,-114 c -9,-15 -15,-32 -22,-46 -168,-346 -90,-761 143,-1047 20,-25 40,-46 62,-67 20,-21 39,-39 63,-59 72,-61 142,-107 232,-146 293,-128 552,-115 841,9 68,29 296,177 296,241 z" />
 </g>
</svg>
