<?xml version="1.0" encoding="UTF-8" standalone="no"?>
<svg
   xmlns:dc="http://purl.org/dc/elements/1.1/"
   xmlns:cc="http://creativecommons.org/ns#"
   xmlns:rdf="http://www.w3.org/1999/02/22-rdf-syntax-ns#"
   xmlns:svg="http://www.w3.org/2000/svg"
   xmlns="http://www.w3.org/2000/svg"
   xmlns:sodipodi="http://sodipodi.sourceforge.net/DTD/sodipodi-0.dtd"
   xmlns:inkscape="http://www.inkscape.org/namespaces/inkscape"
   id="svg714"
   viewBox="0 0 3025.1217 3023.6212"
   style="clip-rule:evenodd;fill-rule:evenodd;image-rendering:optimizeQuality;shape-rendering:geometricPrecision;text-rendering:geometricPrecision"
   version="1.1"
   height="30.236212mm"
   width="30.251217mm"
   xml:space="preserve"
   sodipodi:docname="minus.svg"
   inkscape:version="0.92.4 5da689c313, 2019-01-14"><sodipodi:namedview
   pagecolor="#ffffff"
   bordercolor="#666666"
   borderopacity="1"
   objecttolerance="10"
   gridtolerance="10"
   guidetolerance="10"
   inkscape:pageopacity="0"
   inkscape:pageshadow="2"
   inkscape:window-width="1920"
   inkscape:window-height="1009"
   id="namedview4742"
   showgrid="false"
   inkscape:zoom="2.0651286"
   inkscape:cx="-32.657259"
   inkscape:cy="57.139298"
   inkscape:window-x="0"
   inkscape:window-y="46"
   inkscape:window-maximized="0"
   inkscape:current-layer="svg714" /><metadata
   id="metadata718"><rdf:RDF><cc:Work
       rdf:about=""><dc:format>image/svg+xml</dc:format><dc:type
         rdf:resource="http://purl.org/dc/dcmitype/StillImage" /><dc:title /></cc:Work></rdf:RDF></metadata>
 <defs
   id="defs708">
  <style
   id="style706"
   type="text/css">
   <![CDATA[
    .str0 {stroke:#FEFEFE;stroke-width:25}
    .fil0 {fill:black}
   ]]>
  </style>
 </defs>
 <g
   transform="translate(-3874.3782,-5359.5421)"
   id="Camada_x0020_1"
   style="stroke:none">
  <metadata
   id="CorelCorpID_0Corel-Layer" />
  <path
   style="fill:#000000;stroke:none;stroke-width:25"
   id="path711"
   d="m 5031,6797 h 712 c 41,0 75,33 75,75 v 0 c 0,41 -34,75 -75,75 h -712 c -41,0 -75,-34 -75,-75 v 0 c 0,-42 34,-75 75,-75 z m 1083,-585 c 0,48 -58,130 -142,44 -24,-24 -35,-32 -61,-53 -258,-213 -657,-239 -945,-70 -14,9 -22,11 -34,19 -79,48 -184,147 -237,225 l -77,128 c -108,226 -108,498 -2,728 126,272 429,488 733,488 249,0 454,-64 634,-245 69,-68 125,-143 169,-233 109,-221 110,-471 19,-701 -17,-41 -59,-98 -16,-145 20,-23 82,-34 116,14 67,93 116,345 116,476 0,82 -19,192 -42,261 -20,62 -41,122 -71,179 -6,13 -13,26 -21,40 l -155,201 c -80,88 -191,165 -302,213 -467,204 -942,48 -1229,-340 l -68,-114 c -9,-15 -15,-32 -22,-46 -168,-346 -90,-761 143,-1047 20,-25 40,-46 62,-67 20,-21 39,-39 63,-59 72,-61 142,-107 232,-146 293,-128 552,-115 841,9 68,29 296,177 296,241 z"
   class="fil0 str0" />
 </g>
</svg>