<svg viewBox="0 0 3025.1143 3024.2661">
  <path
    style="fill:currentColor;stroke:none;stroke-width:25"
    d="m 1156.5,1437.1029 h 281 v -281 c 0,-41 34,-75 75,-75 v 0 c 41,0 75,34 75,75 v 281 h 281 c 41,0 75,34 75,75 v 0 c 0,41 -34,75 -75,75 h -281 v 281 c 0,41 -34,75 -75,75 v 0 c -41,0 -75,-34 -75,-75 v -281 h -281 c -41,0 -75,-34 -75,-75 v 0 c 0,-41 34,-75 75,-75 z" />
  <path
    style="fill:currentColor;stroke:none;stroke-width:25"
    d="m 785.5,853.1029 c 0,48 58,129 142,43 24,-23 35,-32 61,-53 258,-213 657,-239 945,-69 14,8 22,11 34,18 79,49 184,148 237,226 l 77,128 c 108,226 108,498 2,727 -126,273 -429,488 -733,488 -249,0 -454,-64 -634,-244 -69,-69 -125,-143 -169,-233 -109,-222 -110,-472 -19,-701 17,-41 59,-99 16,-146 -20,-22 -82,-34 -116,15 -67,92 -116,344 -116,475 0,83 19,192 42,262 20,61 41,122 71,179 6,13 13,25 21,39 l 155,202 c 80,88 191,165 302,213 467,204 942,48 1229,-340 l 68,-114 c 9,-16 15,-32 22,-46 168,-347 90,-761 -143,-1048 -20,-24 -40,-45 -62,-67 -20,-20 -39,-38 -63,-58 -72,-62 -142,-107 -232,-147 -293,-128 -552,-114 -841,9 -68,29 -296,177 -296,242 z" />
</svg>
