<?xml version="1.0" encoding="UTF-8"?>
<!DOCTYPE svg PUBLIC "-//W3C//DTD SVG 1.1//EN" "http://www.w3.org/Graphics/SVG/1.1/DTD/svg11.dtd">
<!-- Creator: CorelDRAW X8 -->
<svg xmlns="http://www.w3.org/2000/svg" xml:space="preserve" width="70mm" height="70mm" version="1.1" style="shape-rendering:geometricPrecision; text-rendering:geometricPrecision; image-rendering:optimizeQuality; fill-rule:evenodd; clip-rule:evenodd"
viewBox="0 0 7000 7000"
 xmlns:xlink="http://www.w3.org/1999/xlink">
 <defs>
  <style type="text/css">
   <![CDATA[
    .fil0 {fill:black}
    .fil1 {fill:#7A5346}
   ]]>
  </style>
 </defs>
 <g id="Camada_x0020_1">
  <metadata id="CorelCorpID_0Corel-Layer"/>
  <g id="_1952698219424">
   <path class="fil0" d="M1714 113l4 67c389,-28 1168,126 1494,256 117,46 235,91 257,204 68,362 -705,296 -976,324 156,139 552,228 810,186 373,-60 900,-709 1330,107 131,249 199,511 71,770 -268,5 -256,-209 -518,-518 -79,615 568,1251 1073,1298 132,22 184,14 124,101 -16,344 -212,877 -452,966 -296,-359 -1,-621 -3,-959 -157,70 -327,312 -380,552 -68,304 -7,600 -50,861 -70,411 -494,934 -1011,740 -731,-275 324,-855 426,-937 234,-188 533,-829 487,-1306 -266,86 -598,440 -1119,578 -568,151 -827,-179 -1469,-71 -848,143 -1565,946 -1449,1971 96,844 749,1685 1740,1696 776,9 2414,-63 2921,-479 -370,-45 -1163,110 -1280,-232 137,-373 1417,-288 1891,-466 545,-203 978,-850 1014,-1329 -203,119 -306,310 -619,458 -161,77 -598,240 -779,260l8 -62c92,-175 569,-669 730,-825 641,-623 753,-1511 418,-2340 -100,-250 -429,-847 -576,-968l-56 -55 -4 35 33 49c124,334 474,1010 190,1330 -78,-141 -152,-448 -235,-620 -262,-544 -631,-1046 -1177,-1357 -1062,-606 -1932,-360 -2868,-285z"/>
   <path class="fil0" d="M398 1564c178,-50 341,-289 612,-353 16,132 22,295 86,400l45 -55c223,-320 117,-431 594,-515 441,-78 295,-545 -68,-622 -551,-115 -1121,591 -1269,1145z"/>
   <path class="fil0" d="M2323 1413c75,93 127,56 335,291 94,107 188,270 272,346 241,217 772,62 858,-193 118,-351 -266,-663 -584,-317 -332,362 -402,-202 -881,-127z"/>
   <path class="fil1" d="M5383 2908c60,-87 8,-79 -124,-101 133,100 71,-18 124,101z"/>
   <polygon class="fil1" points="1718,180 1714,113 1621,153 "/>
   <path class="fil1" d="M5775 961l56 55 -62 -120 6 65zm29 84l-33 -49c-4,60 -21,49 33,49z"/>
   <polygon class="fil1" points="5251,5211 5259,5149 "/>
  </g>
 </g>
</svg>
