<svg viewBox="0 0 10465.5 10465.5">
  <g transform="translate(-15575.75,-760.75)" >
    <path
      style="fill:#0d0f0f"
      d="m 20746,10481 c -327,327 -859,327 -1186,0 L 16321,7242 c -327,-328 -327,-859 0,-1187 l 4549,-4549 c 328,-327 859,-327 1187,0 l 3239,3239 c 327,328 327,859 0,1186 z m 3526,-3692 h -3640 l 1333,-948 c -495,-393 -1068,-589 -1717,-589 -324,0 -547,61 -666,185 -120,124 -179,348 -179,673 0,897 461,1854 1383,2870 l -1050,1064 C 18514,8557 17904,7229 17904,6058 c 0,-700 210,-1258 633,-1672 423,-414 986,-621 1685,-621 854,0 1786,325 2794,974 l 781,-1333 z" />
  </g>
</svg>
