<?xml version="1.0" encoding="UTF-8"?>
<!DOCTYPE svg  PUBLIC '-//W3C//DTD SVG 1.1//EN'  'http://www.w3.org/Graphics/SVG/1.1/DTD/svg11.dtd'>
<svg width="70mm" height="70mm" clip-rule="evenodd" fill-rule="evenodd" image-rendering="optimizeQuality" shape-rendering="geometricPrecision" text-rendering="geometricPrecision" version="1.1" viewBox="0 0 7000 7000" xml:space="preserve" xmlns="http://www.w3.org/2000/svg">
 <defs>
  <style type="text/css">
   <![CDATA[
    .fil0 {fill:black}
    .fil1 {fill:#5D5C4E}
    .fil2 {fill:#ACAA90}
   ]]>
  </style>
 </defs>
   <path class="fil0" d="m3288 2076c825-121 1506 526 1605 1220 120 844-488 1510-1225 1598-845 101-1523-525-1620-1236-113-824 540-1480 1240-1582zm637-1924c-217 90-1221 791-1100 1038 164 158 377 150 309 506-42 216-200 364-444 358-82-145-152-335-265-412-240-165-351 50-536 40-270-15-383-615-465-908-59 252-99 540-142 794-230 1355 291 448 654 929 146 194 79 416-75 590-168-26-356-159-530-55-241 145-104 714-992 188-31-18-52-30-91-50l-137-28 103 118c201 291 469 749 741 925 331 216 428-169 582-271 180-119 433 31 503 393-640 233-268 520-374 809-102 278-642 308-886 447 2240 420 1373-167 1612-510 144-206 442-82 599 5-26 189-154 314-65 542 80 206 206 176 338 312 191 198-166 753-252 921l47 9 615-451c134-104 479-345 482-600-156-224-355-99-339-449 11-257 172-355 418-396 45 130 181 352 264 409 252 172 355-42 522-36 264 9 391 630 492 887 104-311 235-1309 141-1499-96-194-280 146-655-164-225-186-50-370 47-555 792 131 612 76 805-350 450-76 726 227 981 320l4-46c-197-280-390-577-589-842-76-101-230-282-434-276-278 10-243 215-377 361-279 52-412-108-470-328 671-513 424-290 373-826-21-211 175-256 349-314 138-46 388-115 534-134-45-37 0 11-27-51-465 4-1167-279-1588-50-18 92 201 1050-601 472 19-197 81-370 0-565-185-447-691-183-55-1179l18-38-6-28-3 5c-4 43 8 33-35 33z"/>
   <path class="fil0" d="m3318 2231c-654 92-1222 668-1116 1442 87 633 729 1194 1491 1071 640-103 1194-674 1060-1455-104-606-701-1160-1435-1058z"/>
   <path class="fil1" d="m3059 6842l-47-9c-34 29-11-72-50 76l97-67z"/>
   <path class="fil1" d="m6836 3912l-4 46c24 39-64 17 57 39-25-94-23-55-53-85z"/>
   <path class="fil2" d="m6222 1553c60 7 54 26 48-24l-75-27c27 62-18 14 27 51z"/>
   <path class="fil1" d="m3969 142l-18 38c44 0 31 8 18-38l50-51-56 23 6 28zm-44 10c43 0 31 10 35-33l-35 33z"/>
</svg>
