<svg viewBox="0 0 7000 7000">
 <path fill="currentColor" d="m3630 3795l6-103c111 30 32 2 65 56 73 256 172 483 284 723 95 204 45 733-21 944-373-31-226-207-842-56-8 2-17 5-25 6l-101-2c-172-336 5-1532 310-1682 49 87 24 8 35 137 4 54-1 139 0 197l47 683c3 49 5 153 11 195 26 162-19 78 69 142 94-45 50-5 75-111l87-1129zm1602-1446c532-85 970 372 1093 757 252 789-378 820-1005 825-622 5-1424 183-1105-697 142-394 539-809 1017-885zm-3735 0c819-189 1609 989 1348 1399-129 203-457 193-741 189-534-9-1381 83-1432-475-52-558 392-1013 825-1113zm727 4558l204 17 58-144c18-278 9-267-11-539-9-128 50-368 149-453 94 59 22-45 87 120 87 222 143 732 238 907l341-23c30-243 40-785 146-961l183 14c63 193 21 524 23 758 120 13 447-234 548-296l-19-415c51-26-59-19 82-25 181-8 203 409 196 486-36 364-37 288 42 647 444-99 448-52 490-236l36-437c-38-640-59-580-56-1307 1-270 10-347 225-424 547-197 1550-31 1673-985 123-948-322-1860-844-2501-118-144-139-252-362-145-234 112-683 334-973 339 271-176 729-417 846-636-5-7-12-16-16-20-3-4-11-14-16-19l-33-36c-700-666-2528-764-3469-330-277 127-376 138-312 505 125 718 530 640 833 968-141-36-293-109-469-165-155-48-324-50-478-106-89-196-99-372-144-567-11-52-10-52-29-103-28-71-23-48-36-67-375 287-833 837-1040 1434-198 568-345 1544 61 1986 216 235 526 251 906 326 88 18 471 81 518 102 75 33 228 223 231 346 1 83-52 410-61 552-36 558-201 1361 252 1433z"/>
</svg>
